Mekorot-Rashi-Bold-Italic.ufo
<glyph name="exclam" format="2">
  <advance width="306"/>
  <unicode hex="0021"/>
  <outline>
    <contour>
      <point x="222.173" y="164.782" type="curve" smooth="yes"/>
      <point x="272.839" y="151.563"/>
      <point x="287.785" y="101.801"/>
      <point x="275.403" y="54.8691" type="curve" smooth="yes"/>
      <point x="265.323" y="16.6602"/>
      <point x="235.954" y="-23.7402"/>
      <point x="190.673" y="-44.0312" type="curve" smooth="yes"/>
      <point x="179.366" y="-49.0977"/>
      <point x="166.682" y="-53.6973"/>
      <point x="152.988" y="-55.5693" type="curve" smooth="yes"/>
      <point x="146.718" y="-56.4268"/>
      <point x="140.396" y="-56.915"/>
      <point x="134.097" y="-56.915" type="curve" smooth="yes"/>
      <point x="123.771" y="-56.915"/>
      <point x="113.518" y="-55.5801"/>
      <point x="103.805" y="-52.4395" type="curve" smooth="yes"/>
      <point x="58.375" y="-37.75"/>
      <point x="40.418" y="9.16113"/>
      <point x="53.1133" y="57.2793" type="curve" smooth="yes"/>
      <point x="56.0508" y="68.418"/>
      <point x="60.6953" y="79.6709"/>
      <point x="67.0918" y="90.6631" type="curve" smooth="yes"/>
      <point x="82.877" y="117.785"/>
      <point x="108.276" y="138.414"/>
      <point x="129.486" y="150.5" type="curve" smooth="yes"/>
      <point x="144.016" y="158.778"/>
      <point x="157.777" y="163.209"/>
      <point x="170.262" y="165.77" type="curve"/>
      <point x="160.44" y="171.695"/>
      <point x="154.117" y="182.429"/>
      <point x="155.729" y="197.41" type="curve" smooth="yes"/>
      <point x="156.615" y="205.635"/>
      <point x="158.822" y="214.097"/>
      <point x="159.923" y="218.269" type="curve" smooth="yes"/>
      <point x="161.176" y="223.018"/>
      <point x="161.466" y="223.952"/>
      <point x="162.433" y="227.617" type="curve" smooth="yes"/>
      <point x="163.568" y="231.921"/>
      <point x="164.14" y="234.508"/>
      <point x="164.476" y="236.225" type="curve" smooth="yes"/>
      <point x="169.941" y="264.206"/>
      <point x="174.012" y="292.392"/>
      <point x="178.37" y="321.17" type="curve" smooth="yes"/>
      <point x="189.469" y="394.441"/>
      <point x="194.192" y="468.336"/>
      <point x="205.201" y="544.254" type="curve" smooth="yes"/>
      <point x="208.381" y="566.182"/>
      <point x="212.003" y="587.891"/>
      <point x="215.579" y="609.481" type="curve" smooth="yes"/>
      <point x="216.706" y="616.289"/>
      <point x="216.627" y="624.415"/>
      <point x="219.574" y="635.588" type="curve" smooth="yes"/>
      <point x="219.838" y="636.588"/>
      <point x="221.034" y="640.553"/>
      <point x="221.646" y="642.248" type="curve" smooth="yes"/>
      <point x="234.168" y="676.965"/>
      <point x="267.119" y="712.978"/>
      <point x="293.054" y="729.057" type="curve" smooth="yes"/>
      <point x="317.445" y="744.17"/>
      <point x="347.623" y="750.456"/>
      <point x="360.902" y="752.451" type="curve" smooth="yes"/>
      <point x="365.832" y="753.186"/>
      <point x="370.7" y="753.543"/>
      <point x="375.501" y="753.543" type="curve" smooth="yes"/>
      <point x="401.923" y="753.543"/>
      <point x="434.12" y="742.398"/>
      <point x="441.736" y="710.801" type="curve" smooth="yes"/>
      <point x="445.903" y="693.504"/>
      <point x="442.682" y="675.446"/>
      <point x="438.573" y="659.87" type="curve" smooth="yes"/>
      <point x="436.915" y="653.587"/>
      <point x="435.04" y="647.605"/>
      <point x="433.214" y="642.11" type="curve" smooth="yes"/>
      <point x="424.478" y="615.818"/>
      <point x="412.319" y="592.337"/>
      <point x="404.104" y="571.182" type="curve" smooth="yes"/>
      <point x="369.812" y="482.872"/>
      <point x="332.583" y="394.866"/>
      <point x="295.215" y="307.405" type="curve" smooth="yes"/>
      <point x="282.113" y="276.74"/>
      <point x="270.882" y="242.313"/>
      <point x="253.234" y="207.921" type="curve" smooth="yes"/>
      <point x="249.925" y="201.471"/>
      <point x="248.102" y="198.169"/>
      <point x="243.818" y="192.099" type="curve" smooth="yes"/>
      <point x="239.621" y="186.149"/>
      <point x="230.175" y="173.839"/>
      <point x="215.167" y="166.419" type="curve"/>
      <point x="217.598" y="165.922"/>
      <point x="219.934" y="165.366"/>
    </contour>
  </outline>
</glyph>
<glyph name="quotedbl" format="2">
  <advance width="539"/>
  <unicode hex="0022"/>
  <outline>
    <contour>
      <point x="492.779" y="657.47" type="line" smooth="yes"/>
      <point x="499.52" y="669.679"/>
      <point x="506.721" y="686.44"/>
      <point x="522.799" y="701.638" type="curve" smooth="yes"/>
      <point x="548.055" y="725.508"/>
      <point x="577.104" y="729.722"/>
      <point x="598.783" y="729.722" type="curve" smooth="yes"/>
      <point x="616.731" y="729.722"/>
      <point x="632.747" y="727.034"/>
      <point x="644.196" y="726.243" type="curve" smooth="yes"/>
      <point x="655.493" y="725.473"/>
      <point x="677.528" y="728.196"/>
      <point x="694.151" y="712.775" type="curve" smooth="yes"/>
      <point x="704.466" y="703.199" type="line"/>
      <point x="696.646" y="687.607" type="line" smooth="yes"/>
      <point x="689.261" y="672.892"/>
      <point x="684.353" y="655.025"/>
      <point x="670.34" y="633.938" type="curve" smooth="yes"/>
      <point x="647.451" y="599.497"/>
      <point x="618.314" y="571.796"/>
      <point x="593.506" y="546.023" type="curve" smooth="yes"/>
      <point x="496.153" y="443.531" type="line"/>
      <point x="441.833" y="387.581" type="line" smooth="yes"/>
      <point x="436.111" y="381.136"/>
      <point x="431.697" y="375.398"/>
      <point x="425.159" y="369.254" type="curve" smooth="yes"/>
      <point x="420.032" y="364.435"/>
      <point x="414.87" y="360.253"/>
      <point x="408.78" y="357.709" type="curve" smooth="yes"/>
      <point x="405.382" y="356.289"/>
      <point x="401.54" y="354.026"/>
      <point x="391.323" y="352.872" type="curve" smooth="yes"/>
      <point x="390.585" y="352.788"/>
      <point x="387.715" y="352.549"/>
      <point x="386.547" y="352.491" type="curve" smooth="yes"/>
      <point x="385.206" y="352.428"/>
      <point x="382.984" y="352.389"/>
      <point x="382.102" y="352.389" type="curve" smooth="yes"/>
      <point x="372.228" y="352.389"/>
      <point x="362.74" y="353.853"/>
      <point x="357.803" y="353.853" type="curve" smooth="yes"/>
      <point x="329.604" y="353.853" type="line"/>
      <point x="341.069" y="381.751" type="line" smooth="yes"/>
      <point x="352.831" y="410.369"/>
      <point x="370.592" y="436.377"/>
      <point x="382.86" y="458.442" type="curve" smooth="yes"/>
    </contour>
    <contour>
      <point x="270.482" y="657.419" type="line" smooth="yes"/>
      <point x="276.847" y="668.947"/>
      <point x="283.64" y="684.797"/>
      <point x="298.762" y="699.415" type="curve" smooth="yes"/>
      <point x="320.436" y="720.37"/>
      <point x="345.074" y="729.302"/>
      <point x="376.204" y="729.302" type="curve" smooth="yes"/>
      <point x="394.582" y="729.302"/>
      <point x="410.955" y="726.593"/>
      <point x="422.881" y="726.292" type="curve" smooth="yes"/>
      <point x="423.047" y="726.292"/>
      <point x="423.542" y="726.278"/>
      <point x="423.708" y="726.278" type="curve" smooth="yes"/>
      <point x="426.735" y="726.278"/>
      <point x="429.826" y="726.523"/>
      <point x="433.863" y="726.523" type="curve" smooth="yes"/>
      <point x="434.258" y="726.523"/>
      <point x="435.441" y="726.509"/>
      <point x="435.834" y="726.502" type="curve" smooth="yes"/>
      <point x="443.957" y="726.334"/>
      <point x="454.767" y="726.285"/>
      <point x="464.331" y="720.594" type="curve" smooth="yes"/>
      <point x="469.446" y="717.556"/>
      <point x="474.583" y="712.215"/>
      <point x="476.637" y="704.41" type="curve" smooth="yes"/>
      <point x="477.799" y="699.997"/>
      <point x="477.823" y="694.316"/>
      <point x="476.048" y="687.588" type="curve" smooth="yes"/>
      <point x="473.382" y="677.482"/>
      <point x="467.767" y="667.893"/>
      <point x="466.087" y="664.283" type="curve" smooth="yes"/>
      <point x="452.053" y="634.104"/>
      <point x="431.013" y="609.045"/>
      <point x="410.471" y="586.859" type="curve" smooth="yes"/>
      <point x="257.79" y="426.231" type="line"/>
      <point x="216.111" y="382.633" type="line" smooth="yes"/>
      <point x="210.017" y="375.897"/>
      <point x="209.015" y="374.453"/>
      <point x="205.359" y="370.707" type="curve" smooth="yes"/>
      <point x="204.826" y="370.161"/>
      <point x="202.717" y="368.079"/>
      <point x="201.458" y="366.94" type="curve" smooth="yes"/>
      <point x="200.705" y="366.258"/>
      <point x="198.152" y="364.081"/>
      <point x="196.521" y="362.862" type="curve" smooth="yes"/>
      <point x="194.603" y="361.428"/>
      <point x="191.197" y="359.288"/>
      <point x="189.812" y="358.548" type="curve" smooth="yes"/>
      <point x="182.461" y="354.618"/>
      <point x="175.306" y="353.61"/>
      <point x="169.682" y="353.61" type="curve" smooth="yes"/>
      <point x="168.699" y="353.61"/>
      <point x="164.225" y="353.853"/>
      <point x="163.56" y="353.853" type="curve" smooth="yes"/>
      <point x="105.934" y="353.853" type="line"/>
      <point x="120.623" y="383.646" type="line" smooth="yes"/>
      <point x="156.165" y="455.728"/>
      <point x="198.256" y="525.733"/>
      <point x="236.095" y="594.577" type="curve" smooth="yes"/>
    </contour>
  </outline>
</glyph>
<glyph name="numbersign" format="2">
  <advance width="577"/>
  <unicode hex="0023"/>
  <outline>
    <contour>
      <point x="364.452" y="435.002" type="line"/>
      <point x="328.983" y="342.756" type="line"/>
      <point x="422.945" y="341.155" type="line"/>
      <point x="456.401" y="431.803" type="line"/>
    </contour>
    <contour>
      <point x="382.229" y="780.409" type="line"/>
      <point x="503.565" y="780.409" type="line"/>
      <point x="494.564" y="754.145" type="line" smooth="yes"/>
      <point x="470.656" y="684.382"/>
      <point x="434.761" y="620.705"/>
      <point x="409.346" y="556.21" type="curve"/>
      <point x="503.264" y="556.21" type="line"/>
      <point x="530.231" y="626.849"/>
      <point x="567.896" y="693.325"/>
      <point x="590.043" y="757.967" type="curve" smooth="yes"/>
      <point x="597.732" y="780.409" type="line"/>
      <point x="720.23" y="780.409" type="line"/>
      <point x="663.271" y="645.055" type="line"/>
      <point x="626.193" y="556.21" type="line"/>
      <point x="739.102" y="556.21" type="line"/>
      <point x="707.644" y="436.957" type="line"/>
      <point x="578.979" y="436.957" type="line"/>
      <point x="540.754" y="340.705" type="line"/>
      <point x="654.224" y="340.705" type="line"/>
      <point x="622.764" y="221.451" type="line"/>
      <point x="493.864" y="221.451" type="line"/>
      <point x="468.037" y="158.203" type="line"/>
      <point x="393.79" y="-22.0781" type="line"/>
      <point x="274.415" y="-22.0781" type="line"/>
      <point x="307.665" y="61.6523" type="line"/>
      <point x="358.741" y="187.321" type="line"/>
      <point x="372.4" y="221.451" type="line"/>
      <point x="268.867" y="221.451" type="line"/>
      <point x="252.514" y="180.589" type="line"/>
      <point x="184.929" y="14.4072" type="line"/>
      <point x="177.109" y="-1.9209" type="line"/>
      <point x="168.356" y="-20.1221" type="line"/>
      <point x="129.877" y="-22.0615" type="line"/>
      <point x="52.5059" y="-22.0791" type="line"/>
      <point x="59.1875" y="2.47656" type="line" smooth="yes"/>
      <point x="69.1113" y="38.9502"/>
      <point x="87.833" y="74.3496"/>
      <point x="100.495" y="104.578" type="curve" smooth="yes"/>
      <point x="116.477" y="142.727"/>
      <point x="131.33" y="181.944"/>
      <point x="148.113" y="221.451" type="curve"/>
      <point x="35.7783" y="221.451" type="line"/>
      <point x="67.2393" y="340.705" type="line"/>
      <point x="205.281" y="340.705" type="line"/>
      <point x="242.224" y="436.957" type="line"/>
      <point x="120.657" y="436.957" type="line"/>
      <point x="152.118" y="556.21" type="line"/>
      <point x="287.759" y="556.21" type="line"/>
      <point x="314.726" y="626.85"/>
      <point x="352.385" y="693.323"/>
      <point x="374.54" y="757.974" type="curve" smooth="yes"/>
    </contour>
  </outline>
</glyph>
<glyph name="ampersand" format="2">
  <advance width="891"/>
  <unicode hex="0026"/>
  <outline>
    <contour>
      <point x="581.483" y="-17.5215" type="curve" smooth="yes"/>
      <point x="554.637" y="0.171875"/>
      <point x="535.753" y="23.8672"/>
      <point x="518.775" y="46.9795" type="curve" smooth="yes"/>
      <point x="516.08" y="50.6484"/>
      <point x="513.61" y="54.3232"/>
      <point x="511.28" y="58.04" type="curve"/>
      <point x="500.446" y="51.0811" type="line" smooth="yes"/>
      <point x="473.691" y="34.4707"/>
      <point x="445.305" y="20.2109"/>
      <point x="417.008" y="8.94238" type="curve" smooth="yes"/>
      <point x="395.934" y="0.552734"/>
      <point x="374.392" y="-7.31641"/>
      <point x="352.156" y="-13.5205" type="curve" smooth="yes"/>
      <point x="320.403" y="-22.3799"/>
      <point x="273.58" y="-32.2031"/>
      <point x="224.482" y="-32.2031" type="curve" smooth="yes"/>
      <point x="155.873" y="-32.2031"/>
      <point x="87.5508" y="-12.5439"/>
      <point x="60.7207" y="50.3574" type="curve" smooth="yes"/>
      <point x="54.8457" y="64.1299"/>
      <point x="51.8652" y="78.9541"/>
      <point x="50.5918" y="93.8438" type="curve" smooth="yes"/>
      <point x="48.8809" y="113.849"/>
      <point x="50.7891" y="135.238"/>
      <point x="55.2314" y="155.806" type="curve" smooth="yes"/>
      <point x="57.0156" y="164.073"/>
      <point x="58.915" y="172.584"/>
      <point x="61.2227" y="181.331" type="curve" smooth="yes"/>
      <point x="64.6094" y="194.17"/>
      <point x="68.9463" y="207.662"/>
      <point x="75.4639" y="221.678" type="curve" smooth="yes"/>
      <point x="110.938" y="297.963"/>
      <point x="183.243" y="354.579"/>
      <point x="247.947" y="394.585" type="curve" smooth="yes"/>
      <point x="277.611" y="412.927"/>
      <point x="307.999" y="428.662"/>
      <point x="336.735" y="444.003" type="curve" smooth="yes"/>
      <point x="352.332" y="452.771" type="line"/>
      <point x="351.181" y="468.161" type="line" smooth="yes"/>
      <point x="349.17" y="496.88"/>
      <point x="348.492" y="526.835"/>
      <point x="351.473" y="557.849" type="curve" smooth="yes"/>
      <point x="353.241" y="576.236"/>
      <point x="356.137" y="596.667"/>
      <point x="361.665" y="617.623" type="curve" smooth="yes"/>
      <point x="366.63" y="636.438"/>
      <point x="373.71" y="655.841"/>
      <point x="384.572" y="674.555" type="curve" smooth="yes"/>
      <point x="435.345" y="762.02"/>
      <point x="539.021" y="814.849"/>
      <point x="623.48" y="818.104" type="curve" smooth="yes"/>
      <point x="624.804" y="818.153"/>
      <point x="628.763" y="818.23"/>
      <point x="630.075" y="818.23" type="curve" smooth="yes"/>
      <point x="729.932" y="818.23"/>
      <point x="775.6" y="730.618"/>
      <point x="751.716" y="640.086" type="curve" smooth="yes"/>
      <point x="746.795" y="621.442"/>
      <point x="738.913" y="602.494"/>
      <point x="727.832" y="584.062" type="curve" smooth="yes"/>
      <point x="684.706" y="512.297"/>
      <point x="604.132" y="461.134"/>
      <point x="538.519" y="432.251" type="curve"/>
      <point x="577.395" y="321.415" type="line"/>
      <point x="598.649" y="260.423" type="line"/>
      <point x="600.807" y="254.005" type="line"/>
      <point x="615.049" y="269.869" type="line"/>
      <point x="646.18" y="303.674" type="line"/>
      <point x="670.177" y="329.81" type="line" smooth="yes"/>
      <point x="671.102" y="330.816"/>
      <point x="718.746" y="379.225"/>
      <point x="727.433" y="412.168" type="curve" smooth="yes"/>
      <point x="730.275" y="422.941"/>
      <point x="728.938" y="432.014"/>
      <point x="722.855" y="439.104" type="curve" smooth="yes"/>
      <point x="720.195" y="442.195"/>
      <point x="716.828" y="444.496"/>
      <point x="712.32" y="446.594" type="curve" smooth="yes"/>
      <point x="702.464" y="451.183"/>
      <point x="690.462" y="452.881"/>
      <point x="684.681" y="453.642" type="curve" smooth="yes"/>
      <point x="664.108" y="456.345" type="line"/>
      <point x="681.036" y="520.515" type="line"/>
      <point x="972.307" y="520.515" type="line"/>
      <point x="965.881" y="496.162" type="line" smooth="yes"/>
      <point x="965.86" y="496.079"/>
      <point x="964.648" y="489.355"/>
      <point x="963.704" y="485.769" type="curve" smooth="yes"/>
      <point x="961.989" y="479.264"/>
      <point x="958.622" y="471.09"/>
      <point x="951.909" y="464.242" type="curve" smooth="yes"/>
      <point x="938.539" y="450.602"/>
      <point x="916.468" y="447.133"/>
      <point x="907.473" y="444.013" type="curve" smooth="yes"/>
      <point x="885.745" y="436.48"/>
      <point x="868.273" y="429.844"/>
      <point x="856.016" y="419.613" type="curve" smooth="yes"/>
      <point x="837.277" y="403.969"/>
      <point x="818.328" y="378.931"/>
      <point x="797.314" y="354.962" type="curve" smooth="yes"/>
      <point x="690.503" y="233.123" type="line"/>
      <point x="647.918" y="184.685" type="line"/>
      <point x="638.411" y="174.455" type="line"/>
      <point x="638.616" y="173.887" type="line" smooth="yes"/>
      <point x="639.565" y="171.365"/>
      <point x="641.271" y="168.538"/>
      <point x="642.058" y="167.272" type="curve" smooth="yes"/>
      <point x="649.896" y="154.672"/>
      <point x="661.132" y="143.276"/>
      <point x="673.711" y="133.085" type="curve" smooth="yes"/>
      <point x="707.14" y="106.011"/>
      <point x="741.986" y="100.605"/>
      <point x="761.194" y="100.605" type="curve" smooth="yes"/>
      <point x="787.444" y="100.605"/>
      <point x="812.441" y="109.725"/>
      <point x="834.393" y="129.317" type="curve" smooth="yes"/>
      <point x="845.719" y="139.424"/>
      <point x="849.611" y="143.083"/>
      <point x="852.502" y="147.017" type="curve" smooth="yes"/>
      <point x="870.395" y="171.415" type="line"/>
      <point x="931.273" y="128.023" type="line"/>
      <point x="914.368" y="107.423" type="line" smooth="yes"/>
      <point x="856.303" y="36.6729"/>
      <point x="752.354" y="-39.3418"/>
      <point x="658.313" y="-39.3418" type="curve" smooth="yes"/>
      <point x="630.755" y="-39.3418"/>
      <point x="604.29" y="-32.5498"/>
    </contour>
  </outline>
</glyph>
<glyph name="parenright" format="2">
  <advance width="385"/>
  <unicode hex="0029"/>
  <outline>
    <contour>
      <point x="234.429" y="718.893" type="curve" smooth="yes"/>
      <point x="239.341" y="722.988"/>
      <point x="246.049" y="727.216"/>
      <point x="253.657" y="728.861" type="curve" smooth="yes"/>
      <point x="255.077" y="729.162"/>
      <point x="257.84" y="729.659"/>
      <point x="259.896" y="729.659" type="curve" smooth="yes"/>
      <point x="260.36" y="729.659"/>
      <point x="261.732" y="729.512"/>
      <point x="262.153" y="729.4" type="curve" smooth="yes"/>
      <point x="269.106" y="727.559"/>
      <point x="270.539" y="729.092"/>
      <point x="279.057" y="723.723" type="curve" smooth="yes"/>
      <point x="282.038" y="721.735" type="line" smooth="yes"/>
      <point x="284.983" y="719.691"/>
      <point x="284.44" y="720.02"/>
      <point x="284.962" y="719.719" type="curve" smooth="yes"/>
      <point x="301.182" y="710.367"/>
      <point x="315.557" y="698.89"/>
      <point x="328.437" y="686.602" type="curve" smooth="yes"/>
      <point x="379.964" y="637.437"/>
      <point x="407.625" y="571.009"/>
      <point x="425.123" y="502.595" type="curve" smooth="yes"/>
      <point x="445.791" y="421.778"/>
      <point x="438.927" y="333.695"/>
      <point x="417.813" y="245.531" type="curve" smooth="yes"/>
      <point x="416.539" y="240.204"/>
      <point x="415.201" y="234.882"/>
      <point x="413.797" y="229.558" type="curve" smooth="yes"/>
      <point x="368.704" y="58.6338"/>
      <point x="258.905" y="-101.771"/>
      <point x="97.4824" y="-202.686" type="curve" smooth="yes"/>
      <point x="69.0664" y="-220.45"/>
      <point x="38.1436" y="-238.219"/>
      <point x="5.88965" y="-251.628" type="curve" smooth="yes"/>
      <point x="-16.333" y="-260.864" type="line"/>
      <point x="-39.1406" y="-194.438" type="line"/>
      <point x="-15.1611" y="-181.755" type="line" smooth="yes"/>
      <point x="31.8496" y="-156.891"/>
      <point x="116.979" y="-97.873"/>
      <point x="181.964" y="57.3154" type="curve" smooth="yes"/>
      <point x="198.5" y="96.8066"/>
      <point x="211.02" y="137.077"/>
      <point x="225.027" y="178.998" type="curve" smooth="yes"/>
      <point x="235.531" y="210.437"/>
      <point x="247.205" y="240.975"/>
      <point x="254.844" y="269.931" type="curve" smooth="yes"/>
      <point x="255.602" y="272.8"/>
      <point x="256.25" y="275.374"/>
      <point x="256.918" y="278.164" type="curve" smooth="yes"/>
      <point x="272.238" y="342.176"/>
      <point x="280.096" y="407.647"/>
      <point x="280.121" y="469.697" type="curve" smooth="yes"/>
      <point x="280.136" y="505.857"/>
      <point x="279.804" y="542.74"/>
      <point x="269.957" y="570.329" type="curve" smooth="yes"/>
      <point x="262.981" y="589.873"/>
      <point x="249.379" y="605.808"/>
      <point x="233.641" y="623.854" type="curve" smooth="yes"/>
      <point x="222.632" y="636.48"/>
      <point x="212.844" y="649.426"/>
      <point x="202.684" y="657.568" type="curve" smooth="yes"/>
      <point x="186.338" y="670.666" type="line"/>
      <point x="204.239" y="690.794" type="line" smooth="yes"/>
      <point x="213.437" y="701.134"/>
      <point x="223.068" y="708.687"/>
      <point x="229.088" y="714.14" type="curve" smooth="yes"/>
      <point x="230.678" y="715.575"/>
      <point x="233.331" y="717.983"/>
    </contour>
  </outline>
</glyph>
<glyph name="asterisk" format="2">
  <advance width="655"/>
  <unicode hex="002A"/>
  <outline>
    <contour>
      <point x="435.638" y="667.21" type="curve" smooth="yes"/>
      <point x="447.203" y="711.053"/>
      <point x="466.614" y="730.723"/>
      <point x="478.886" y="740.278" type="curve" smooth="yes"/>
      <point x="497.561" y="754.824"/>
      <point x="518.976" y="761.474"/>
      <point x="538.045" y="761.474" type="curve" smooth="yes"/>
      <point x="577.589" y="761.474"/>
      <point x="590.848" y="735.301"/>
      <point x="591.904" y="715.806" type="curve" smooth="yes"/>
      <point x="592.444" y="705.838"/>
      <point x="590.671" y="696.406"/>
      <point x="588.516" y="688.235" type="curve" smooth="yes"/>
      <point x="586.57" y="680.857"/>
      <point x="584.906" y="676.292"/>
      <point x="582.561" y="668.713" type="curve" smooth="yes"/>
      <point x="582.423" y="668.268"/>
      <point x="582.056" y="666.931"/>
      <point x="581.938" y="666.485" type="curve" smooth="yes"/>
      <point x="581.318" y="664.137"/>
      <point x="579.978" y="658.263"/>
      <point x="579.048" y="654.738" type="curve" smooth="yes"/>
      <point x="577.158" y="647.578"/>
      <point x="575.394" y="643.229"/>
      <point x="574.152" y="640.414" type="curve" smooth="yes"/>
      <point x="564.73" y="619.024"/>
      <point x="553.678" y="600.675"/>
      <point x="543.37" y="583.464" type="curve"/>
      <point x="558.678" y="597.621"/>
      <point x="574.526" y="610.293"/>
      <point x="589.637" y="622.249" type="curve" smooth="yes"/>
      <point x="606.381" y="635.496"/>
      <point x="628.029" y="651.716"/>
      <point x="654.736" y="658.118" type="curve" smooth="yes"/>
      <point x="662.434" y="659.963"/>
      <point x="671.615" y="661.678"/>
      <point x="681.194" y="661.678" type="curve" smooth="yes"/>
      <point x="681.508" y="661.678"/>
      <point x="682.441" y="661.668"/>
      <point x="682.754" y="661.662" type="curve" smooth="yes"/>
      <point x="689.689" y="661.523"/>
      <point x="693.313" y="661.336"/>
      <point x="699.641" y="659.711" type="curve" smooth="yes"/>
      <point x="700.308" y="659.54"/>
      <point x="702.758" y="658.816"/>
      <point x="703.92" y="658.401" type="curve" smooth="yes"/>
      <point x="704.571" y="658.167"/>
      <point x="706.895" y="657.238"/>
      <point x="708.141" y="656.632" type="curve" smooth="yes"/>
      <point x="708.988" y="656.219"/>
      <point x="711.039" y="655.091"/>
      <point x="712.208" y="654.333" type="curve" smooth="yes"/>
      <point x="731.829" y="641.563"/>
      <point x="739.34" y="613.907"/>
      <point x="732.229" y="586.955" type="curve" smooth="yes"/>
      <point x="729.505" y="576.64"/>
      <point x="727.202" y="570.729"/>
      <point x="720.958" y="561.168" type="curve" smooth="yes"/>
      <point x="714.497" y="551.29"/>
      <point x="706.874" y="544.03"/>
      <point x="699.533" y="538.767" type="curve" smooth="yes"/>
      <point x="686.796" y="529.628"/>
      <point x="658.548" y="510.748"/>
      <point x="630.417" y="501.81" type="curve" smooth="yes"/>
      <point x="605.909" y="494.022"/>
      <point x="588.132" y="493.152"/>
      <point x="567.604" y="490.827" type="curve"/>
      <point x="583.058" y="487.554"/>
      <point x="599.485" y="484.783"/>
      <point x="616.062" y="481.229" type="curve" smooth="yes"/>
      <point x="633.704" y="477.445"/>
      <point x="656.993" y="473.468"/>
      <point x="672.868" y="453.515" type="curve" smooth="yes"/>
      <point x="676.025" y="449.546"/>
      <point x="678.062" y="447.279"/>
      <point x="679.239" y="445.626" type="curve" smooth="yes"/>
      <point x="679.567" y="445.165"/>
      <point x="680.793" y="443.331"/>
      <point x="681.348" y="442.386" type="curve" smooth="yes"/>
      <point x="681.704" y="441.777"/>
      <point x="682.846" y="439.624"/>
      <point x="683.383" y="438.361" type="curve" smooth="yes"/>
      <point x="684.554" y="435.607"/>
      <point x="685.06" y="433.764"/>
      <point x="685.189" y="432.519" type="curve" smooth="yes"/>
      <point x="685.502" y="429.513"/>
      <point x="686.728" y="426.469"/>
      <point x="685.278" y="416.996" type="curve" smooth="yes"/>
      <point x="685.172" y="416.295"/>
      <point x="684.658" y="413.469"/>
      <point x="684.408" y="412.311" type="curve" smooth="yes"/>
      <point x="684.118" y="410.978"/>
      <point x="683.571" y="408.757"/>
      <point x="683.337" y="407.869" type="curve" smooth="yes"/>
      <point x="680.687" y="397.824"/>
      <point x="676.622" y="387.78"/>
      <point x="675.298" y="382.76" type="curve" smooth="yes"/>
      <point x="675.165" y="382.254"/>
      <point x="674.347" y="378.72"/>
      <point x="674.08" y="377.71" type="curve" smooth="yes"/>
      <point x="672.441" y="371.498"/>
      <point x="669.341" y="363.947"/>
      <point x="663.155" y="357.098" type="curve" smooth="yes"/>
      <point x="643.517" y="335.351"/>
      <point x="615.94" y="322.933"/>
      <point x="587.783" y="322.933" type="curve" smooth="yes"/>
      <point x="577.706" y="322.933"/>
      <point x="568.262" y="324.488"/>
      <point x="559.723" y="327.274" type="curve" smooth="yes"/>
      <point x="534.581" y="335.475"/>
      <point x="522.837" y="355.982"/>
      <point x="512.924" y="371.111" type="curve" smooth="yes"/>
      <point x="506.491" y="380.928"/>
      <point x="501.186" y="390.138"/>
      <point x="496.238" y="398.693" type="curve"/>
      <point x="498.146" y="376.614"/>
      <point x="501.229" y="345.829"/>
      <point x="493.731" y="317.406" type="curve" smooth="yes"/>
      <point x="491.155" y="307.643"/>
      <point x="487.337" y="297.472"/>
      <point x="481.711" y="287.236" type="curve" smooth="yes"/>
      <point x="478.119" y="280.704"/>
      <point x="470.569" y="266.886"/>
      <point x="460.206" y="255.672" type="curve" smooth="yes"/>
      <point x="459.458" y="254.863"/>
      <point x="458.078" y="253.396"/>
      <point x="456.299" y="251.701" type="curve" smooth="yes"/>
      <point x="455.444" y="250.888"/>
      <point x="453.863" y="249.415"/>
      <point x="451.814" y="247.749" type="curve" smooth="yes"/>
      <point x="450.811" y="246.934"/>
      <point x="448.895" y="245.409"/>
      <point x="446.48" y="243.829" type="curve" smooth="yes"/>
      <point x="430.101" y="233.107"/>
      <point x="412.695" y="227.854"/>
      <point x="397.251" y="227.854" type="curve" smooth="yes"/>
      <point x="358.59" y="227.854"/>
      <point x="333.127" y="258.51"/>
      <point x="338.747" y="297.696" type="curve" smooth="yes"/>
      <point x="339.295" y="301.515"/>
      <point x="340.082" y="305.27"/>
      <point x="341.051" y="308.942" type="curve" smooth="yes"/>
      <point x="346.704" y="330.368"/>
      <point x="360.534" y="353.699"/>
      <point x="365.987" y="363.503" type="curve" smooth="yes"/>
      <point x="373.322" y="376.688"/>
      <point x="382.082" y="390.729"/>
      <point x="390.537" y="404.915" type="curve"/>
      <point x="358.561" y="375.604" type="line" smooth="yes"/>
      <point x="338.971" y="358.132"/>
      <point x="314.517" y="336.634"/>
      <point x="284.809" y="328.813" type="curve" smooth="yes"/>
      <point x="275.038" y="326.242"/>
      <point x="262.545" y="323.909"/>
      <point x="249.686" y="323.909" type="curve" smooth="yes"/>
      <point x="249.316" y="323.909"/>
      <point x="248.213" y="323.919"/>
      <point x="247.846" y="323.926" type="curve" smooth="yes"/>
      <point x="238.276" y="324.097"/>
      <point x="233.12" y="324.354"/>
      <point x="224.701" y="327.114" type="curve" smooth="yes"/>
      <point x="224.009" y="327.342"/>
      <point x="221.471" y="328.275"/>
      <point x="220.099" y="328.897" type="curve" smooth="yes"/>
      <point x="219.161" y="329.325"/>
      <point x="216.887" y="330.502"/>
      <point x="215.606" y="331.308" type="curve" smooth="yes"/>
      <point x="214.647" y="331.911"/>
      <point x="212.345" y="333.366"/>
      <point x="211.007" y="334.825" type="curve" smooth="yes"/>
      <point x="209.635" y="336.32"/>
      <point x="203.897" y="340.552"/>
      <point x="200.695" y="352.605" type="curve" smooth="yes"/>
      <point x="195.981" y="370.349"/>
      <point x="201.378" y="393.736"/>
      <point x="204.091" y="404.019" type="curve" smooth="yes"/>
      <point x="204.48" y="405.499"/>
      <point x="205.074" y="408.458"/>
      <point x="205.855" y="411.418" type="curve" smooth="yes"/>
      <point x="207.507" y="417.676"/>
      <point x="209.818" y="423.164"/>
      <point x="212.93" y="428.02" type="curve" smooth="yes"/>
      <point x="215.413" y="431.897"/>
      <point x="225.239" y="446.479"/>
      <point x="249.866" y="463.021" type="curve" smooth="yes"/>
      <point x="278.887" y="482.515"/>
      <point x="310.173" y="488.938"/>
      <point x="339.957" y="493.029" type="curve"/>
      <point x="314.193" y="497.633"/>
      <point x="287.068" y="505.702"/>
      <point x="269.737" y="523.828" type="curve" smooth="yes"/>
      <point x="264.624" y="529.177"/>
      <point x="253.546" y="541.83"/>
      <point x="251.155" y="557.018" type="curve" smooth="yes"/>
      <point x="250.456" y="561.462"/>
      <point x="250.691" y="566.699"/>
      <point x="252.395" y="573.154" type="curve" smooth="yes"/>
      <point x="253.736" y="578.24"/>
      <point x="255.959" y="583.324"/>
      <point x="256.825" y="585.87" type="curve" smooth="yes"/>
      <point x="261.55" y="599.77"/>
      <point x="264.458" y="609.382"/>
      <point x="270.67" y="620.376" type="curve" smooth="yes"/>
      <point x="275.033" y="628.098"/>
      <point x="281.811" y="637.942"/>
      <point x="292.768" y="645.416" type="curve" smooth="yes"/>
      <point x="294.339" y="646.488"/>
      <point x="299.431" y="650.316"/>
      <point x="309.84" y="653.848" type="curve" smooth="yes"/>
      <point x="310.883" y="654.202"/>
      <point x="312.979" y="654.873"/>
      <point x="315.075" y="655.445" type="curve" smooth="yes"/>
      <point x="328.717" y="659.16"/>
      <point x="342.699" y="659.664"/>
      <point x="349.326" y="659.664" type="curve" smooth="yes"/>
      <point x="361.861" y="659.664"/>
      <point x="369.216" y="658.261"/>
      <point x="373.723" y="657.019" type="curve" smooth="yes"/>
      <point x="401.624" y="649.326"/>
      <point x="417.843" y="619.381"/>
      <point x="422.11" y="612.142" type="curve" smooth="yes"/>
      <point x="431.3" y="595.509" type="line"/>
      <point x="429.038" y="613.981"/>
      <point x="427.995" y="633.385"/>
      <point x="432.976" y="656.117" type="curve" smooth="yes"/>
      <point x="433.731" y="659.563"/>
      <point x="434.61" y="663.319"/>
    </contour>
  </outline>
</glyph>
<glyph name="plus" format="2">
  <advance width="851"/>
  <unicode hex="002B"/>
  <outline>
    <contour>
      <point x="548.271" y="647.479" type="line"/>
      <point x="680.086" y="647.479" type="line"/>
      <point x="603.092" y="355.63" type="line"/>
      <point x="890.113" y="355.63" type="line"/>
      <point x="855.337" y="223.814" type="line"/>
      <point x="568.316" y="223.814" type="line"/>
      <point x="491.321" y="-68.0352" type="line"/>
      <point x="359.507" y="-68.0352" type="line"/>
      <point x="436.501" y="223.814" type="line"/>
      <point x="159.147" y="223.814" type="line"/>
      <point x="193.923" y="355.63" type="line"/>
      <point x="471.276" y="355.63" type="line"/>
    </contour>
  </outline>
</glyph>
<glyph name="period" format="2">
  <advance width="269"/>
  <unicode hex="002E"/>
  <outline>
    <contour>
      <point x="261.085" y="71.3105" type="curve" smooth="yes"/>
      <point x="260.417" y="67.3213"/>
      <point x="259.525" y="63.1719"/>
      <point x="258.472" y="59.1797" type="curve" smooth="yes"/>
      <point x="248.06" y="19.7119"/>
      <point x="219.163" y="-17.5625"/>
      <point x="179.702" y="-40.3232" type="curve" smooth="yes"/>
      <point x="161.801" y="-50.6494"/>
      <point x="145.342" y="-56.3213"/>
      <point x="130.812" y="-58.2686" type="curve" smooth="yes"/>
      <point x="124.149" y="-59.1611"/>
      <point x="117.417" y="-59.6611"/>
      <point x="110.661" y="-59.6611" type="curve" smooth="yes"/>
      <point x="94.1602" y="-59.6611"/>
      <point x="77.5898" y="-56.8848"/>
      <point x="63.5098" y="-49.4883" type="curve" smooth="yes"/>
      <point x="24.4834" y="-28.9912"/>
      <point x="13.7861" y="14.5342"/>
      <point x="24.9307" y="56.7783" type="curve" smooth="yes"/>
      <point x="34.9209" y="94.6475"/>
      <point x="62.582" y="133.554"/>
      <point x="104.015" y="157.269" type="curve" smooth="yes"/>
      <point x="125.862" y="169.773"/>
      <point x="146.131" y="173.688"/>
      <point x="162.837" y="175.811" type="curve" smooth="yes"/>
      <point x="167.125" y="176.355"/>
      <point x="171.398" y="176.618"/>
      <point x="175.489" y="176.618" type="curve" smooth="yes"/>
      <point x="234.501" y="176.618"/>
      <point x="269.901" y="124.09"/>
    </contour>
  </outline>
</glyph>
<glyph name="zero" format="2">
  <advance width="597"/>
  <unicode hex="0030"/>
  <outline>
    <contour>
      <point x="470.813" y="538.631" type="line"/>
      <point x="457.537" y="567.829" type="line"/>
      <point x="443.146" y="574.968" type="line"/>
      <point x="433.231" y="573.581" type="line"/>
      <point x="371.868" y="476.531" type="line"/>
      <point x="331.063" y="321.859" type="line"/>
      <point x="325.027" y="267.882" type="line"/>
      <point x="311.02" y="128.783" type="line"/>
      <point x="326.312" y="69.3564" type="line"/>
      <point x="347.062" y="64.1582" type="line"/>
      <point x="355.625" y="66.9189" type="line"/>
      <point x="419.957" y="176.104" type="line"/>
      <point x="436.854" y="233.643" type="line"/>
      <point x="454.554" y="300.729" type="line"/>
      <point x="466.095" y="351.148" type="line"/>
      <point x="472.947" y="423.479" type="line"/>
    </contour>
    <contour>
      <point x="491.237" y="282.001" type="curve" smooth="yes"/>
      <point x="477.247" y="282.001"/>
      <point x="468.775" y="292.912"/>
      <point x="472.32" y="306.354" type="curve" smooth="yes"/>
      <point x="475.868" y="319.801"/>
      <point x="490.1" y="330.707"/>
      <point x="504.087" y="330.707" type="curve" smooth="yes"/>
      <point x="518.078" y="330.707"/>
      <point x="526.549" y="319.797"/>
      <point x="523.002" y="306.354" type="curve" smooth="yes"/>
      <point x="519.455" y="292.908"/>
      <point x="505.225" y="282.001"/>
    </contour>
    <contour>
      <point x="461.566" y="651.913" type="curve" smooth="yes"/>
      <point x="469.965" y="652.748"/>
      <point x="478.198" y="653.07"/>
      <point x="486.205" y="653.07" type="curve" smooth="yes"/>
      <point x="599.478" y="653.07"/>
      <point x="649.726" y="562.636"/>
      <point x="658.732" y="495.493" type="curve" smooth="yes"/>
      <point x="666.296" y="439.119"/>
      <point x="662.503" y="376.869"/>
      <point x="646.05" y="314.502" type="curve" smooth="yes"/>
      <point x="628.963" y="249.735"/>
      <point x="598.147" y="184.693"/>
      <point x="551.551" y="126.544" type="curve" smooth="yes"/>
      <point x="530.154" y="99.8447"/>
      <point x="505.291" y="70.6309"/>
      <point x="472.68" y="46.8721" type="curve" smooth="yes"/>
      <point x="432.929" y="18.1621"/>
      <point x="386.18" y="2.68555"/>
      <point x="336.152" y="-2.41797" type="curve" smooth="yes"/>
      <point x="325.441" y="-3.53418"/>
      <point x="303.87" y="-5.79395"/>
      <point x="282.932" y="-5.79395" type="curve" smooth="yes"/>
      <point x="270.429" y="-5.79395"/>
      <point x="257.824" y="-5.00195"/>
      <point x="245.666" y="-2.87207" type="curve" smooth="yes"/>
      <point x="135.664" y="15.9824"/>
      <point x="115.558" y="104.279"/>
      <point x="111.709" y="169.791" type="curve" smooth="yes"/>
      <point x="108.164" y="230.125"/>
      <point x="114.783" y="287.128"/>
      <point x="128.11" y="337.647" type="curve" smooth="yes"/>
      <point x="146.281" y="406.524"/>
      <point x="179.896" y="476.217"/>
      <point x="235.823" y="537.222" type="curve" smooth="yes"/>
      <point x="287.25" y="592.965"/>
      <point x="367.304" y="642.417"/>
    </contour>
  </outline>
</glyph>
<glyph name="one" format="2">
  <advance width="597"/>
  <unicode hex="0031"/>
  <outline>
    <contour>
      <point x="287.474" y="598.433" type="line" smooth="yes"/>
      <point x="319.938" y="598.433"/>
      <point x="414.489" y="606.296"/>
      <point x="460.701" y="622.825" type="curve" smooth="yes"/>
      <point x="475.875" y="628.252"/>
      <point x="493.016" y="640.347"/>
      <point x="517.326" y="646.145" type="curve" smooth="yes"/>
      <point x="522.599" y="647.432"/>
      <point x="530.877" y="649.056"/>
      <point x="543.68" y="649.056" type="curve" smooth="yes"/>
      <point x="558.554" y="649.056"/>
      <point x="569.075" y="647.472"/>
      <point x="579.117" y="647.472" type="curve" smooth="yes"/>
      <point x="603.47" y="647.472" type="line"/>
      <point x="482.395" y="188.536" type="line" smooth="yes"/>
      <point x="479.632" y="178.063"/>
      <point x="476.627" y="167.875"/>
      <point x="474.058" y="158.132" type="curve" smooth="yes"/>
      <point x="468.707" y="137.852"/>
      <point x="465.479" y="119.708"/>
      <point x="467.941" y="104.41" type="curve" smooth="yes"/>
      <point x="469.768" y="93.0723"/>
      <point x="471.072" y="89.3047"/>
      <point x="474.041" y="87.0049" type="curve" smooth="yes"/>
      <point x="479.062" y="83.1123"/>
      <point x="495.128" y="79.6221"/>
      <point x="510.485" y="79.6221" type="curve" smooth="yes"/>
      <point x="534.839" y="79.6221" type="line"/>
      <point x="511.79" y="-7.74023" type="line"/>
      <point x="97.4023" y="-7.74023" type="line"/>
      <point x="119.367" y="75.5176" type="line"/>
      <point x="140.287" y="79.2197" type="line" smooth="yes"/>
      <point x="180.82" y="85.8496"/>
      <point x="197.328" y="86.166"/>
      <point x="213.228" y="102.802" type="curve" smooth="yes"/>
      <point x="215.283" y="104.647" type="line"/>
      <point x="218.228" y="105.471" type="line" smooth="yes"/>
      <point x="274.915" y="121.477"/>
      <point x="279.804" y="141.712"/>
      <point x="282.194" y="150.773" type="curve" smooth="yes"/>
      <point x="286.33" y="166.454"/>
      <point x="289.304" y="183.385"/>
      <point x="293.705" y="200.066" type="curve" smooth="yes"/>
      <point x="362.496" y="460.82" type="line" smooth="yes"/>
      <point x="363.952" y="466.337"/>
      <point x="365.501" y="471.311"/>
      <point x="366.614" y="475.531" type="curve" smooth="yes"/>
      <point x="368.201" y="481.544"/>
      <point x="366.293" y="483.586"/>
      <point x="362.385" y="485.552" type="curve" smooth="yes"/>
      <point x="350.604" y="491.48"/>
      <point x="324.574" y="503.102"/>
      <point x="291.57" y="507.017" type="curve" smooth="yes"/>
      <point x="287.98" y="507.472"/>
      <point x="286.284" y="507.575"/>
      <point x="285.237" y="507.575" type="curve" smooth="yes"/>
      <point x="283.155" y="507.575"/>
      <point x="283.821" y="507.474"/>
      <point x="281.737" y="507.474" type="curve" smooth="yes"/>
      <point x="281.101" y="507.474"/>
      <point x="280.145" y="507.485"/>
      <point x="278.591" y="507.615" type="curve" smooth="yes"/>
      <point x="277.743" y="507.687"/>
      <point x="274.332" y="508.07"/>
      <point x="272.721" y="508.357" type="curve" smooth="yes"/>
      <point x="270.76" y="508.706"/>
      <point x="267.059" y="509.738"/>
      <point x="265.807" y="510.213" type="curve" smooth="yes"/>
      <point x="263.092" y="511.246"/>
      <point x="259.024" y="513.892"/>
      <point x="257.69" y="515.151" type="curve" smooth="yes"/>
      <point x="256.489" y="516.287" type="line"/>
      <point x="256.241" y="518.009" type="line" smooth="yes"/>
      <point x="255.513" y="521.017"/>
      <point x="252.009" y="528.667"/>
      <point x="251.739" y="532.826" type="curve" smooth="yes"/>
      <point x="251.717" y="533.165"/>
      <point x="251.702" y="533.93"/>
      <point x="251.769" y="534.565" type="curve" smooth="yes"/>
      <point x="252.209" y="538.756"/>
      <point x="252.541" y="539.325"/>
      <point x="252.587" y="539.847" type="curve" smooth="yes"/>
      <point x="253.393" y="549.177"/>
      <point x="253.351" y="561.404"/>
      <point x="257.102" y="575.622" type="curve" smooth="yes"/>
      <point x="263.119" y="598.433" type="line"/>
    </contour>
  </outline>
</glyph>
<glyph name="three" format="2">
  <advance width="597"/>
  <unicode hex="0033"/>
  <outline>
    <contour>
      <point x="233.196" y="502.234" type="line" smooth="yes"/>
      <point x="228.628" y="513.339"/>
      <point x="227.952" y="520.896"/>
      <point x="224.849" y="530.92" type="curve" smooth="yes"/>
      <point x="224.144" y="533.201"/>
      <point x="222.308" y="537.695"/>
      <point x="221.903" y="542.62" type="curve" smooth="yes"/>
      <point x="221.654" y="545.656"/>
      <point x="222.309" y="551.179"/>
      <point x="222.874" y="553.318" type="curve" smooth="yes"/>
      <point x="223.895" y="557.193"/>
      <point x="225.089" y="559.73"/>
      <point x="226.075" y="561.113" type="curve" smooth="yes"/>
      <point x="230.854" y="567.806"/>
      <point x="233.914" y="571.981"/>
      <point x="236.335" y="574.215" type="curve" smooth="yes"/>
      <point x="247.027" y="584.077"/>
      <point x="257.532" y="588.332"/>
      <point x="264.571" y="592.718" type="curve" smooth="yes"/>
      <point x="294.172" y="611.162"/>
      <point x="330.502" y="626.38"/>
      <point x="370.124" y="637.466" type="curve" smooth="yes"/>
      <point x="414.588" y="649.906"/>
      <point x="464.252" y="657.603"/>
      <point x="512.215" y="657.603" type="curve" smooth="yes"/>
      <point x="552.515" y="657.603"/>
      <point x="585.858" y="651.69"/>
      <point x="612.633" y="636.391" type="curve" smooth="yes"/>
      <point x="655.894" y="611.666"/>
      <point x="670.225" y="565.556"/>
      <point x="657.973" y="519.116" type="curve" smooth="yes"/>
      <point x="648.588" y="483.541"/>
      <point x="623.739" y="447.521"/>
      <point x="586.153" y="420.419" type="curve" smooth="yes"/>
      <point x="569.715" y="408.564"/>
      <point x="552.868" y="399.58"/>
      <point x="535.814" y="391.563" type="curve"/>
      <point x="545.85" y="387.624"/>
      <point x="555.643" y="382.459"/>
      <point x="564.619" y="375.405" type="curve" smooth="yes"/>
      <point x="613.456" y="337.032"/>
      <point x="625.013" y="273.074"/>
      <point x="608.395" y="210.083" type="curve" smooth="yes"/>
      <point x="596.601" y="165.38"/>
      <point x="570.541" y="120.31"/>
      <point x="531.841" y="83.4131" type="curve" smooth="yes"/>
      <point x="477.7" y="31.7949"/>
      <point x="402.091" y="1.60352"/>
      <point x="329.735" y="-7.98438" type="curve" smooth="yes"/>
      <point x="307.144" y="-10.9297"/>
      <point x="284.795" y="-12.1348"/>
      <point x="262.869" y="-12.1348" type="curve" smooth="yes"/>
      <point x="211.396" y="-12.1348"/>
      <point x="162.034" y="-5.28125"/>
      <point x="122.57" y="5.59961" type="curve" smooth="yes"/>
      <point x="109.633" y="9.31641"/>
      <point x="97.7344" y="14.7539"/>
      <point x="86.3145" y="20.2725" type="curve" smooth="yes"/>
      <point x="82.4639" y="22.1328"/>
      <point x="79.9961" y="23.0312"/>
      <point x="78.543" y="23.8848" type="curve" smooth="yes"/>
      <point x="74.165" y="26.459"/>
      <point x="69.4658" y="30.834"/>
      <point x="67.7109" y="37.46" type="curve" smooth="yes"/>
      <point x="67.0713" y="39.8779"/>
      <point x="66.8945" y="47.0557"/>
      <point x="67.9932" y="51.1611" type="curve" smooth="yes"/>
      <point x="68.2451" y="52.1064"/>
      <point x="68.916" y="54.75"/>
      <point x="69.7715" y="57.1191" type="curve" smooth="yes"/>
      <point x="70.4238" y="58.9219"/>
      <point x="71.2793" y="60.832"/>
      <point x="72.833" y="63.0332" type="curve" smooth="yes"/>
      <point x="73.9141" y="64.5645"/>
      <point x="75.7432" y="66.7197"/>
      <point x="78.2812" y="70.6699" type="curve" smooth="yes"/>
      <point x="84.9746" y="81.0898"/>
      <point x="91.4814" y="91.3701"/>
      <point x="97.4355" y="101.474" type="curve" smooth="yes"/>
      <point x="108.961" y="121.033" type="line"/>
      <point x="128.52" y="118.028" type="line" smooth="yes"/>
      <point x="147.779" y="115.068"/>
      <point x="159.279" y="106.442"/>
      <point x="173.904" y="102.93" type="curve" smooth="yes"/>
      <point x="198.04" y="97.3066"/>
      <point x="224.157" y="94.0088"/>
      <point x="249.502" y="94.0088" type="curve" smooth="yes"/>
      <point x="281.438" y="94.0088"/>
      <point x="311.281" y="98.96"/>
      <point x="338.256" y="111.434" type="curve" smooth="yes"/>
      <point x="356.361" y="119.806"/>
      <point x="373.606" y="134.354"/>
      <point x="387.201" y="149.985" type="curve" smooth="yes"/>
      <point x="400.318" y="165.069"/>
      <point x="409.865" y="182.406"/>
      <point x="414.333" y="199.341" type="curve" smooth="yes"/>
      <point x="424.001" y="235.981"/>
      <point x="410.389" y="270.66"/>
      <point x="364.511" y="284.849" type="curve" smooth="yes"/>
      <point x="356.285" y="287.393"/>
      <point x="348.873" y="288.267"/>
      <point x="341.837" y="288.267" type="curve" smooth="yes"/>
      <point x="323.371" y="288.267"/>
      <point x="315.766" y="284.522"/>
      <point x="272.859" y="276.641" type="curve" smooth="yes"/>
      <point x="247.235" y="271.934" type="line"/>
      <point x="224.512" y="344.282" type="line"/>
      <point x="251.08" y="354.018" type="line" smooth="yes"/>
      <point x="272.302" y="361.574"/>
      <point x="294.965" y="372.482"/>
      <point x="319.043" y="383.191" type="curve" smooth="yes"/>
      <point x="368.889" y="405.356"/>
      <point x="412.897" y="427.436"/>
      <point x="437.789" y="456.667" type="curve" smooth="yes"/>
      <point x="444.404" y="464.434"/>
      <point x="447.99" y="472.048"/>
      <point x="449.731" y="478.646" type="curve" smooth="yes"/>
      <point x="456.813" y="505.491"/>
      <point x="438.66" y="530.982"/>
      <point x="397.236" y="533.973" type="curve" smooth="yes"/>
      <point x="394.933" y="534.145"/>
      <point x="392.574" y="534.249"/>
      <point x="390.339" y="534.249" type="curve" smooth="yes"/>
      <point x="347.779" y="534.249"/>
      <point x="308.634" y="504.354"/>
      <point x="257.45" y="492.438" type="curve" smooth="yes"/>
      <point x="239.233" y="487.56" type="line"/>
    </contour>
  </outline>
</glyph>
<glyph name="four" format="2">
  <advance width="632"/>
  <unicode hex="0034"/>
  <outline>
    <contour>
      <point x="68.5859" y="142.834" type="line"/>
      <point x="85.335" y="206.289" type="line"/>
      <point x="93.1816" y="232.566" type="line"/>
      <point x="127.229" y="268.743" type="line"/>
      <point x="491.879" y="605.203" type="line"/>
      <point x="536.185" y="649.729" type="line"/>
      <point x="548.451" y="650.705" type="line"/>
      <point x="569.377" y="652.274" type="line"/>
      <point x="647.654" y="652.318" type="line"/>
      <point x="542.768" y="254.745" type="line" smooth="yes"/>
      <point x="542.276" y="252.882"/>
      <point x="541.649" y="251.007"/>
      <point x="540.929" y="248.967" type="curve"/>
      <point x="570.771" y="253.82"/>
      <point x="580.611" y="260.778"/>
      <point x="583.198" y="265.764" type="curve" smooth="yes"/>
      <point x="583.378" y="266.11"/>
      <point x="583.527" y="266.455"/>
      <point x="583.651" y="266.81" type="curve" smooth="yes"/>
      <point x="591.238" y="288.333" type="line"/>
      <point x="682.762" y="288.333" type="line"/>
      <point x="627.263" y="142.834" type="line"/>
      <point x="512.504" y="142.834" type="line"/>
      <point x="510.255" y="135.805"/>
      <point x="508.072" y="129.057"/>
      <point x="506.393" y="122.691" type="curve" smooth="yes"/>
      <point x="504.023" y="113.709"/>
      <point x="501.52" y="104.089"/>
      <point x="513.997" y="95.8398" type="curve" smooth="yes"/>
      <point x="530.023" y="85.2441"/>
      <point x="544.544" y="78.4248"/>
      <point x="549.026" y="76.7168" type="curve" smooth="yes"/>
      <point x="549.545" y="76.4971"/>
      <point x="552.915" y="76.2305"/>
      <point x="555.592" y="76.2305" type="curve" smooth="yes"/>
      <point x="562.943" y="76.2305"/>
      <point x="575.86" y="77.5488"/>
      <point x="583.458" y="77.5488" type="curve" smooth="yes"/>
      <point x="607.811" y="77.5488" type="line"/>
      <point x="585.312" y="-7.73047" type="line"/>
      <point x="178.16" y="-7.73047" type="line"/>
      <point x="201.972" y="82.5303" type="line"/>
      <point x="232.129" y="82.5303" type="line" smooth="yes"/>
      <point x="277.639" y="82.5303"/>
      <point x="295.653" y="87.1025"/>
      <point x="301.854" y="90.3838" type="curve" smooth="yes"/>
      <point x="302.912" y="90.9453"/>
      <point x="303.15" y="91.2139"/>
      <point x="303.809" y="91.8926" type="curve" smooth="yes"/>
      <point x="305.701" y="93.8457"/>
      <point x="307.926" y="97.4316"/>
      <point x="310.582" y="103.285" type="curve" smooth="yes"/>
      <point x="313.063" y="108.751"/>
      <point x="315.113" y="114.697"/>
      <point x="316.739" y="120.856" type="curve" smooth="yes"/>
      <point x="318.559" y="127.755"/>
      <point x="319.964" y="135.128"/>
      <point x="321.509" y="142.834" type="curve"/>
    </contour>
    <contour>
      <point x="238.243" y="252.422" type="line"/>
      <point x="350.476" y="252.422" type="line"/>
      <point x="381.52" y="377.72" type="line"/>
    </contour>
  </outline>
</glyph>
<glyph name="seven" format="2">
  <advance width="597"/>
  <unicode hex="0037"/>
  <outline>
    <contour>
      <point x="180.241" y="444.639" type="line" smooth="yes"/>
      <point x="187.323" y="464.915"/>
      <point x="196.456" y="477.724"/>
      <point x="206.134" y="496.644" type="curve" smooth="yes"/>
      <point x="252.308" y="585.857" type="line" smooth="yes"/>
      <point x="257.791" y="596.18"/>
      <point x="263.277" y="607.078"/>
      <point x="269.041" y="618.194" type="curve" smooth="yes"/>
      <point x="269.671" y="619.412"/>
      <point x="271.256" y="623.99"/>
      <point x="274.391" y="628.585" type="curve" smooth="yes"/>
      <point x="278.878" y="635.163"/>
      <point x="282.412" y="639.307"/>
      <point x="289.211" y="643.286" type="curve" smooth="yes"/>
      <point x="289.403" y="643.399"/>
      <point x="289.707" y="643.577"/>
      <point x="290.18" y="643.83" type="curve" smooth="yes"/>
      <point x="290.353" y="643.922"/>
      <point x="290.643" y="644.077"/>
      <point x="291.047" y="644.274" type="curve" smooth="yes"/>
      <point x="291.204" y="644.353"/>
      <point x="291.46" y="644.47"/>
      <point x="291.769" y="644.608" type="curve" smooth="yes"/>
      <point x="296.443" y="646.718"/>
      <point x="298.064" y="648.245"/>
      <point x="307.618" y="650.519" type="curve" smooth="yes"/>
      <point x="309.091" y="650.876"/>
      <point x="311.55" y="651.387"/>
      <point x="312.529" y="651.57" type="curve" smooth="yes"/>
      <point x="318.357" y="652.645"/>
      <point x="324.814" y="653.416"/>
      <point x="331.52" y="653.416" type="curve" smooth="yes"/>
      <point x="331.951" y="653.416"/>
      <point x="333.24" y="653.403"/>
      <point x="333.668" y="653.394" type="curve" smooth="yes"/>
      <point x="340.612" y="653.234"/>
      <point x="344.281" y="653.24"/>
      <point x="350.716" y="651.924" type="curve" smooth="yes"/>
      <point x="354.707" y="650.946"/>
      <point x="357.05" y="650.023"/>
      <point x="358.233" y="649.095" type="curve" smooth="yes"/>
      <point x="364.009" y="644.997"/>
      <point x="369.712" y="640.978"/>
      <point x="371.857" y="638.391" type="curve" smooth="yes"/>
      <point x="372.084" y="638.121"/>
      <point x="372.706" y="637.267"/>
      <point x="372.998" y="636.83" type="curve"/>
      <point x="380.893" y="633.937"/>
      <point x="393.228" y="633.621"/>
      <point x="398.705" y="633.516" type="curve" smooth="yes"/>
      <point x="433.002" y="632.852"/>
      <point x="467.517" y="632.633"/>
      <point x="502.194" y="632.633" type="curve" smooth="yes"/>
      <point x="571.549" y="632.633"/>
      <point x="640.869" y="633.521"/>
      <point x="700.238" y="633.521" type="curve" smooth="yes"/>
      <point x="720.265" y="633.521" type="line"/>
      <point x="719.243" y="614.983" type="line" smooth="yes"/>
      <point x="718.718" y="605.511"/>
      <point x="717.178" y="596.236"/>
      <point x="714.798" y="587.228" type="curve" smooth="yes"/>
      <point x="699.906" y="530.777"/>
      <point x="649.199" y="480.698"/>
      <point x="620.264" y="438.664" type="curve" smooth="yes"/>
      <point x="558.16" y="349.079"/>
      <point x="498.785" y="254.737"/>
      <point x="451.605" y="160.66" type="curve" smooth="yes"/>
      <point x="433.114" y="123.791"/>
      <point x="417.205" y="86.3135"/>
      <point x="402.543" y="48.6162" type="curve" smooth="yes"/>
      <point x="398.946" y="39.3662"/>
      <point x="395.359" y="30.1504"/>
      <point x="393.282" y="22.2793" type="curve" smooth="yes"/>
      <point x="393.247" y="22.1445" type="line" smooth="yes"/>
      <point x="392.904" y="20.8457"/>
      <point x="392.972" y="19.5635"/>
      <point x="391.943" y="15.665" type="curve" smooth="yes"/>
      <point x="388.73" y="3.48828"/>
      <point x="380.256" y="-3.11914"/>
      <point x="378.456" y="-4.56543" type="curve" smooth="yes"/>
      <point x="369.375" y="-11.8594"/>
      <point x="359.45" y="-14.6211"/>
      <point x="348.503" y="-14.6211" type="curve" smooth="yes"/>
      <point x="345.211" y="-14.6211"/>
      <point x="346.063" y="-14.5127"/>
      <point x="344.417" y="-14.5127" type="curve" smooth="yes"/>
      <point x="161.188" y="-14.5127" type="line"/>
      <point x="172.257" y="11.5469" type="line" smooth="yes"/>
      <point x="189.431" y="51.9736"/>
      <point x="213.339" y="91.2432"/>
      <point x="236.569" y="128.409" type="curve" smooth="yes"/>
      <point x="291.433" y="216.186"/>
      <point x="358.333" y="302.726"/>
      <point x="434.644" y="383.137" type="curve" smooth="yes"/>
      <point x="461.623" y="411.566"/>
      <point x="488.872" y="440.241"/>
      <point x="517.84" y="468.546" type="curve" smooth="yes"/>
      <point x="522.322" y="472.925"/>
      <point x="527.955" y="478.104"/>
      <point x="533.964" y="483.627" type="curve"/>
      <point x="355.08" y="483.627" type="line" smooth="yes"/>
      <point x="350.386" y="483.627"/>
      <point x="344.032" y="483.998"/>
      <point x="340.854" y="483.998" type="curve" smooth="yes"/>
      <point x="338.389" y="483.998"/>
      <point x="338.048" y="483.98"/>
      <point x="337.749" y="483.906" type="curve" smooth="yes"/>
      <point x="313.556" y="477.733"/>
      <point x="289.355" y="456.484"/>
      <point x="278.724" y="437.352" type="curve" smooth="yes"/>
      <point x="268.961" y="419.786" type="line"/>
      <point x="171.559" y="419.786" type="line"/>
    </contour>
  </outline>
</glyph>
<glyph name="nine" format="2">
  <advance width="597"/>
  <unicode hex="0039"/>
  <outline>
    <contour>
      <point x="451.289" y="548.942" type="line"/>
      <point x="437.511" y="558.192" type="line"/>
      <point x="413.833" y="557.239" type="line"/>
      <point x="391.776" y="541.843" type="line"/>
      <point x="364.498" y="473.138" type="line"/>
      <point x="342.915" y="427.399" type="line"/>
      <point x="337.012" y="377.255" type="line"/>
      <point x="339.06" y="336.976" type="line"/>
      <point x="352.19" y="306.215" type="line"/>
      <point x="374.682" y="290.645" type="line"/>
      <point x="401.44" y="290.645" type="line"/>
      <point x="411.562" y="295.325" type="line"/>
      <point x="435.309" y="348.285" type="line"/>
      <point x="463.339" y="454.537" type="line"/>
      <point x="461.9" y="505.215" type="line"/>
    </contour>
    <contour>
      <point x="223.432" y="93.2412" type="curve" smooth="yes"/>
      <point x="276.887" y="115.601"/>
      <point x="329.666" y="152.775"/>
      <point x="359.687" y="192.111" type="curve"/>
      <point x="343.272" y="189.483"/>
      <point x="326.69" y="188.144"/>
      <point x="310.407" y="188.144" type="curve" smooth="yes"/>
      <point x="286.072" y="188.144"/>
      <point x="262.15" y="190.904"/>
      <point x="240.932" y="197.679" type="curve" smooth="yes"/>
      <point x="144.108" y="229.103"/>
      <point x="122.904" y="320.975"/>
      <point x="145.682" y="407.312" type="curve" smooth="yes"/>
      <point x="151.733" y="430.249"/>
      <point x="160.919" y="453.099"/>
      <point x="173.128" y="474.854" type="curve" smooth="yes"/>
      <point x="192.594" y="509.541"/>
      <point x="220.029" y="540.901"/>
      <point x="250.907" y="567.095" type="curve" smooth="yes"/>
      <point x="296.492" y="605.252"/>
      <point x="368.492" y="642.68"/>
      <point x="441.371" y="642.68" type="curve" smooth="yes"/>
      <point x="442.828" y="642.68"/>
      <point x="447.181" y="642.599"/>
      <point x="448.622" y="642.543" type="curve" smooth="yes"/>
      <point x="478.8" y="641.416"/>
      <point x="509.723" y="636.979"/>
      <point x="537.449" y="627.958" type="curve" smooth="yes"/>
      <point x="662.349" y="586.804"/>
      <point x="676.512" y="468.474"/>
      <point x="648.006" y="360.419" type="curve" smooth="yes"/>
      <point x="639.967" y="329.95"/>
      <point x="628.492" y="299.94"/>
      <point x="614.459" y="271.891" type="curve" smooth="yes"/>
      <point x="560.39" y="163.812"/>
      <point x="450.259" y="68.7119"/>
      <point x="311.908" y="21.4736" type="curve" smooth="yes"/>
      <point x="242.127" y="-2.35254"/>
      <point x="169.553" y="-13.5752"/>
      <point x="103.723" y="-13.5752" type="curve" smooth="yes"/>
      <point x="78.8525" y="-13.5752" type="line"/>
      <point x="85.5664" y="9.89746" type="line" smooth="yes"/>
      <point x="89.2051" y="22.6123"/>
      <point x="94.7119" y="32.0986"/>
      <point x="98.4629" y="41.6016" type="curve" smooth="yes"/>
      <point x="101.373" y="48.9756"/>
      <point x="101.948" y="50.749"/>
      <point x="103.679" y="53.6875" type="curve" smooth="yes"/>
      <point x="105.662" y="57.0537"/>
      <point x="110.382" y="62.4346"/>
      <point x="112.438" y="64.1934" type="curve" smooth="yes"/>
      <point x="130.142" y="79.3467"/>
      <point x="150.721" y="74.7217"/>
      <point x="160.4" y="75.9404" type="curve" smooth="yes"/>
      <point x="181.529" y="78.6035"/>
      <point x="202.756" y="84.5928"/>
    </contour>
  </outline>
</glyph>
<glyph name="semicolon" format="2">
  <advance width="423"/>
  <unicode hex="003B"/>
  <outline>
    <contour>
      <point x="382.344" y="650.889" type="curve" smooth="yes"/>
      <point x="432.304" y="637.602"/>
      <point x="448.602" y="589.294"/>
      <point x="436.288" y="542.615" type="curve" smooth="yes"/>
      <point x="426.9" y="507.036"/>
      <point x="400.102" y="469.96"/>
      <point x="358.804" y="448.662" type="curve" smooth="yes"/>
      <point x="343.595" y="440.818"/>
      <point x="327.557" y="435.551"/>
      <point x="311.503" y="433.639" type="curve" smooth="yes"/>
      <point x="306.864" y="433.087"/>
      <point x="302.337" y="432.812"/>
      <point x="297.928" y="432.812" type="curve" smooth="yes"/>
      <point x="233.744" y="432.812"/>
      <point x="202.447" y="488.713"/>
      <point x="217.597" y="546.135" type="curve" smooth="yes"/>
      <point x="223.258" y="567.595"/>
      <point x="235.682" y="589.981"/>
      <point x="255.13" y="609.305" type="curve" smooth="yes"/>
      <point x="265.789" y="619.898"/>
      <point x="278.416" y="629.643"/>
      <point x="292.106" y="637.106" type="curve" smooth="yes"/>
      <point x="308.897" y="646.261"/>
      <point x="325.86" y="651.169"/>
      <point x="341.959" y="653.275" type="curve" smooth="yes"/>
      <point x="346.753" y="653.901"/>
      <point x="351.487" y="654.175"/>
      <point x="356.087" y="654.175" type="curve" smooth="yes"/>
      <point x="365.274" y="654.175"/>
      <point x="374.147" y="653.067"/>
    </contour>
    <contour>
      <point x="108.678" y="119.173" type="line" smooth="yes"/>
      <point x="114.633" y="129.977"/>
      <point x="120.581" y="144.92"/>
      <point x="134.498" y="159.353" type="curve" smooth="yes"/>
      <point x="153.728" y="179.3"/>
      <point x="174.927" y="188.292"/>
      <point x="206.937" y="188.292" type="curve" smooth="yes"/>
      <point x="212.891" y="188.292"/>
      <point x="218.393" y="188.104"/>
      <point x="223.457" y="188.104" type="curve" smooth="yes"/>
      <point x="229.293" y="188.104"/>
      <point x="236.163" y="188.405"/>
      <point x="243.587" y="188.405" type="curve" smooth="yes"/>
      <point x="252.881" y="188.405"/>
      <point x="258.622" y="187.668"/>
      <point x="261.888" y="187.372" type="curve" smooth="yes"/>
      <point x="271.905" y="186.468"/>
      <point x="284.104" y="187.079"/>
      <point x="294.543" y="181.126" type="curve" smooth="yes"/>
      <point x="303.537" y="175.997"/>
      <point x="305.287" y="169.049"/>
      <point x="305.615" y="167.417" type="curve" smooth="yes"/>
      <point x="306.241" y="164.291"/>
      <point x="307.843" y="160.96"/>
      <point x="306.263" y="150.756" type="curve" smooth="yes"/>
      <point x="306.007" y="149.111"/>
      <point x="305.573" y="146.619"/>
      <point x="304.483" y="142.484" type="curve" smooth="yes"/>
      <point x="303.174" y="137.522"/>
      <point x="303.242" y="138.135"/>
      <point x="302.605" y="135.725" type="curve" smooth="yes"/>
      <point x="293.904" y="102.753"/>
      <point x="268.735" y="77.1465"/>
      <point x="250.49" y="53.2988" type="curve" smooth="yes"/>
      <point x="231.506" y="28.4844"/>
      <point x="209.312" y="7.24512"/>
      <point x="191.235" y="-12.0957" type="curve" smooth="yes"/>
      <point x="55.6914" y="-158.801" type="line" smooth="yes"/>
      <point x="49.4834" y="-166.036"/>
      <point x="48.377" y="-167.583"/>
      <point x="44.5947" y="-171.466" type="curve" smooth="yes"/>
      <point x="38.8652" y="-177.346"/>
      <point x="33.2285" y="-181.46"/>
      <point x="27.8887" y="-184.08" type="curve" smooth="yes"/>
      <point x="20.709" y="-187.602"/>
      <point x="14.0264" y="-188.433"/>
      <point x="8.60645" y="-188.433" type="curve" smooth="yes"/>
      <point x="7.64355" y="-188.433"/>
      <point x="3.13574" y="-188.208"/>
      <point x="2.41406" y="-188.208" type="curve" smooth="yes"/>
      <point x="-59.9219" y="-188.208" type="line"/>
      <point x="-41.3945" y="-156.444" type="line" smooth="yes"/>
      <point x="-1.41797" y="-87.9023"/>
      <point x="35.0176" y="-16.6699"/>
      <point x="73.4521" y="54.3174" type="curve" smooth="yes"/>
    </contour>
  </outline>
</glyph>
<glyph name="less" format="2">
  <advance width="779"/>
  <unicode hex="003C"/>
  <outline>
    <contour>
      <point x="860.321" y="551.835" type="line"/>
      <point x="848.141" y="515.479" type="line"/>
      <point x="817.733" y="502.444" type="line"/>
      <point x="784.917" y="489.437" type="line"/>
      <point x="344.054" y="315.29" type="line"/>
      <point x="398.385" y="286.526" type="line"/>
      <point x="698.329" y="126.698" type="line"/>
      <point x="720.783" y="114.824" type="line" smooth="yes"/>
      <point x="722.862" y="113.687"/>
      <point x="726.502" y="112.518"/>
      <point x="730.268" y="109.312" type="curve" smooth="yes"/>
      <point x="732.592" y="107.331"/>
      <point x="735.546" y="102.872"/>
      <point x="736.337" y="100.957" type="curve" smooth="yes"/>
      <point x="736.652" y="100.193" type="line"/>
      <point x="736.722" y="99.3223" type="line" smooth="yes"/>
      <point x="736.862" y="97.584"/>
      <point x="738.262" y="90.7939"/>
      <point x="737.961" y="87.4766" type="curve" smooth="yes"/>
      <point x="737.709" y="84.6543"/>
      <point x="737.198" y="81.7412"/>
      <point x="736.189" y="77.918" type="curve" smooth="yes"/>
      <point x="734.587" y="71.8525"/>
      <point x="731.724" y="64.2686"/>
      <point x="731.325" y="62.752" type="curve" smooth="yes"/>
      <point x="704.865" y="-37.5488" type="line"/>
      <point x="674.853" y="-23.5127" type="line" smooth="yes"/>
      <point x="622.185" y="1.12207"/>
      <point x="573.839" y="30.6719"/>
      <point x="525.061" y="56.792" type="curve" smooth="yes"/>
      <point x="252.307" y="202.855" type="line"/>
      <point x="177.112" y="243.352" type="line" smooth="yes"/>
      <point x="167.429" y="247.762"/>
      <point x="154.618" y="250.688"/>
      <point x="146.612" y="261.315" type="curve" smooth="yes"/>
      <point x="145.761" y="262.447"/>
      <point x="143.899" y="265.572"/>
      <point x="143.164" y="267.623" type="curve" smooth="yes"/>
      <point x="140.894" y="273.951"/>
      <point x="141.723" y="280.862"/>
      <point x="143.21" y="286.502" type="curve" smooth="yes"/>
      <point x="143.471" y="287.488"/>
      <point x="144.921" y="292.07"/>
      <point x="145.102" y="292.753" type="curve" smooth="yes"/>
      <point x="153.259" y="323.677" type="line" smooth="yes"/>
      <point x="153.87" y="325.993"/>
      <point x="155.133" y="334.822"/>
      <point x="156.657" y="340.601" type="curve" smooth="yes"/>
      <point x="159.182" y="350.171"/>
      <point x="160.955" y="353.494"/>
      <point x="162.596" y="356.55" type="curve" smooth="yes"/>
      <point x="163.577" y="358.378"/>
      <point x="165.565" y="361.464"/>
      <point x="166.446" y="362.662" type="curve" smooth="yes"/>
      <point x="167.383" y="363.939" type="line"/>
      <point x="168.684" y="364.881" type="line" smooth="yes"/>
      <point x="172.119" y="367.603"/>
      <point x="178.783" y="373.808"/>
      <point x="182.619" y="376.17" type="curve" smooth="yes"/>
      <point x="182.94" y="376.368"/>
      <point x="183.659" y="376.786"/>
      <point x="184.265" y="377.076" type="curve" smooth="yes"/>
      <point x="188.737" y="379.21"/>
      <point x="193.334" y="380.573"/>
      <point x="194.362" y="380.983" type="curve" smooth="yes"/>
      <point x="226.836" y="393.949" type="line"/>
      <point x="789.32" y="617.49" type="line" smooth="yes"/>
      <point x="810.047" y="625.734"/>
      <point x="830.249" y="632.403"/>
      <point x="846.139" y="640.432" type="curve" smooth="yes"/>
      <point x="886.256" y="660.7" type="line"/>
      <point x="872.704" y="598.683" type="line"/>
    </contour>
  </outline>
</glyph>
<glyph name="at" format="2">
  <advance width="1052"/>
  <unicode hex="0040"/>
  <outline>
    <contour>
      <point x="467.722" y="-191.604" type="curve" smooth="yes"/>
      <point x="374.282" y="-191.604"/>
      <point x="291.226" y="-160.396"/>
      <point x="226.46" y="-112.383" type="curve" smooth="yes"/>
      <point x="179.843" y="-77.8252"/>
      <point x="137.426" y="-23.5195"/>
      <point x="112.464" y="49.1426" type="curve" smooth="yes"/>
      <point x="87.376" y="122.166"/>
      <point x="87.2998" y="207.743"/>
      <point x="109.851" y="293.224" type="curve" smooth="yes"/>
      <point x="127.086" y="358.556"/>
      <point x="157.635" y="423.897"/>
      <point x="200.732" y="483.605" type="curve" smooth="yes"/>
      <point x="242.778" y="541.859"/>
      <point x="295.686" y="589.741"/>
      <point x="350.035" y="632.745" type="curve" smooth="yes"/>
      <point x="416.047" y="684.977"/>
      <point x="489.069" y="733.033"/>
      <point x="566.873" y="764.925" type="curve" smooth="yes"/>
      <point x="646.968" y="797.755"/>
      <point x="725.683" y="810.509"/>
      <point x="802.452" y="813.806" type="curve" smooth="yes"/>
      <point x="811.349" y="814.184"/>
      <point x="820.26" y="814.395"/>
      <point x="829.171" y="814.395" type="curve" smooth="yes"/>
      <point x="907.032" y="814.395"/>
      <point x="984.41" y="798.91"/>
      <point x="1040.73" y="753.347" type="curve" smooth="yes"/>
      <point x="1083.84" y="718.466"/>
      <point x="1108.74" y="669.604"/>
      <point x="1124.6" y="617.936" type="curve" smooth="yes"/>
      <point x="1139.83" y="568.355"/>
      <point x="1146.6" y="514.479"/>
      <point x="1141.85" y="457.495" type="curve" smooth="yes"/>
      <point x="1139.15" y="425.167"/>
      <point x="1132.41" y="393.046"/>
      <point x="1124.05" y="361.364" type="curve" smooth="yes"/>
      <point x="1122.72" y="356.335"/>
      <point x="1121.41" y="351.032"/>
      <point x="1119.94" y="345.484" type="curve" smooth="yes"/>
      <point x="1117.04" y="334.464"/>
      <point x="1113.56" y="322.377"/>
      <point x="1107.79" y="309.553" type="curve" smooth="yes"/>
      <point x="1086.58" y="262.425"/>
      <point x="1051.69" y="221.448"/>
      <point x="1020.65" y="185.516" type="curve" smooth="yes"/>
      <point x="996.611" y="157.689"/>
      <point x="970.536" y="127.66"/>
      <point x="938.455" y="101.787" type="curve" smooth="yes"/>
      <point x="884.674" y="58.4131"/>
      <point x="824.188" y="32.0469"/>
      <point x="760.27" y="32.0469" type="curve" smooth="yes"/>
      <point x="749.062" y="32.0469"/>
      <point x="737.919" y="32.873"/>
      <point x="726.866" y="34.5156" type="curve" smooth="yes"/>
      <point x="714.644" y="36.334"/>
      <point x="687.708" y="40.0264"/>
      <point x="669.533" y="52.9092" type="curve" smooth="yes"/>
      <point x="653.936" y="63.9668"/>
      <point x="643.964" y="78.4297"/>
      <point x="636.48" y="93.248" type="curve"/>
      <point x="616.503" y="78.1855"/>
      <point x="595.297" y="67.5488"/>
      <point x="584.412" y="62.1572" type="curve" smooth="yes"/>
      <point x="545.413" y="42.8418"/>
      <point x="502.515" y="31.5059"/>
      <point x="462.283" y="31.5059" type="curve" smooth="yes"/>
      <point x="426.062" y="31.5059"/>
      <point x="391.723" y="40.9326"/>
      <point x="366.23" y="63.1787" type="curve" smooth="yes"/>
      <point x="351.056" y="76.4199"/>
      <point x="334.812" y="96.9307"/>
      <point x="332.477" y="125.334" type="curve" smooth="yes"/>
      <point x="330.032" y="155.071"/>
      <point x="338.409" y="187.135"/>
      <point x="345.436" y="213.771" type="curve" smooth="yes"/>
      <point x="345.745" y="214.941"/>
      <point x="346.051" y="216.099"/>
      <point x="346.358" y="217.266" type="curve" smooth="yes"/>
      <point x="347.408" y="221.24" type="line" smooth="yes"/>
      <point x="359.062" y="265.389"/>
      <point x="375.812" y="310.75"/>
      <point x="403.873" y="354.503" type="curve" smooth="yes"/>
      <point x="422.191" y="383.068"/>
      <point x="444.365" y="408.624"/>
      <point x="465.292" y="432.224" type="curve" smooth="yes"/>
      <point x="492.801" y="463.248"/>
      <point x="524.691" y="494.856"/>
      <point x="561.727" y="519.62" type="curve" smooth="yes"/>
      <point x="602.082" y="546.606"/>
      <point x="660.64" y="572.476"/>
      <point x="717.283" y="572.476" type="curve" smooth="yes"/>
      <point x="756.056" y="572.476"/>
      <point x="788.956" y="559.848"/>
      <point x="810.614" y="533.729" type="curve"/>
      <point x="811.671" y="536.086" type="line"/>
      <point x="820.694" y="555.803" type="line"/>
      <point x="968.877" y="555.803" type="line"/>
      <point x="955.612" y="526.813" type="line" smooth="yes"/>
      <point x="913.157" y="434.061"/>
      <point x="864.612" y="342.771"/>
      <point x="819.23" y="252.381" type="curve" smooth="yes"/>
      <point x="781.229" y="175.832" type="line" smooth="yes"/>
      <point x="776.419" y="166.598"/>
      <point x="770.287" y="157.368"/>
      <point x="767.788" y="151.579" type="curve"/>
      <point x="768.677" y="150.373"/>
      <point x="769.776" y="148.7"/>
      <point x="771.189" y="146.36" type="curve" smooth="yes"/>
      <point x="777.553" y="135.816"/>
      <point x="788.053" y="130.568"/>
      <point x="802.074" y="130.568" type="curve" smooth="yes"/>
      <point x="802.347" y="130.568"/>
      <point x="803.159" y="130.579"/>
      <point x="803.432" y="130.585" type="curve" smooth="yes"/>
      <point x="820.75" y="130.966"/>
      <point x="851.557" y="139.785"/>
      <point x="904.477" y="192.289" type="curve" smooth="yes"/>
      <point x="960.4" y="247.774"/>
      <point x="1003.84" y="317.35"/>
      <point x="1021.83" y="385.52" type="curve" smooth="yes"/>
      <point x="1027.98" y="408.848"/>
      <point x="1031.21" y="432.012"/>
      <point x="1031.04" y="454.535" type="curve" smooth="yes"/>
      <point x="1030.81" y="488.07"/>
      <point x="1025.44" y="520.095"/>
      <point x="1014.64" y="549.343" type="curve" smooth="yes"/>
      <point x="986.797" y="624.652"/>
      <point x="917.062" y="679.861"/>
      <point x="833.721" y="694.486" type="curve" smooth="yes"/>
      <point x="817.915" y="697.26"/>
      <point x="801.71" y="698.287"/>
      <point x="784.819" y="698.287" type="curve" smooth="yes"/>
      <point x="766.339" y="698.287"/>
      <point x="746.935" y="696.974"/>
      <point x="726.656" y="695.598" type="curve" smooth="yes"/>
      <point x="701.505" y="693.891"/>
      <point x="677.128" y="692.732"/>
      <point x="655.077" y="687.828" type="curve" smooth="yes"/>
      <point x="603.579" y="676.374"/>
      <point x="548.999" y="643.289"/>
      <point x="498.304" y="607.701" type="curve" smooth="yes"/>
      <point x="466.032" y="585.047"/>
      <point x="419.184" y="549.069"/>
      <point x="378.307" y="501.574" type="curve" smooth="yes"/>
      <point x="340.003" y="457.07"/>
      <point x="313.798" y="406.343"/>
      <point x="289.741" y="352.206" type="curve" smooth="yes"/>
      <point x="277.337" y="324.295"/>
      <point x="264.645" y="297.49"/>
      <point x="256.882" y="272.343" type="curve" smooth="yes"/>
      <point x="255.222" y="266.961"/>
      <point x="253.693" y="261.582"/>
      <point x="252.269" y="256.18" type="curve" smooth="yes"/>
      <point x="233.788" y="186.13"/>
      <point x="235.366" y="116.912"/>
      <point x="262.78" y="62.0693" type="curve" smooth="yes"/>
      <point x="313.557" y="-39.5078"/>
      <point x="426.35" y="-89.2402"/>
      <point x="551.189" y="-89.2402" type="curve" smooth="yes"/>
      <point x="585.071" y="-89.2402"/>
      <point x="619.941" y="-85.5361"/>
      <point x="654.733" y="-78.3066" type="curve" smooth="yes"/>
      <point x="692.625" y="-70.4336"/>
      <point x="730.387" y="-57.9902"/>
      <point x="768.312" y="-42.0449" type="curve" smooth="yes"/>
      <point x="782.082" y="-36.2588"/>
      <point x="795.368" y="-28.1533"/>
      <point x="813.729" y="-20.5195" type="curve" smooth="yes"/>
      <point x="840.707" y="-9.30371" type="line"/>
      <point x="850.458" y="-103.414" type="line"/>
      <point x="826.588" y="-112.405" type="line" smooth="yes"/>
      <point x="783.902" y="-128.48"/>
      <point x="740.418" y="-147.215"/>
      <point x="693.779" y="-160.558" type="curve" smooth="yes"/>
      <point x="616.043" y="-182.797"/>
      <point x="541.771" y="-191.604"/>
    </contour>
  </outline>
</glyph>
<glyph name="braceleft" format="2">
  <advance width="667"/>
  <unicode hex="007B"/>
  <outline>
    <contour>
      <point x="378.873" y="535.327" type="curve" smooth="yes"/>
      <point x="384.391" y="551.984"/>
      <point x="389.311" y="568.959"/>
      <point x="393.848" y="586.152" type="curve" smooth="yes"/>
      <point x="403.915" y="624.318"/>
      <point x="412.266" y="663.724"/>
      <point x="422.821" y="703.738" type="curve" smooth="yes"/>
      <point x="434.065" y="746.354"/>
      <point x="447.836" y="789.782"/>
      <point x="469.506" y="833.07" type="curve" smooth="yes"/>
      <point x="481.383" y="856.793"/>
      <point x="502.102" y="895.629"/>
      <point x="535.131" y="923.979" type="curve" smooth="yes"/>
      <point x="577.95" y="960.722"/>
      <point x="633.389" y="970.676"/>
      <point x="680.375" y="970.676" type="curve" smooth="yes"/>
      <point x="686.415" y="970.676"/>
      <point x="701.939" y="972.271"/>
      <point x="711.004" y="972.271" type="curve" smooth="yes"/>
      <point x="724.311" y="972.271"/>
      <point x="732.081" y="969.85"/>
      <point x="736.379" y="967.827" type="curve" smooth="yes"/>
      <point x="800.912" y="937.461" type="line"/>
      <point x="719.698" y="921.515" type="line" smooth="yes"/>
      <point x="673.086" y="912.359"/>
      <point x="644.082" y="878.388"/>
      <point x="640.162" y="873.607" type="curve" smooth="yes"/>
      <point x="626.795" y="857.297"/>
      <point x="616.231" y="836.822"/>
      <point x="606.188" y="815.023" type="curve" smooth="yes"/>
      <point x="591.083" y="782.229"/>
      <point x="580.162" y="748.034"/>
      <point x="570.904" y="712.943" type="curve" smooth="yes"/>
      <point x="559.301" y="668.959"/>
      <point x="550.36" y="623.644"/>
      <point x="538.354" y="578.131" type="curve" smooth="yes"/>
      <point x="535.254" y="566.385"/>
      <point x="532.56" y="553.765"/>
      <point x="529.026" y="540.377" type="curve" smooth="yes"/>
      <point x="526.588" y="531.128"/>
      <point x="523.726" y="521.479"/>
      <point x="519.916" y="511.498" type="curve" smooth="yes"/>
      <point x="502.301" y="465.344"/>
      <point x="476.293" y="393.079"/>
      <point x="408.976" y="359.053" type="curve"/>
      <point x="437.215" y="327.556"/>
      <point x="443.516" y="280.812"/>
      <point x="441.025" y="241.773" type="curve" smooth="yes"/>
      <point x="438.49" y="202.024"/>
      <point x="430.073" y="161.552"/>
      <point x="419.572" y="121.747" type="curve" smooth="yes"/>
      <point x="411.439" y="90.9258"/>
      <point x="402.044" y="60.4746"/>
      <point x="392.999" y="31.0586" type="curve" smooth="yes"/>
      <point x="387.149" y="12.0303"/>
      <point x="381.185" y="-7.10645"/>
      <point x="376.271" y="-25.7275" type="curve" smooth="yes"/>
      <point x="372.225" y="-41.0674"/>
      <point x="368.891" y="-56.0625"/>
      <point x="366.834" y="-70.3223" type="curve" smooth="yes"/>
      <point x="358.587" y="-127.494"/>
      <point x="358.543" y="-173.101"/>
      <point x="397.889" y="-193.928" type="curve" smooth="yes"/>
      <point x="407.559" y="-199.047"/>
      <point x="413.653" y="-201.199"/>
      <point x="418.635" y="-201.644" type="curve" smooth="yes"/>
      <point x="440.361" y="-203.581" type="line"/>
      <point x="427.792" y="-251.225" type="line"/>
      <point x="403.439" y="-251.225" type="line" smooth="yes"/>
      <point x="373.104" y="-251.225"/>
      <point x="342.239" y="-249.222"/>
      <point x="312.951" y="-240.856" type="curve" smooth="yes"/>
      <point x="288.436" y="-233.854"/>
      <point x="263.798" y="-222.195"/>
      <point x="247.189" y="-201.008" type="curve" smooth="yes"/>
      <point x="218.138" y="-163.943"/>
      <point x="221.312" y="-104.285"/>
      <point x="226.099" y="-65.9385" type="curve" smooth="yes"/>
      <point x="230.4" y="-31.4688"/>
      <point x="238.399" y="2.99512"/>
      <point x="247.352" y="36.9287" type="curve" smooth="yes"/>
      <point x="255.664" y="68.4395"/>
      <point x="264.81" y="99.5166"/>
      <point x="272.78" y="129.727" type="curve" smooth="yes"/>
      <point x="285.679" y="178.624"/>
      <point x="296.103" y="227.029"/>
      <point x="291.347" y="268.991" type="curve" smooth="yes"/>
      <point x="288.833" y="291.186"/>
      <point x="279.55" y="309.613"/>
      <point x="263.744" y="322.9" type="curve" smooth="yes"/>
      <point x="255.012" y="330.24"/>
      <point x="242.361" y="333.9"/>
      <point x="232.044" y="344.838" type="curve" smooth="yes"/>
      <point x="205.837" y="372.623" type="line"/>
      <point x="250.767" y="386.647" type="line" smooth="yes"/>
      <point x="273.6" y="393.775"/>
      <point x="288.546" y="396.502"/>
      <point x="300.736" y="404.184" type="curve" smooth="yes"/>
      <point x="344.295" y="431.635"/>
      <point x="364.947" y="493.294"/>
    </contour>
  </outline>
</glyph>
<glyph name="braceright" format="2">
  <advance width="669"/>
  <unicode hex="007D"/>
  <outline>
    <contour>
      <point x="608.293" y="945.469" type="curve" smooth="yes"/>
      <point x="642.495" y="909.447"/>
      <point x="642.017" y="850.808"/>
      <point x="637.301" y="803.48" type="curve" smooth="yes"/>
      <point x="634.279" y="773.192"/>
      <point x="627.719" y="742.749"/>
      <point x="619.81" y="712.768" type="curve" smooth="yes"/>
      <point x="611.099" y="679.748"/>
      <point x="600.679" y="647.203"/>
      <point x="591.031" y="615.836" type="curve" smooth="yes"/>
      <point x="586.696" y="601.744"/>
      <point x="582.445" y="587.463"/>
      <point x="578.695" y="573.25" type="curve" smooth="yes"/>
      <point x="567.246" y="529.849"/>
      <point x="560.896" y="487.446"/>
      <point x="569.078" y="452.885" type="curve" smooth="yes"/>
      <point x="574.446" y="430.205"/>
      <point x="590.546" y="416.396"/>
      <point x="607.304" y="407.153" type="curve" smooth="yes"/>
      <point x="612.311" y="404.392"/>
      <point x="624.665" y="401.646"/>
      <point x="633.538" y="394.95" type="curve" smooth="yes"/>
      <point x="680.028" y="359.873" type="line"/>
      <point x="612.333" y="350.247" type="line" smooth="yes"/>
      <point x="607.263" y="349.525"/>
      <point x="601.63" y="347.942"/>
      <point x="586.348" y="341.196" type="curve" smooth="yes"/>
      <point x="522.663" y="313.076"/>
      <point x="496.575" y="246.577"/>
      <point x="476.539" y="170.628" type="curve" smooth="yes"/>
      <point x="470.736" y="148.634"/>
      <point x="465.046" y="127.033"/>
      <point x="460.375" y="105.786" type="curve" smooth="yes"/>
      <point x="453.667" y="75.2695"/>
      <point x="447.71" y="43.7803"/>
      <point x="439.217" y="11.5908" type="curve" smooth="yes"/>
      <point x="430.086" y="-23.0195"/>
      <point x="417.984" y="-58.5781"/>
      <point x="398.398" y="-94.2705" type="curve" smooth="yes"/>
      <point x="376.414" y="-134.331"/>
      <point x="343.854" y="-175.546"/>
      <point x="296.316" y="-199.909" type="curve" smooth="yes"/>
      <point x="277.199" y="-209.704"/>
      <point x="258.024" y="-215.79"/>
      <point x="240.099" y="-220.044" type="curve" smooth="yes"/>
      <point x="206.171" y="-228.098"/>
      <point x="172.782" y="-230.814"/>
      <point x="141.404" y="-230.814" type="curve" smooth="yes"/>
      <point x="117.051" y="-230.814" type="line"/>
      <point x="129.348" y="-184.202" type="line"/>
      <point x="151.201" y="-181.361" type="line" smooth="yes"/>
      <point x="155.825" y="-180.759"/>
      <point x="160.846" y="-179.732"/>
      <point x="174.838" y="-174.368" type="curve" smooth="yes"/>
      <point x="222.867" y="-155.954"/>
      <point x="247.792" y="-113.376"/>
      <point x="269.068" y="-59.332" type="curve" smooth="yes"/>
      <point x="277.484" y="-37.959"/>
      <point x="284.224" y="-16.2432"/>
      <point x="290.046" y="5.82227" type="curve" smooth="yes"/>
      <point x="303.987" y="58.6699"/>
      <point x="312.482" y="113.503"/>
      <point x="327.352" y="169.864" type="curve" smooth="yes"/>
      <point x="334.879" y="198.398"/>
      <point x="344.091" y="227.363"/>
      <point x="356.709" y="256.602" type="curve" smooth="yes"/>
      <point x="374.806" y="298.532"/>
      <point x="405.604" y="345.441"/>
      <point x="450.169" y="374.46" type="curve"/>
      <point x="410.86" y="411.81"/>
      <point x="415.353" y="479.842"/>
      <point x="423.645" y="528.608" type="curve" smooth="yes"/>
      <point x="426.64" y="546.221"/>
      <point x="430.593" y="563.701"/>
      <point x="435.173" y="581.059" type="curve" smooth="yes"/>
      <point x="450.015" y="637.318"/>
      <point x="470.86" y="692.045"/>
      <point x="484.682" y="744.429" type="curve" smooth="yes"/>
      <point x="492.184" y="772.87"/>
      <point x="497.663" y="800.597"/>
      <point x="499.39" y="827.638" type="curve" smooth="yes"/>
      <point x="500.837" y="850.297"/>
      <point x="500.444" y="872.641"/>
      <point x="494.848" y="889.539" type="curve" smooth="yes"/>
      <point x="486.41" y="915.02"/>
      <point x="462.502" y="934.584"/>
      <point x="433.92" y="940.968" type="curve" smooth="yes"/>
      <point x="415.664" y="945.042" type="line"/>
      <point x="427.555" y="990.122" type="line"/>
      <point x="451.908" y="990.122" type="line" smooth="yes"/>
      <point x="484.024" y="990.122"/>
      <point x="516.452" y="987.462"/>
      <point x="546.863" y="979.083" type="curve" smooth="yes"/>
      <point x="581.302" y="969.584"/>
      <point x="599.158" y="955.087"/>
    </contour>
  </outline>
</glyph>
<glyph name="afii57664" format="2">
  <advance width="636"/>
  <unicode hex="05D0"/>
  <outline>
    <contour>
      <point x="375.971" y="798.833" type="curve" smooth="yes"/>
      <point x="387.201" y="811.118"/>
      <point x="408.146" y="840.469"/>
      <point x="435.918" y="857.85" type="curve" smooth="yes"/>
      <point x="472.073" y="880.026"/>
      <point x="518.49" y="885.556"/>
      <point x="543.376" y="885.556" type="curve" smooth="yes"/>
      <point x="586.753" y="885.556"/>
      <point x="606.407" y="872.277"/>
      <point x="611.266" y="868.868" type="curve" smooth="yes"/>
      <point x="615.966" y="865.571"/>
      <point x="626.162" y="858.963"/>
      <point x="632.348" y="849.954" type="curve" smooth="yes"/>
      <point x="635.53" y="845.712"/>
      <point x="637.969" y="840.616"/>
      <point x="638.99" y="834.799" type="curve" smooth="yes"/>
      <point x="639.613" y="831.236"/>
      <point x="639.609" y="827.98"/>
      <point x="639.477" y="825.741" type="curve" smooth="yes"/>
      <point x="639.191" y="821.492"/>
      <point x="638.488" y="817.215"/>
      <point x="637.397" y="813.078" type="curve" smooth="yes"/>
      <point x="624.052" y="762.489"/>
      <point x="570.835" y="731.906"/>
      <point x="541.638" y="717.346" type="curve" smooth="yes"/>
      <point x="503.566" y="699.571"/>
      <point x="463.992" y="684.33"/>
      <point x="432.609" y="665.597" type="curve" smooth="yes"/>
      <point x="423.548" y="659.792"/>
      <point x="415.234" y="653.402"/>
      <point x="407.476" y="646.753" type="curve"/>
      <point x="417.335" y="647.131"/>
      <point x="427.073" y="647.731"/>
      <point x="436.562" y="648.695" type="curve" smooth="yes"/>
      <point x="459.596" y="650.975"/>
      <point x="484.416" y="652.599"/>
      <point x="509.446" y="652.599" type="curve" smooth="yes"/>
      <point x="543.784" y="652.599"/>
      <point x="599.138" y="650.252"/>
      <point x="642.282" y="628.281" type="curve" smooth="yes"/>
      <point x="696.271" y="600.205"/>
      <point x="710.227" y="535.332"/>
      <point x="707.945" y="468.797" type="curve" smooth="yes"/>
      <point x="706.363" y="432.031"/>
      <point x="700.322" y="393.311"/>
      <point x="689.988" y="354.151" type="curve" smooth="yes"/>
      <point x="666.967" y="266.886"/>
      <point x="616.2" y="154.256"/>
      <point x="520.652" y="67.9229" type="curve" smooth="yes"/>
      <point x="487.258" y="38.7666"/>
      <point x="443.926" y="12.4785"/>
      <point x="397.198" y="7.81445" type="curve" smooth="yes"/>
      <point x="393.473" y="7.45605"/>
      <point x="389.53" y="7.28125"/>
      <point x="385.786" y="7.28125" type="curve" smooth="yes"/>
      <point x="345.947" y="7.28125"/>
      <point x="328.927" y="21.5547"/>
      <point x="324.356" y="26.1172" type="curve" smooth="yes"/>
      <point x="320.092" y="30.0439"/>
      <point x="317.985" y="34.1221"/>
      <point x="316.573" y="38.0635" type="curve" smooth="yes"/>
      <point x="312.77" y="49.9766"/>
      <point x="315.08" y="65.0498"/>
      <point x="316.86" y="71.7969" type="curve" smooth="yes"/>
      <point x="317.995" y="76.0967"/>
      <point x="320.776" y="85.1963"/>
      <point x="325.461" y="93.2988" type="curve" smooth="yes"/>
      <point x="326.117" y="95.0107" type="line"/>
      <point x="326.566" y="95.5508" type="line" smooth="yes"/>
      <point x="334.143" y="105.289"/>
      <point x="337.914" y="113.249"/>
      <point x="358.687" y="123.655" type="curve" smooth="yes"/>
      <point x="368.731" y="128.053" type="line" smooth="yes"/>
      <point x="383.47" y="134.662"/>
      <point x="397.909" y="141.806"/>
      <point x="412.018" y="149.48" type="curve" smooth="yes"/>
      <point x="454.644" y="172.536"/>
      <point x="493.115" y="200.69"/>
      <point x="522.722" y="233.508" type="curve" smooth="yes"/>
      <point x="549.751" y="263.243"/>
      <point x="568.874" y="296.609"/>
      <point x="577.625" y="329.781" type="curve" smooth="yes"/>
      <point x="580.459" y="340.524"/>
      <point x="582.316" y="351.195"/>
      <point x="583.038" y="361.754" type="curve" smooth="yes"/>
      <point x="585.702" y="400.787"/>
      <point x="568.786" y="416.469"/>
      <point x="560.579" y="422.154" type="curve" smooth="yes"/>
      <point x="537.05" y="438.455"/>
      <point x="505.574" y="441.394"/>
      <point x="466.901" y="441.394" type="curve" smooth="yes"/>
      <point x="457.389" y="441.394"/>
      <point x="447.534" y="441.229"/>
      <point x="437.462" y="441.125" type="curve" smooth="yes"/>
      <point x="413.95" y="440.884"/>
      <point x="391.791" y="441.083"/>
      <point x="370.215" y="439.451" type="curve" smooth="yes"/>
      <point x="369.262" y="439.38"/>
      <point x="365.52" y="439.223"/>
      <point x="364.007" y="439.223" type="curve" smooth="yes"/>
      <point x="362.771" y="439.223"/>
      <point x="359.576" y="439.306"/>
      <point x="357.558" y="439.339" type="curve"/>
      <point x="352.34" y="434.795"/>
      <point x="345.883" y="427.476"/>
      <point x="339.205" y="421.89" type="curve" smooth="yes"/>
      <point x="304.728" y="393.054"/>
      <point x="296.607" y="379.499"/>
      <point x="293.282" y="370.004" type="curve" smooth="yes"/>
      <point x="293.214" y="369.807"/>
      <point x="292.791" y="368.422"/>
      <point x="292.687" y="368.026" type="curve" smooth="yes"/>
      <point x="290.691" y="360.464"/>
      <point x="291.06" y="354.625"/>
      <point x="291.268" y="335.397" type="curve" smooth="yes"/>
      <point x="291.981" y="278.708"/>
      <point x="295.802" y="220.778"/>
      <point x="290.362" y="160.651" type="curve" smooth="yes"/>
      <point x="288.853" y="144.765"/>
      <point x="287.885" y="123.349"/>
      <point x="282.075" y="101.331" type="curve" smooth="yes"/>
      <point x="279.504" y="91.583"/>
      <point x="275.73" y="81.4854"/>
      <point x="269.462" y="71.4551" type="curve" smooth="yes"/>
      <point x="258.584" y="53.9248"/>
      <point x="234.103" y="35.4336"/>
      <point x="229.63" y="31.6709" type="curve" smooth="yes"/>
      <point x="218.01" y="21.7373"/>
      <point x="204.647" y="10.9277"/>
      <point x="188.242" y="1.4082" type="curve" smooth="yes"/>
      <point x="178.538" y="-4.19727"/>
      <point x="167.457" y="-10.5703"/>
      <point x="154.203" y="-15.6055" type="curve" smooth="yes"/>
      <point x="145.358" y="-18.9229"/>
      <point x="125.715" y="-26.6152"/>
      <point x="108.719" y="-26.6152" type="curve" smooth="yes"/>
      <point x="108.412" y="-26.6152"/>
      <point x="107.493" y="-26.6016"/>
      <point x="107.188" y="-26.5947" type="curve" smooth="yes"/>
      <point x="98.9824" y="-26.3643"/>
      <point x="96.877" y="-25.918"/>
      <point x="92.0146" y="-24.2441" type="curve" smooth="yes"/>
      <point x="88.1221" y="-23.0244"/>
      <point x="84.5303" y="-21.5996"/>
      <point x="81.8584" y="-19.1074" type="curve" smooth="yes"/>
      <point x="79.7637" y="-16.8262"/>
      <point x="76.4355" y="-14.6846"/>
      <point x="73.8818" y="-5.91895" type="curve" smooth="yes"/>
      <point x="70.584" y="6.74414"/>
      <point x="73.5576" y="22.5254"/>
      <point x="75.4268" y="29.6484" type="curve" smooth="yes"/>
      <point x="82.5576" y="56.8174"/>
      <point x="88.1289" y="85.1191"/>
      <point x="95.8535" y="114.397" type="curve" smooth="yes"/>
      <point x="107.648" y="159.108"/>
      <point x="118.163" y="204.184"/>
      <point x="129.61" y="249.686" type="curve" smooth="yes"/>
      <point x="131.015" y="255.271"/>
      <point x="132.447" y="260.868"/>
      <point x="133.927" y="266.479" type="curve" smooth="yes"/>
      <point x="144.698" y="307.309"/>
      <point x="158.056" y="349.02"/>
      <point x="182.272" y="391.479" type="curve" smooth="yes"/>
      <point x="193.93" y="411.92"/>
      <point x="208.014" y="431.614"/>
      <point x="224.146" y="449.949" type="curve"/>
      <point x="210.978" y="453.383"/>
      <point x="194.607" y="459.817"/>
      <point x="185.077" y="472.312" type="curve" smooth="yes"/>
      <point x="175.728" y="483.875"/>
      <point x="175.053" y="498.944"/>
      <point x="174.94" y="511.547" type="curve" smooth="yes"/>
      <point x="175.135" y="528.051"/>
      <point x="177.576" y="544.945"/>
      <point x="182.019" y="561.786" type="curve" smooth="yes"/>
      <point x="185.197" y="573.836"/>
      <point x="189.61" y="585.84"/>
      <point x="195.02" y="597.668" type="curve" smooth="yes"/>
      <point x="200.596" y="609.738"/>
      <point x="203.799" y="616.812"/>
      <point x="210.286" y="625.359" type="curve" smooth="yes"/>
      <point x="214.586" y="630.646"/>
      <point x="220.295" y="636.671"/>
      <point x="228.753" y="640.988" type="curve" smooth="yes"/>
      <point x="238.009" y="645.935"/>
      <point x="238.903" y="646.149"/>
      <point x="244.543" y="647.888" type="curve" smooth="yes"/>
      <point x="247.653" y="648.857"/>
      <point x="258.124" y="652.186"/>
      <point x="276.797" y="652.186" type="curve" smooth="yes"/>
      <point x="278.75" y="652.186"/>
      <point x="280.613" y="652.152"/>
      <point x="282.398" y="652.102" type="curve"/>
      <point x="295.259" y="687.538"/>
      <point x="321.865" y="737.366"/>
    </contour>
  </outline>
</glyph>
<glyph name="afii57665" format="2">
  <advance width="560"/>
  <unicode hex="05D1"/>
  <outline>
    <contour>
      <point x="444.181" y="455.398" type="curve"/>
      <point x="435.666" y="456.194"/>
      <point x="426.755" y="456.575"/>
      <point x="417.658" y="456.575" type="curve" smooth="yes"/>
      <point x="405.754" y="456.575"/>
      <point x="393.53" y="455.938"/>
      <point x="381.477" y="454.823" type="curve" smooth="yes"/>
      <point x="368.999" y="453.669"/>
      <point x="354.658" y="450.019"/>
      <point x="336.074" y="449.341" type="curve" smooth="yes"/>
      <point x="334.782" y="449.293"/>
      <point x="330.917" y="449.235"/>
      <point x="329.635" y="449.235" type="curve" smooth="yes"/>
      <point x="308.955" y="449.235"/>
      <point x="291.932" y="452.474"/>
      <point x="276.691" y="453.836" type="curve" smooth="yes"/>
      <point x="257.227" y="455.574"/>
      <point x="239.919" y="453.824"/>
      <point x="224.335" y="460.139" type="curve" smooth="yes"/>
      <point x="223.115" y="460.649"/>
      <point x="222.146" y="461.057"/>
      <point x="219.766" y="462.434" type="curve" smooth="yes"/>
      <point x="218.858" y="462.957"/>
      <point x="217.892" y="463.438"/>
      <point x="215.431" y="465.32" type="curve" smooth="yes"/>
      <point x="214.441" y="466.078"/>
      <point x="213.707" y="466.569"/>
      <point x="211.487" y="468.798" type="curve" smooth="yes"/>
      <point x="188.826" y="491.563"/>
      <point x="191.952" y="524.93"/>
      <point x="199.402" y="553.172" type="curve" smooth="yes"/>
      <point x="206.871" y="581.481"/>
      <point x="219.676" y="609.081"/>
      <point x="225.149" y="627.484" type="curve" smooth="yes"/>
      <point x="228.981" y="640.368"/>
      <point x="234.17" y="665.795"/>
      <point x="247.522" y="683.654" type="curve" smooth="yes"/>
      <point x="251.271" y="688.67"/>
      <point x="256.033" y="693.777"/>
      <point x="261.913" y="698.278" type="curve" smooth="yes"/>
      <point x="262.551" y="698.766" type="line"/>
      <point x="263.248" y="699.142" type="line" smooth="yes"/>
      <point x="272.021" y="703.878"/>
      <point x="276.51" y="708.603"/>
      <point x="294.402" y="710.367" type="curve" smooth="yes"/>
      <point x="297.485" y="710.668"/>
      <point x="300.671" y="710.85"/>
      <point x="304.859" y="710.85" type="curve" smooth="yes"/>
      <point x="315.567" y="710.85"/>
      <point x="326.009" y="709.842"/>
      <point x="331.363" y="709.842" type="curve" smooth="yes"/>
      <point x="359.038" y="709.842" type="line"/>
      <point x="353.564" y="686.81" type="line" smooth="yes"/>
      <point x="349.376" y="669.191"/>
      <point x="364.318" y="656.171"/>
      <point x="391.929" y="653.476" type="curve" smooth="yes"/>
      <point x="406.382" y="652.064"/>
      <point x="421.781" y="651.858"/>
      <point x="438.055" y="651.858" type="curve" smooth="yes"/>
      <point x="446.219" y="651.858"/>
      <point x="454.585" y="651.922"/>
      <point x="463.113" y="651.922" type="curve" smooth="yes"/>
      <point x="469.364" y="651.922"/>
      <point x="475.707" y="651.889"/>
      <point x="482.129" y="651.763" type="curve" smooth="yes"/>
      <point x="540.651" y="650.623"/>
      <point x="594.544" y="649.939"/>
      <point x="643.352" y="649.939" type="curve" smooth="yes"/>
      <point x="669.742" y="649.939" type="line"/>
      <point x="660.915" y="624.504" type="line" smooth="yes"/>
      <point x="647.696" y="586.409"/>
      <point x="625.854" y="546.919"/>
      <point x="602.946" y="512.729" type="curve" smooth="yes"/>
      <point x="595.164" y="501.112"/>
      <point x="588.576" y="488.318"/>
      <point x="579.192" y="473.858" type="curve" smooth="yes"/>
      <point x="571.967" y="462.721"/>
      <point x="570.686" y="460.985"/>
      <point x="569.795" y="459.569" type="curve"/>
      <point x="569.803" y="459.489"/>
      <point x="569.821" y="459.324"/>
      <point x="569.861" y="459.06" type="curve" smooth="yes"/>
      <point x="570.655" y="453.713"/>
      <point x="576.191" y="441.687"/>
      <point x="578.021" y="433.884" type="curve" smooth="yes"/>
      <point x="584.163" y="407.672"/>
      <point x="591.599" y="381.126"/>
      <point x="596.599" y="352.694" type="curve" smooth="yes"/>
      <point x="601.361" y="325.62"/>
      <point x="599.814" y="295.462"/>
      <point x="591.859" y="265.305" type="curve" smooth="yes"/>
      <point x="587.005" y="246.904"/>
      <point x="579.75" y="228.423"/>
      <point x="569.791" y="210.708" type="curve" smooth="yes"/>
      <point x="546.793" y="169.797"/>
      <point x="508.728" y="132.272"/>
      <point x="490.748" y="115.377" type="curve" smooth="yes"/>
      <point x="406" y="35.7441"/>
      <point x="271.43" y="-6.53613"/>
      <point x="153.25" y="-18.9971" type="curve" smooth="yes"/>
      <point x="134.435" y="-20.9805"/>
      <point x="109.992" y="-25.0625"/>
      <point x="88.9209" y="-25.0625" type="curve" smooth="yes"/>
      <point x="81.4131" y="-25.0625"/>
      <point x="73.7383" y="-24.5518"/>
      <point x="66.2578" y="-22.8906" type="curve" smooth="yes"/>
      <point x="59.4707" y="-21.3809"/>
      <point x="50.1445" y="-19.626"/>
      <point x="42.4883" y="-12.9434" type="curve" smooth="yes"/>
      <point x="37.8516" y="-8.89551"/>
      <point x="33.5312" y="-2.19824"/>
      <point x="33.3242" y="7.3125" type="curve" smooth="yes"/>
      <point x="32.96" y="24.2295"/>
      <point x="37.0977" y="42.6191"/>
      <point x="39.4307" y="51.4561" type="curve" smooth="yes"/>
      <point x="41.8096" y="60.4756"/>
      <point x="44.71" y="69.2529"/>
      <point x="47.9424" y="77.3848" type="curve" smooth="yes"/>
      <point x="60.751" y="109.602"/>
      <point x="72.7451" y="151.879"/>
      <point x="110.726" y="174.842" type="curve" smooth="yes"/>
      <point x="111.52" y="175.321" type="line"/>
      <point x="112.363" y="175.634" type="line" smooth="yes"/>
      <point x="114.816" y="176.541"/>
      <point x="123.771" y="180.616"/>
      <point x="127.541" y="181.364" type="curve" smooth="yes"/>
      <point x="135.127" y="182.871"/>
      <point x="140.491" y="182.356"/>
      <point x="144.629" y="182.531" type="curve" smooth="yes"/>
      <point x="154.068" y="182.928"/>
      <point x="169.668" y="182.645"/>
      <point x="180.039" y="183.588" type="curve" smooth="yes"/>
      <point x="191.669" y="184.645"/>
      <point x="202.831" y="184.92"/>
      <point x="213.516" y="184.92" type="curve" smooth="yes"/>
      <point x="228.494" y="184.92"/>
      <point x="242.624" y="184.393"/>
      <point x="255.648" y="184.393" type="curve" smooth="yes"/>
      <point x="302.181" y="184.393"/>
      <point x="349.773" y="185.409"/>
      <point x="393.657" y="193.54" type="curve" smooth="yes"/>
      <point x="420.805" y="198.571"/>
      <point x="438.043" y="201.948"/>
      <point x="447.595" y="207.343" type="curve" smooth="yes"/>
      <point x="447.595" y="207.343"/>
      <point x="448.529" y="207.88"/>
      <point x="448.543" y="207.893" type="curve" smooth="yes"/>
      <point x="450.229" y="209.492"/>
      <point x="450.676" y="210.68"/>
      <point x="450.866" y="211.4" type="curve" smooth="yes"/>
      <point x="451.635" y="214.319"/>
      <point x="450.795" y="219.406"/>
      <point x="447.759" y="225.998" type="curve" smooth="yes"/>
      <point x="437.985" y="247.231"/>
      <point x="415.962" y="265.339"/>
      <point x="391.445" y="284.532" type="curve" smooth="yes"/>
      <point x="382.145" y="291.813"/>
      <point x="373.742" y="295.398"/>
      <point x="366.554" y="303.441" type="curve" smooth="yes"/>
      <point x="362.585" y="307.884"/>
      <point x="360.202" y="312.5"/>
      <point x="359.311" y="317.326" type="curve" smooth="yes"/>
      <point x="358.919" y="319.445"/>
      <point x="359.028" y="325.412"/>
      <point x="359.941" y="328.873" type="curve" smooth="yes"/>
      <point x="361.618" y="335.228"/>
      <point x="365.079" y="340.76"/>
      <point x="365.793" y="342.337" type="curve" smooth="yes"/>
      <point x="369.364" y="350.223"/>
      <point x="376.704" y="366.847"/>
      <point x="388.812" y="382.601" type="curve" smooth="yes"/>
      <point x="408.132" y="407.736"/>
      <point x="428.483" y="432.009"/>
    </contour>
    <contour>
      <point x="553.984" y="452.896" type="line"/>
      <point x="555.631" y="451.553"/>
      <point x="559.111" y="450.56"/>
      <point x="561.947" y="449.845" type="curve"/>
      <point x="563.023" y="450.585"/>
      <point x="564.311" y="451.447"/>
      <point x="565.407" y="452.107" type="curve"/>
    </contour>
  </outline>
</glyph>
<glyph name="afii57668" format="2">
  <advance width="675"/>
  <unicode hex="05D4"/>
  <outline>
    <contour>
      <point x="263.071" y="700.826" type="curve" smooth="yes"/>
      <point x="270.555" y="705.411"/>
      <point x="278.566" y="706.776"/>
      <point x="284.578" y="706.776" type="curve" smooth="yes"/>
      <point x="285.487" y="706.776"/>
      <point x="289.619" y="706.538"/>
      <point x="290.105" y="706.538" type="curve" smooth="yes"/>
      <point x="293.07" y="706.538"/>
      <point x="296.121" y="706.853"/>
      <point x="300.077" y="706.853" type="curve" smooth="yes"/>
      <point x="300.497" y="706.853"/>
      <point x="301.753" y="706.839"/>
      <point x="302.171" y="706.825" type="curve" smooth="yes"/>
      <point x="314.22" y="706.517"/>
      <point x="322.021" y="705.691"/>
      <point x="330.979" y="700.203" type="curve" smooth="yes"/>
      <point x="334.863" y="697.818"/>
      <point x="336.404" y="696.227"/>
      <point x="336.813" y="695.672" type="curve" smooth="yes"/>
      <point x="338.438" y="693.461"/>
      <point x="342.741" y="687.558"/>
      <point x="343.414" y="684.685" type="curve" smooth="yes"/>
      <point x="345.514" y="675.725"/>
      <point x="344.505" y="676.713"/>
      <point x="344.529" y="671.267" type="curve"/>
      <point x="348.092" y="665.147"/>
      <point x="356.957" y="655.272"/>
      <point x="380.61" y="653.472" type="curve" smooth="yes"/>
      <point x="392.864" y="652.538"/>
      <point x="405.747" y="652.164"/>
      <point x="419.075" y="652.164" type="curve" smooth="yes"/>
      <point x="455.728" y="652.164"/>
      <point x="495.948" y="655.363"/>
      <point x="536.134" y="655.363" type="curve" smooth="yes"/>
      <point x="593.213" y="655.363"/>
      <point x="652.964" y="649.209"/>
      <point x="696.165" y="612.25" type="curve" smooth="yes"/>
      <point x="728.224" y="584.134"/>
      <point x="734.832" y="539.931"/>
      <point x="738.591" y="505.328" type="curve" smooth="yes"/>
      <point x="744.555" y="450.489"/>
      <point x="737.275" y="391.417"/>
      <point x="721.889" y="333.103" type="curve" smooth="yes"/>
      <point x="712.131" y="296.114"/>
      <point x="699.064" y="259.457"/>
      <point x="684.014" y="224.246" type="curve" smooth="yes"/>
      <point x="672.065" y="196.292"/>
      <point x="658.732" y="168.545"/>
      <point x="643.667" y="141.207" type="curve" smooth="yes"/>
      <point x="636.857" y="128.852"/>
      <point x="629.328" y="114.64"/>
      <point x="615.137" y="102.287" type="curve" smooth="yes"/>
      <point x="614.704" y="101.911"/>
      <point x="613.426" y="100.75"/>
      <point x="610.697" y="98.6748" type="curve" smooth="yes"/>
      <point x="609.503" y="97.7666"/>
      <point x="608.604" y="97.0576"/>
      <point x="605.921" y="95.2881" type="curve" smooth="yes"/>
      <point x="604.727" y="94.501"/>
      <point x="603.888" y="93.9062"/>
      <point x="600.837" y="92.1836" type="curve" smooth="yes"/>
      <point x="599.786" y="91.5898"/>
      <point x="599.276" y="91.2109"/>
      <point x="595.504" y="89.4092" type="curve" smooth="yes"/>
      <point x="586.317" y="85.0195"/>
      <point x="575.371" y="82.251"/>
      <point x="563.175" y="82.251" type="curve" smooth="yes"/>
      <point x="542.981" y="82.251"/>
      <point x="515.224" y="89.7139"/>
      <point x="503.697" y="108.48" type="curve" smooth="yes"/>
      <point x="502.497" y="110.435"/>
      <point x="497.269" y="117.068"/>
      <point x="497.679" y="132.05" type="curve" smooth="yes"/>
      <point x="497.809" y="136.827"/>
      <point x="498.576" y="141.533"/>
      <point x="499.774" y="146.074" type="curve" smooth="yes"/>
      <point x="501.368" y="152.118"/>
      <point x="503.739" y="157.934"/>
      <point x="506.675" y="163.426" type="curve" smooth="yes"/>
      <point x="519.55" y="187.523"/>
      <point x="543.481" y="209.027"/>
      <point x="560.742" y="227.938" type="curve" smooth="yes"/>
      <point x="577.719" y="246.537"/>
      <point x="591.308" y="266.502"/>
      <point x="601.344" y="287.76" type="curve" smooth="yes"/>
      <point x="606.961" y="299.657"/>
      <point x="611.632" y="312.186"/>
      <point x="614.849" y="324.382" type="curve" smooth="yes"/>
      <point x="616.928" y="332.262"/>
      <point x="618.38" y="339.958"/>
      <point x="619.068" y="347.222" type="curve" smooth="yes"/>
      <point x="620.082" y="357.954"/>
      <point x="619.609" y="367.958"/>
      <point x="617.018" y="376.545" type="curve" smooth="yes"/>
      <point x="600.366" y="431.696"/>
      <point x="529.289" y="441.117"/>
      <point x="442.906" y="441.117" type="curve" smooth="yes"/>
      <point x="422.994" y="441.117"/>
      <point x="403.216" y="440.665"/>
      <point x="384.599" y="440.586" type="curve" smooth="yes"/>
      <point x="364.076" y="440.498"/>
      <point x="342.678" y="439.619"/>
      <point x="320.588" y="439.619" type="curve" smooth="yes"/>
      <point x="310.995" y="439.619"/>
      <point x="300.547" y="439.343"/>
      <point x="289.665" y="439.343" type="curve" smooth="yes"/>
      <point x="264.8" y="439.343"/>
      <point x="238.184" y="440.447"/>
      <point x="216.825" y="452.872" type="curve" smooth="yes"/>
      <point x="185.854" y="470.887"/>
      <point x="184.734" y="499.292"/>
      <point x="189.832" y="532.405" type="curve" smooth="yes"/>
      <point x="191.453" y="542.928"/>
      <point x="193.71" y="553.485"/>
      <point x="196.485" y="564.007" type="curve" smooth="yes"/>
      <point x="202.886" y="588.27"/>
      <point x="212.06" y="612.304"/>
      <point x="222.666" y="635.424" type="curve" smooth="yes"/>
      <point x="228.779" y="648.747"/>
      <point x="235.532" y="661.793"/>
      <point x="242.375" y="674.881" type="curve" smooth="yes"/>
      <point x="244.922" y="679.748"/>
      <point x="246.231" y="682.732"/>
      <point x="247.376" y="684.633" type="curve" smooth="yes"/>
      <point x="253.843" y="695.379"/>
      <point x="261.269" y="699.727"/>
    </contour>
    <contour>
      <point x="257.397" y="381.056" type="line" smooth="yes"/>
      <point x="250.296" y="340.678"/>
      <point x="253.281" y="289.085"/>
      <point x="283.927" y="257.057" type="curve" smooth="yes"/>
      <point x="293.853" y="246.685"/>
      <point x="311.679" y="237.45"/>
      <point x="329.622" y="228.119" type="curve" smooth="yes"/>
      <point x="353.202" y="215.855"/>
      <point x="406.624" y="213.063"/>
      <point x="428.165" y="181.614" type="curve" smooth="yes"/>
      <point x="433.645" y="173.614"/>
      <point x="433.453" y="172.247"/>
      <point x="434.638" y="167.3" type="curve" smooth="yes"/>
      <point x="435.122" y="165.278"/>
      <point x="435.398" y="163.449"/>
      <point x="435.531" y="162.43" type="curve" smooth="yes"/>
      <point x="437.195" y="149.688"/>
      <point x="433.723" y="136.174"/>
      <point x="432.672" y="130.509" type="curve" smooth="yes"/>
      <point x="429.943" y="115.85"/>
      <point x="427.023" y="100.098"/>
      <point x="422.727" y="83.8047" type="curve" smooth="yes"/>
      <point x="418.32" y="67.1035"/>
      <point x="412.556" y="49.8623"/>
      <point x="403.906" y="32.7861" type="curve" smooth="yes"/>
      <point x="400.298" y="25.6631"/>
      <point x="392.613" y="8.96289"/>
      <point x="378.987" y="-4.87305" type="curve" smooth="yes"/>
      <point x="373.164" y="-10.7861"/>
      <point x="367.576" y="-14.8037"/>
      <point x="362.139" y="-17.7822" type="curve" smooth="yes"/>
      <point x="361.36" y="-18.208" type="line"/>
      <point x="360.541" y="-18.4834" type="line" smooth="yes"/>
      <point x="356.2" y="-19.9385"/>
      <point x="351.546" y="-23.3281"/>
      <point x="338.729" y="-24.9824" type="curve" smooth="yes"/>
      <point x="337.704" y="-25.1152"/>
      <point x="334.636" y="-25.4375"/>
      <point x="333.616" y="-25.5273" type="curve" smooth="yes"/>
      <point x="332.35" y="-25.6387"/>
      <point x="328.555" y="-25.9229"/>
      <point x="327.284" y="-26.0654" type="curve" smooth="yes"/>
      <point x="320.903" y="-26.7734"/>
      <point x="314.633" y="-27.1055"/>
      <point x="308.503" y="-27.1055" type="curve" smooth="yes"/>
      <point x="288.465" y="-27.1055"/>
      <point x="269.849" y="-23.6221"/>
      <point x="253.375" y="-17.8027" type="curve" smooth="yes"/>
      <point x="222.147" y="-6.77148"/>
      <point x="190.203" y="10.3281"/>
      <point x="167.951" y="33.4316" type="curve" smooth="yes"/>
      <point x="149.308" y="52.79"/>
      <point x="104.44" y="116.459"/>
      <point x="126.692" y="249.224" type="curve" smooth="yes"/>
      <point x="129.147" y="263.878"/>
      <point x="132.319" y="278.795"/>
      <point x="136.275" y="293.79" type="curve" smooth="yes"/>
      <point x="141.396" y="313.199"/>
      <point x="148.131" y="332.54"/>
      <point x="155.488" y="351.526" type="curve" smooth="yes"/>
      <point x="159.729" y="362.471"/>
      <point x="161.253" y="370.699"/>
      <point x="167.308" y="380.979" type="curve" smooth="yes"/>
      <point x="170.521" y="386.437"/>
      <point x="175.511" y="392.822"/>
      <point x="182.661" y="397.414" type="curve" smooth="yes"/>
      <point x="190.234" y="402.273"/>
      <point x="196.474" y="403.715"/>
      <point x="204.571" y="403.715" type="curve" smooth="yes"/>
      <point x="205.485" y="403.715"/>
      <point x="209.652" y="403.478"/>
      <point x="210.152" y="403.478" type="curve" smooth="yes"/>
      <point x="261.34" y="403.478" type="line"/>
    </contour>
  </outline>
</glyph>
<glyph name="afii57669" format="2">
  <advance width="404"/>
  <unicode hex="05D5"/>
  <outline>
    <contour>
      <point x="274.278" y="194.02" type="curve" smooth="yes"/>
      <point x="294.563" y="255.036"/>
      <point x="296.608" y="314.221"/>
      <point x="277.035" y="369.37" type="curve" smooth="yes"/>
      <point x="264.926" y="403.632"/>
      <point x="235.494" y="433.635"/>
      <point x="207.475" y="457.799" type="curve" smooth="yes"/>
      <point x="191.567" y="470.75"/>
      <point x="171.578" y="476.747"/>
      <point x="163.113" y="498.135" type="curve" smooth="yes"/>
      <point x="160.914" y="506.101"/>
      <point x="160.406" y="515.66"/>
      <point x="162.372" y="526.081" type="curve" smooth="yes"/>
      <point x="162.998" y="529.473"/>
      <point x="163.757" y="532.788"/>
      <point x="164.634" y="536.112" type="curve" smooth="yes"/>
      <point x="170.745" y="559.277"/>
      <point x="188.616" y="597.303"/>
      <point x="235.544" y="648.215" type="curve" smooth="yes"/>
      <point x="247.935" y="661.243"/>
      <point x="267.731" y="682.084"/>
      <point x="300.747" y="687.363" type="curve" smooth="yes"/>
      <point x="308.602" y="688.54"/>
      <point x="316.077" y="688.668"/>
      <point x="323.219" y="688.668" type="curve" smooth="yes"/>
      <point x="337.689" y="688.668"/>
      <point x="357.507" y="689.333"/>
      <point x="392.73" y="676.594" type="curve" smooth="yes"/>
      <point x="440.654" y="659.104"/>
      <point x="462.98" y="627.438"/>
      <point x="472.518" y="598.178" type="curve" smooth="yes"/>
      <point x="479.148" y="577.637"/>
      <point x="477.891" y="555.214"/>
      <point x="476.851" y="536.948" type="curve" smooth="yes"/>
      <point x="474.82" y="503.697"/>
      <point x="468.643" y="470.049"/>
      <point x="459.864" y="436.775" type="curve" smooth="yes"/>
      <point x="457.219" y="426.746"/>
      <point x="454.336" y="416.769"/>
      <point x="451.283" y="406.838" type="curve" smooth="yes"/>
      <point x="424.089" y="318.371"/>
      <point x="401.443" y="228.339"/>
      <point x="368.721" y="137.561" type="curve" smooth="yes"/>
      <point x="358.141" y="108.202"/>
      <point x="348.971" y="77.3721"/>
      <point x="336.327" y="45.0801" type="curve" smooth="yes"/>
      <point x="332.326" y="34.9697"/>
      <point x="329.747" y="25.3848"/>
      <point x="324.246" y="15.5293" type="curve" smooth="yes"/>
      <point x="323.11" y="13.5977"/>
      <point x="321.826" y="11.7021"/>
      <point x="321.157" y="10.7695" type="curve" smooth="yes"/>
      <point x="320.673" y="10.1113"/>
      <point x="318.751" y="7.63379"/>
      <point x="317.021" y="5.80469" type="curve" smooth="yes"/>
      <point x="316.441" y="5.24707"/>
      <point x="313.501" y="2.33398"/>
      <point x="310.546" y="0.683594" type="curve" smooth="yes"/>
      <point x="305.496" y="-2.59277"/>
      <point x="299.372" y="-8.04395"/>
      <point x="282.396" y="-11.6826" type="curve" smooth="yes"/>
      <point x="270.043" y="-14.4355"/>
      <point x="257.506" y="-14.4795"/>
      <point x="250.889" y="-14.4795" type="curve" smooth="yes"/>
      <point x="248.112" y="-14.4795"/>
      <point x="239.136" y="-14.4062"/>
      <point x="236.101" y="-14.4062" type="curve" smooth="yes"/>
      <point x="202.092" y="-14.4062" type="line"/>
      <point x="206.682" y="2.98828" type="line" smooth="yes"/>
      <point x="223.539" y="66.8857"/>
      <point x="253.431" y="131.251"/>
    </contour>
  </outline>
</glyph>
<glyph name="afii57672" format="2">
  <advance width="763"/>
  <unicode hex="05D8"/>
  <outline>
    <contour>
      <point x="448.63" y="519.367" type="curve" smooth="yes"/>
      <point x="449.355" y="522.116"/>
      <point x="451.35" y="526.825"/>
      <point x="452.501" y="528.559" type="curve" smooth="yes"/>
      <point x="453.311" y="529.833"/>
      <point x="455.457" y="534.102"/>
      <point x="462.314" y="540.74" type="curve" smooth="yes"/>
      <point x="464.229" y="542.576"/>
      <point x="465.052" y="543.272"/>
      <point x="466.012" y="544.101" type="curve" smooth="yes"/>
      <point x="479.267" y="556.351"/>
      <point x="491.998" y="563.74"/>
      <point x="500.112" y="570.337" type="curve" smooth="yes"/>
      <point x="601.072" y="653.47" type="line"/>
      <point x="644.165" y="689.021" type="line" smooth="yes"/>
      <point x="655.569" y="698.841"/>
      <point x="657.516" y="699.893"/>
      <point x="661.226" y="702.093" type="curve" smooth="yes"/>
      <point x="667.807" y="705.593"/>
      <point x="673.966" y="707.469"/>
      <point x="679.441" y="708.393" type="curve" smooth="yes"/>
      <point x="681.508" y="708.75"/>
      <point x="687.916" y="709.345"/>
      <point x="690.923" y="709.345" type="curve" smooth="yes"/>
      <point x="702.079" y="709.345"/>
      <point x="712.019" y="706.601"/>
      <point x="716.24" y="705.775" type="curve" smooth="yes"/>
      <point x="738.094" y="701.533"/>
      <point x="766.99" y="692.57"/>
      <point x="787.36" y="672.479" type="curve" smooth="yes"/>
      <point x="817.684" y="641.438"/>
      <point x="826.973" y="601.357"/>
      <point x="836.696" y="567.722" type="curve" smooth="yes"/>
      <point x="838.957" y="560.023"/>
      <point x="845.278" y="542.206"/>
      <point x="846.496" y="525.213" type="curve" smooth="yes"/>
      <point x="848.967" y="489.683"/>
      <point x="842.156" y="451.808"/>
      <point x="836.829" y="418.832" type="curve" smooth="yes"/>
      <point x="833.364" y="397.652"/>
      <point x="828.779" y="375.938"/>
      <point x="822.99" y="353.992" type="curve" smooth="yes"/>
      <point x="794.822" y="247.234"/>
      <point x="736.729" y="132.045"/>
      <point x="628.885" y="53.2266" type="curve" smooth="yes"/>
      <point x="606.997" y="37.79"/>
      <point x="581.6" y="22.6699"/>
      <point x="552.413" y="10.4854" type="curve" smooth="yes"/>
      <point x="494.483" y="-13.7686"/>
      <point x="432.772" y="-22.0898"/>
      <point x="376.098" y="-22.0898" type="curve" smooth="yes"/>
      <point x="359.994" y="-22.0898"/>
      <point x="344.276" y="-21.3926"/>
      <point x="329.1" y="-20.1514" type="curve" smooth="yes"/>
      <point x="308.686" y="-18.499"/>
      <point x="288.977" y="-15.3672"/>
      <point x="270.448" y="-10.249" type="curve" smooth="yes"/>
      <point x="270.052" y="-10.1582"/>
      <point x="269.57" y="-10.0361"/>
      <point x="269.024" y="-9.89062" type="curve"/>
      <point x="267" y="-16.498" type="line" smooth="yes"/>
      <point x="259.889" y="-31.4854"/>
      <point x="253.279" y="-45.9814"/>
      <point x="243.854" y="-62.334" type="curve" smooth="yes"/>
      <point x="241.966" y="-65.5273"/>
      <point x="238.335" y="-72.0674"/>
      <point x="233.635" y="-78.082" type="curve" smooth="yes"/>
      <point x="227.775" y="-85.1328"/>
      <point x="221.065" y="-90.2969"/>
      <point x="214.541" y="-93.8496" type="curve" smooth="yes"/>
      <point x="212.159" y="-95.0957"/>
      <point x="202.07" y="-100.557"/>
      <point x="186.019" y="-100.557" type="curve" smooth="yes"/>
      <point x="177.444" y="-100.557"/>
      <point x="178.507" y="-99.9492"/>
      <point x="174.263" y="-99.6475" type="curve" smooth="yes"/>
      <point x="161.992" y="-98.7559"/>
      <point x="143.578" y="-96.1914"/>
      <point x="131.426" y="-95.7627" type="curve" smooth="yes"/>
      <point x="95.8633" y="-94.5088" type="line"/>
      <point x="111.689" y="-70.0088" type="line" smooth="yes"/>
      <point x="156.829" y="7.65234"/>
      <point x="190.198" y="89.457"/>
      <point x="252.766" y="170.799" type="curve"/>
      <point x="257.086" y="182.984"/>
      <point x="260.932" y="195.195"/>
      <point x="264.147" y="207.384" type="curve" smooth="yes"/>
      <point x="279.607" y="265.99"/>
      <point x="282.785" y="324.38"/>
      <point x="265.977" y="379.615" type="curve" smooth="yes"/>
      <point x="258.974" y="402.626"/>
      <point x="251.285" y="426.41"/>
      <point x="235.886" y="443.192" type="curve" smooth="yes"/>
      <point x="235.473" y="443.644" type="line"/>
      <point x="235.184" y="444.17" type="line" smooth="yes"/>
      <point x="227.567" y="457.447"/>
      <point x="216.403" y="470.71"/>
      <point x="205.769" y="485.572" type="curve" smooth="yes"/>
      <point x="199.578" y="495.389"/>
      <point x="192.56" y="505.304"/>
      <point x="184.963" y="514.855" type="curve" smooth="yes"/>
      <point x="178.777" y="523.031"/>
      <point x="180.081" y="520.728"/>
      <point x="178.425" y="523.157" type="curve" smooth="yes"/>
      <point x="175.769" y="527.854"/>
      <point x="173.296" y="533.798"/>
      <point x="173.175" y="542.026" type="curve" smooth="yes"/>
      <point x="173.15" y="544.571"/>
      <point x="173.983" y="551.429"/>
      <point x="175.045" y="555.451" type="curve" smooth="yes"/>
      <point x="176.369" y="560.475"/>
      <point x="178.18" y="564.188"/>
      <point x="179.158" y="566.881" type="curve" smooth="yes"/>
      <point x="191.791" y="601.767"/>
      <point x="217.168" y="629.013"/>
      <point x="238.8" y="652.049" type="curve" smooth="yes"/>
      <point x="247.994" y="661.849"/>
      <point x="256.75" y="672.836"/>
      <point x="270.963" y="683.785" type="curve" smooth="yes"/>
      <point x="294.362" y="701.029"/>
      <point x="331.149" y="705.544"/>
      <point x="355.375" y="705.544" type="curve" smooth="yes"/>
      <point x="377.772" y="705.544"/>
      <point x="391.133" y="702.961"/>
      <point x="398.307" y="700.707" type="curve" smooth="yes"/>
      <point x="404.587" y="698.85"/>
      <point x="408.644" y="697.092"/>
      <point x="413.412" y="690.362" type="curve" smooth="yes"/>
      <point x="417.225" y="683.771"/>
      <point x="419.016" y="675.872"/>
      <point x="420.177" y="672.143" type="curve" smooth="yes"/>
      <point x="425.714" y="653.133"/>
      <point x="429.737" y="633.432"/>
      <point x="431.339" y="612.286" type="curve" smooth="yes"/>
      <point x="436.355" y="543.538"/>
      <point x="430.315" y="470.381"/>
      <point x="416.377" y="398.745" type="curve" smooth="yes"/>
      <point x="403.432" y="331.642"/>
      <point x="385.258" y="265.326"/>
      <point x="372.38" y="200.553" type="curve"/>
      <point x="389.853" y="198.073"/>
      <point x="405.452" y="194.846"/>
      <point x="419.959" y="193.576" type="curve" smooth="yes"/>
      <point x="437.326" y="192.066"/>
      <point x="455.104" y="191.053"/>
      <point x="472.853" y="191.053" type="curve" smooth="yes"/>
      <point x="521.61" y="191.053"/>
      <point x="569.089" y="198.494"/>
      <point x="610.079" y="220.385" type="curve" smooth="yes"/>
      <point x="666.055" y="250.139"/>
      <point x="703.85" y="298.273"/>
      <point x="716.163" y="344.944" type="curve" smooth="yes"/>
      <point x="727.734" y="388.814"/>
      <point x="719.124" y="430.818"/>
      <point x="685.011" y="459.438" type="curve" smooth="yes"/>
      <point x="673.734" y="465.51"/>
      <point x="660.457" y="470.548"/>
      <point x="646.338" y="473.868" type="curve" smooth="yes"/>
      <point x="626.536" y="480.517"/>
      <point x="612.322" y="481.725"/>
      <point x="603.662" y="481.725" type="curve" smooth="yes"/>
      <point x="602.577" y="481.719" type="line" smooth="yes"/>
      <point x="566.445" y="481.414"/>
      <point x="536.893" y="469.977"/>
      <point x="484.396" y="456.592" type="curve" smooth="yes"/>
      <point x="459.803" y="448.732" type="line"/>
      <point x="452.815" y="467.252" type="line" smooth="yes"/>
      <point x="449.369" y="476.384"/>
      <point x="443.132" y="498.521"/>
    </contour>
  </outline>
</glyph>
<glyph name="afii57673" format="2">
  <advance width="367"/>
  <unicode hex="05D9"/>
  <outline>
    <contour>
      <point x="246.339" y="678.938" type="line"/>
      <point x="352.608" y="690.652" type="line"/>
      <point x="338.504" y="676.09" type="line"/>
      <point x="335.921" y="671.154"/>
      <point x="335.304" y="670.585"/>
      <point x="335.014" y="670.133" type="curve"/>
      <point x="333.769" y="657.16"/>
      <point x="333.542" y="647.136"/>
      <point x="335.519" y="643.318" type="curve" smooth="yes"/>
      <point x="351.75" y="614.68"/>
      <point x="410.403" y="606.921"/>
      <point x="446.135" y="585.539" type="curve" smooth="yes"/>
      <point x="470.519" y="571.961"/>
      <point x="491.57" y="552.121"/>
      <point x="490.901" y="523.633" type="curve" smooth="yes"/>
      <point x="490.772" y="517.45"/>
      <point x="489.588" y="511.511"/>
      <point x="488.153" y="506.075" type="curve" smooth="yes"/>
      <point x="485.732" y="496.901"/>
      <point x="482.875" y="488.377"/>
      <point x="480.345" y="480.731" type="curve" smooth="yes"/>
      <point x="455.043" y="404.637"/>
      <point x="406.28" y="331.83"/>
      <point x="342.92" y="272.643" type="curve" smooth="yes"/>
      <point x="342.54" y="272.312" type="line"/>
      <point x="342.129" y="272.015" type="line" smooth="yes"/>
      <point x="325.015" y="261.233"/>
      <point x="306.571" y="250.654"/>
      <point x="286.794" y="240.782" type="curve" smooth="yes"/>
      <point x="284.121" y="240.329" type="line"/>
      <point x="281.102" y="240.782" type="line" smooth="yes"/>
      <point x="274.152" y="241.854"/>
      <point x="266.483" y="243.002"/>
      <point x="254.683" y="243.641" type="curve"/>
      <point x="248.598" y="243.011"/>
      <point x="243.427" y="242.818"/>
      <point x="238.723" y="242.818" type="curve" smooth="yes"/>
      <point x="232.166" y="242.818"/>
      <point x="225.475" y="242.941"/>
      <point x="219.734" y="243.985" type="curve" smooth="yes"/>
      <point x="204.356" y="241.723"/>
      <point x="206.576" y="242.127"/>
      <point x="202.217" y="241.006" type="curve"/>
      <point x="197.676" y="240.174"/>
      <point x="193.401" y="239.231"/>
      <point x="191.109" y="238.852" type="curve" smooth="yes"/>
      <point x="187.74" y="238.295" type="line"/>
      <point x="185.556" y="240.062" type="line" smooth="yes"/>
      <point x="178.881" y="245.469"/>
      <point x="177.698" y="246.423"/>
      <point x="175.786" y="248.265" type="curve" smooth="yes"/>
      <point x="174.857" y="249.158"/>
      <point x="173.031" y="251.114"/>
      <point x="172.372" y="251.974" type="curve" smooth="yes"/>
      <point x="172.164" y="252.246" type="line"/>
      <point x="171.997" y="252.543" type="line" smooth="yes"/>
      <point x="171.309" y="253.769"/>
      <point x="170.294" y="256.265"/>
      <point x="170.003" y="257.203" type="curve" smooth="yes"/>
      <point x="169.433" y="259.025"/>
      <point x="168.871" y="262.287"/>
      <point x="168.771" y="263.615" type="curve" smooth="yes"/>
      <point x="168.572" y="266.233"/>
      <point x="169.195" y="270.986"/>
      <point x="169.681" y="272.829" type="curve" smooth="yes"/>
      <point x="170.092" y="274.388" type="line"/>
      <point x="171.128" y="275.797" type="line" smooth="yes"/>
      <point x="173.567" y="279.113"/>
      <point x="178.016" y="288.688"/>
      <point x="182.594" y="292.826" type="curve" smooth="yes"/>
      <point x="182.997" y="293.176" type="line"/>
      <point x="183.435" y="293.486" type="line" smooth="yes"/>
      <point x="189.443" y="297.725"/>
      <point x="193.379" y="299.376"/>
      <point x="195.935" y="300.866" type="curve" smooth="yes"/>
      <point x="209.238" y="308.622"/>
      <point x="222.896" y="317.759"/>
      <point x="236.593" y="327.194" type="curve" smooth="yes"/>
      <point x="246.521" y="334.033"/>
      <point x="303.819" y="371.755"/>
      <point x="311.656" y="401.461" type="curve" smooth="yes"/>
      <point x="312.264" y="403.763"/>
      <point x="313.147" y="407.71"/>
      <point x="312.015" y="412.571" type="curve"/>
      <point x="309.167" y="414.079"/>
      <point x="301.625" y="417.686"/>
      <point x="282.159" y="422.7" type="curve" smooth="yes"/>
      <point x="244.034" y="432.522"/>
      <point x="202.164" y="438.84"/>
      <point x="178.309" y="455.563" type="curve" smooth="yes"/>
      <point x="177.703" y="455.988" type="line"/>
      <point x="177.258" y="456.569" type="line" smooth="yes"/>
      <point x="158.171" y="481.627"/>
      <point x="156.856" y="516.915"/>
      <point x="167.114" y="555.801" type="curve" smooth="yes"/>
      <point x="176.479" y="591.304"/>
      <point x="200.955" y="627.707"/>
      <point x="212.243" y="644.438" type="curve" smooth="yes"/>
      <point x="219.478" y="655.482"/>
      <point x="230.849" y="671.28"/>
      <point x="235.626" y="680.226" type="curve" smooth="yes"/>
      <point x="238.827" y="683.903" type="line"/>
    </contour>
  </outline>
</glyph>
<glyph name="afii57676" format="2">
  <advance width="482"/>
  <unicode hex="05DC"/>
  <outline>
    <contour>
      <point x="540.38" y="491.874" type="curve" smooth="yes"/>
      <point x="547.258" y="451.16"/>
      <point x="539.409" y="410.355"/>
      <point x="530.998" y="371.211" type="curve" smooth="yes"/>
      <point x="529.44" y="364.001"/>
      <point x="527.652" y="356.769"/>
      <point x="525.76" y="349.596" type="curve" smooth="yes"/>
      <point x="497.968" y="244.25"/>
      <point x="433.844" y="138.188"/>
      <point x="333.628" y="56.8691" type="curve" smooth="yes"/>
      <point x="317.107" y="43.9424"/>
      <point x="296.243" y="29.7861"/>
      <point x="272.265" y="17.8896" type="curve" smooth="yes"/>
      <point x="249.354" y="6.40625"/>
      <point x="212.232" y="-9.3584"/>
      <point x="151.737" y="-24.8398" type="curve" smooth="yes"/>
      <point x="135.666" y="-28.9287"/>
      <point x="101.354" y="-36.6094"/>
      <point x="71.457" y="-36.6094" type="curve" smooth="yes"/>
      <point x="66.3623" y="-36.6094"/>
      <point x="60.9863" y="-36.3428"/>
      <point x="55.998" y="-35.7275" type="curve" smooth="yes"/>
      <point x="55.5527" y="-35.6758"/>
      <point x="46.7383" y="-35.3193"/>
      <point x="38.5781" y="-31.9404" type="curve" smooth="yes"/>
      <point x="38.0225" y="-31.6768" type="line"/>
      <point x="37.3916" y="-31.9404" type="line" smooth="yes"/>
      <point x="26.2695" y="-24.0693"/>
      <point x="24.0928" y="-11.8955"/>
      <point x="25.1172" y="2.91895" type="curve" smooth="yes"/>
      <point x="25.5576" y="8.46582"/>
      <point x="26.75" y="14.0664"/>
      <point x="28.1787" y="19.4814" type="curve" smooth="yes"/>
      <point x="35.1904" y="46.0605"/>
      <point x="47.1641" y="71.585"/>
      <point x="55.9805" y="92.793" type="curve" smooth="yes"/>
      <point x="60.8701" y="104.649"/>
      <point x="69.1348" y="130.25"/>
      <point x="84.8838" y="151.082" type="curve" smooth="yes"/>
      <point x="86.7793" y="153.666"/>
      <point x="94.7441" y="167.898"/>
      <point x="111.57" y="179.651" type="curve" smooth="yes"/>
      <point x="127.849" y="191.093"/>
      <point x="146.254" y="194.169"/>
      <point x="154.301" y="195.52" type="curve" smooth="yes"/>
      <point x="181.203" y="199.635"/>
      <point x="207.837" y="203.745"/>
      <point x="233.609" y="208.881" type="curve" smooth="yes"/>
      <point x="261.006" y="214.237"/>
      <point x="287.151" y="219.65"/>
      <point x="308.059" y="227.702" type="curve" smooth="yes"/>
      <point x="357.395" y="245.88"/>
      <point x="391.448" y="279.479"/>
      <point x="404.841" y="309.436" type="curve" smooth="yes"/>
      <point x="405.744" y="311.518"/>
      <point x="406.419" y="313.708"/>
      <point x="407.067" y="316.167" type="curve" smooth="yes"/>
      <point x="408.873" y="323.007"/>
      <point x="409.501" y="329.898"/>
      <point x="409.719" y="333.264" type="curve" smooth="yes"/>
      <point x="413.114" y="385.611"/>
      <point x="363.978" y="406.742"/>
      <point x="293.912" y="435.45" type="curve" smooth="yes"/>
      <point x="276.289" y="442.67"/>
      <point x="258.361" y="450.184"/>
      <point x="240.758" y="459.076" type="curve"/>
      <point x="230.108" y="455.99"/>
      <point x="228.506" y="455.51"/>
      <point x="225.616" y="454.436" type="curve" smooth="yes"/>
      <point x="220.755" y="452.629" type="line"/>
      <point x="218.044" y="455.697" type="line" smooth="yes"/>
      <point x="212.592" y="460.68"/>
      <point x="209.903" y="466.091"/>
      <point x="208.293" y="471.613" type="curve" smooth="yes"/>
      <point x="204.617" y="492.432"/>
      <point x="208.043" y="513.371"/>
      <point x="212.616" y="530.706" type="curve" smooth="yes"/>
      <point x="217.739" y="550.124"/>
      <point x="225.907" y="567.776"/>
      <point x="229.894" y="580.795" type="curve" smooth="yes"/>
      <point x="244.056" y="627.072"/>
      <point x="255.267" y="675.52"/>
      <point x="271.515" y="724.507" type="curve" smooth="yes"/>
      <point x="277.295" y="741.972"/>
      <point x="283.99" y="758.527"/>
      <point x="287.712" y="772.632" type="curve" smooth="yes"/>
      <point x="288.904" y="777.154"/>
      <point x="289.516" y="781.256"/>
      <point x="289.468" y="784.868" type="curve" smooth="yes"/>
      <point x="289.416" y="793.849"/>
      <point x="284.46" y="804.167"/>
      <point x="259.172" y="823.55" type="curve" smooth="yes"/>
      <point x="258.781" y="823.886" type="line"/>
      <point x="258.67" y="825.055" type="line" smooth="yes"/>
      <point x="251.694" y="835.148"/>
      <point x="238.423" y="847.924"/>
      <point x="235.57" y="866.873" type="curve" smooth="yes"/>
      <point x="235.515" y="867.195" type="line"/>
      <point x="235.67" y="868.203" type="line" smooth="yes"/>
      <point x="235.446" y="875.63"/>
      <point x="236.256" y="882.434"/>
      <point x="237.549" y="888.72" type="curve" smooth="yes"/>
      <point x="238.345" y="892.64"/>
      <point x="239.223" y="896.56"/>
      <point x="240.243" y="900.431" type="curve" smooth="yes"/>
      <point x="246.481" y="924.07"/>
      <point x="260.189" y="947.408"/>
      <point x="271.11" y="965.419" type="curve" smooth="yes"/>
      <point x="273.923" y="969.857"/>
      <point x="276.976" y="977.9"/>
      <point x="286.636" y="985.648" type="curve" smooth="yes"/>
      <point x="287.266" y="985.068" type="line"/>
      <point x="288.452" y="985.648" type="line" smooth="yes"/>
      <point x="289.545" y="986.181"/>
      <point x="292.195" y="987.014"/>
      <point x="294.073" y="987.924" type="curve" smooth="yes"/>
      <point x="306.024" y="993.3"/>
      <point x="320.853" y="997.29"/>
      <point x="336.943" y="997.29" type="curve" smooth="yes"/>
      <point x="368.006" y="997.29"/>
      <point x="404.672" y="977.704"/>
      <point x="420.634" y="971.159" type="curve" smooth="yes"/>
      <point x="431.723" y="966.602"/>
      <point x="444.089" y="961.618"/>
      <point x="456.447" y="954.779" type="curve" smooth="yes"/>
      <point x="460.702" y="952.532"/>
      <point x="485.85" y="942.837"/>
      <point x="493.366" y="928.354" type="curve" smooth="yes"/>
      <point x="494.013" y="927.388" type="line" smooth="yes"/>
      <point x="495.056" y="926.506"/>
      <point x="495.955" y="925.47"/>
      <point x="496.54" y="924.035" type="curve" smooth="yes"/>
      <point x="496.889" y="922.957"/>
      <point x="497.035" y="921.795"/>
      <point x="497.055" y="921.145" type="curve" smooth="yes"/>
      <point x="497.056" y="920.318"/>
      <point x="496.881" y="918.778"/>
      <point x="496.789" y="918.218" type="curve" smooth="yes"/>
      <point x="496.633" y="917.308"/>
      <point x="496.272" y="915.754"/>
      <point x="496.11" y="915.145" type="curve" smooth="yes"/>
      <point x="491.701" y="898.429"/>
      <point x="483.353" y="881.629"/>
      <point x="479.797" y="873.312" type="curve" smooth="yes"/>
      <point x="474.503" y="861.07"/>
      <point x="474.462" y="857.808"/>
      <point x="467.914" y="842.485" type="curve" smooth="yes"/>
      <point x="387.237" y="646.9" type="line"/>
      <point x="403.752" y="643.184"/>
      <point x="423.44" y="637.251"/>
      <point x="442.284" y="627.768" type="curve" smooth="yes"/>
      <point x="508.906" y="594.156"/>
      <point x="532.745" y="536.652"/>
    </contour>
  </outline>
</glyph>
<glyph name="afii57677" format="2">
  <advance width="675"/>
  <unicode hex="05DD"/>
  <outline>
    <contour>
      <point x="362.877" y="702.807" type="line"/>
      <point x="350.05" y="687.216" type="line"/>
      <point x="349.805" y="674.542"/>
      <point x="370.078" y="669.067"/>
      <point x="388.339" y="667.578" type="curve" smooth="yes"/>
      <point x="423.177" y="664.735"/>
      <point x="460.959" y="663.399"/>
      <point x="497.449" y="663.399" type="curve" smooth="yes"/>
      <point x="500.968" y="663.399"/>
      <point x="504.775" y="663.418"/>
      <point x="508.32" y="663.456" type="curve" smooth="yes"/>
      <point x="526.513" y="663.649"/>
      <point x="546.387" y="664.906"/>
      <point x="567.021" y="664.906" type="curve" smooth="yes"/>
      <point x="574.325" y="664.906"/>
      <point x="581.743" y="664.749"/>
      <point x="589.21" y="664.299" type="curve" smooth="yes"/>
      <point x="609.365" y="663.084"/>
      <point x="655.972" y="661.854"/>
      <point x="688.542" y="644.432" type="curve" smooth="yes"/>
      <point x="717.913" y="628.723"/>
      <point x="732.095" y="603.784"/>
      <point x="740.705" y="579.418" type="curve" smooth="yes"/>
      <point x="755.062" y="538.775"/>
      <point x="759.724" y="494.05"/>
      <point x="756.077" y="447.851" type="curve" smooth="yes"/>
      <point x="753.592" y="416.446"/>
      <point x="747.74" y="384.326"/>
      <point x="739.291" y="352.302" type="curve" smooth="yes"/>
      <point x="729.862" y="316.554"/>
      <point x="717.178" y="280.908"/>
      <point x="702.205" y="246.45" type="curve" smooth="yes"/>
      <point x="667.655" y="166.973"/>
      <point x="610.995" y="76.9199"/>
      <point x="513.219" y="19.708" type="curve" smooth="yes"/>
      <point x="455.407" y="-13.8057"/>
      <point x="388.214" y="-29.0439"/>
      <point x="326.091" y="-29.0439" type="curve" smooth="yes"/>
      <point x="276.944" y="-29.0439"/>
      <point x="230.861" y="-18.5703"/>
      <point x="193.683" y="1.95312" type="curve" smooth="yes"/>
      <point x="159.276" y="20.9453"/>
      <point x="129.333" y="52.1904"/>
      <point x="114.361" y="96.5752" type="curve" smooth="yes"/>
      <point x="95.8818" y="151.359"/>
      <point x="102.566" y="213.078"/>
      <point x="115.194" y="271.198" type="curve" smooth="yes"/>
      <point x="116.015" y="274.972"/>
      <point x="116.943" y="278.787"/>
      <point x="117.951" y="282.609" type="curve" smooth="yes"/>
      <point x="126.697" y="315.762"/>
      <point x="147.258" y="368.611"/>
      <point x="186.154" y="415.235" type="curve" smooth="yes"/>
      <point x="198.748" y="430.332"/>
      <point x="213.067" y="443.854"/>
      <point x="226.344" y="456.465" type="curve"/>
      <point x="224.03" y="457.725" type="line" smooth="yes"/>
      <point x="183.682" y="480.461"/>
      <point x="189.711" y="525.611"/>
      <point x="195.252" y="546.617" type="curve" smooth="yes"/>
      <point x="196.926" y="552.964"/>
      <point x="199.073" y="559.275"/>
      <point x="201.617" y="565.486" type="curve" smooth="yes"/>
      <point x="216.895" y="602.77"/>
      <point x="235.748" y="638.67"/>
      <point x="248.783" y="672.335" type="curve"/>
      <point x="241.664" y="679.172" type="line"/>
      <point x="255.854" y="691.978" type="line"/>
      <point x="260.192" y="704.487" type="line"/>
      <point x="270.678" y="705.355" type="line"/>
      <point x="282.211" y="715.764" type="line"/>
      <point x="291.037" y="706.748" type="line"/>
      <point x="313.939" y="708.736" type="line" smooth="yes"/>
      <point x="320.831" y="709.653"/>
      <point x="324.789" y="709.975"/>
      <point x="327.469" y="709.975" type="curve" smooth="yes"/>
      <point x="327.701" y="709.975"/>
      <point x="328.213" y="709.947"/>
      <point x="328.659" y="709.919" type="curve" smooth="yes"/>
      <point x="356.218" y="712.047" type="line"/>
      <point x="354.347" y="704.956" type="line"/>
    </contour>
    <contour>
      <point x="437.798" y="446.333" type="line" smooth="yes"/>
      <point x="428.87" y="448.98"/>
      <point x="418.998" y="450.321"/>
      <point x="408.723" y="450.321" type="curve" smooth="yes"/>
      <point x="391.761" y="450.321"/>
      <point x="373.719" y="446.628"/>
      <point x="357.266" y="439.7" type="curve" smooth="yes"/>
      <point x="330.506" y="428.433"/>
      <point x="306.24" y="407.626"/>
      <point x="292.988" y="384.988" type="curve" smooth="yes"/>
      <point x="265.799" y="324.019" type="line"/>
      <point x="253.552" y="269.869" type="line"/>
      <point x="269.896" y="225.526" type="line"/>
      <point x="271.771" y="223.239"/>
      <point x="273.824" y="220.968"/>
      <point x="276.021" y="218.702" type="curve" smooth="yes"/>
      <point x="282.012" y="212.523"/>
      <point x="288.521" y="205.858"/>
      <point x="294.514" y="198.037" type="curve" smooth="yes"/>
      <point x="296.853" y="194.986"/>
      <point x="298.476" y="193.159"/>
      <point x="299.814" y="192.37" type="curve" smooth="yes"/>
      <point x="300.696" y="191.851"/>
      <point x="301.456" y="191.507"/>
      <point x="307.93" y="189.274" type="curve" smooth="yes"/>
      <point x="317.021" y="186.139"/>
      <point x="324.312" y="182.236"/>
      <point x="330.596" y="179.003" type="curve" smooth="yes"/>
      <point x="332.622" y="177.96"/>
      <point x="334.625" y="176.984"/>
      <point x="336.613" y="176.086" type="curve"/>
      <point x="402.815" y="168.248" type="line"/>
      <point x="444.899" y="166.491" type="line"/>
      <point x="498.377" y="184.473" type="line"/>
      <point x="556.835" y="214.334" type="line"/>
      <point x="595.639" y="249.269" type="line"/>
      <point x="624.33" y="297.217" type="line"/>
      <point x="637.196" y="361.77" type="line"/>
      <point x="629.563" y="400.286" type="line"/>
      <point x="608.45" y="431.016" type="line"/>
      <point x="571.408" y="439.285" type="line"/>
      <point x="502.995" y="445.34" type="line"/>
      <point x="441.335" y="445.283" type="line"/>
    </contour>
  </outline>
</glyph>
<glyph name="afii57678" format="2">
  <advance width="763"/>
  <unicode hex="05DE"/>
  <outline>
    <contour>
      <point x="656.691" y="673.4" type="curve" smooth="yes"/>
      <point x="762.951" y="673.4"/>
      <point x="815.598" y="604.765"/>
      <point x="826.448" y="536.692" type="curve" smooth="yes"/>
      <point x="834.778" y="482.167"/>
      <point x="827.722" y="424.151"/>
      <point x="812.658" y="367.049" type="curve" smooth="yes"/>
      <point x="804.006" y="334.264"/>
      <point x="792.778" y="301.725"/>
      <point x="780.171" y="270.124" type="curve" smooth="yes"/>
      <point x="758.758" y="216.806"/>
      <point x="731.654" y="163.945"/>
      <point x="689.493" y="114.301" type="curve" smooth="yes"/>
      <point x="652.244" y="70.543"/>
      <point x="598.491" y="30.8877"/>
      <point x="532.907" y="4.78516" type="curve" smooth="yes"/>
      <point x="486.892" y="-13.4229"/>
      <point x="459.462" y="-16.5469"/>
      <point x="442.137" y="-16.5469" type="curve" smooth="yes"/>
      <point x="440.131" y="-16.5469"/>
      <point x="434.166" y="-16.3252"/>
      <point x="432.2" y="-16.1924" type="curve" smooth="yes"/>
      <point x="413.564" y="-14.9297"/>
      <point x="401.61" y="-14.1064"/>
      <point x="388.996" y="-9.99512" type="curve" smooth="yes"/>
      <point x="387.853" y="-9.63965"/>
      <point x="385.8" y="-8.97852"/>
      <point x="383.392" y="-7.99414" type="curve" smooth="yes"/>
      <point x="382.256" y="-7.53906"/>
      <point x="380.219" y="-6.69531"/>
      <point x="377.841" y="-5.41797" type="curve" smooth="yes"/>
      <point x="377.373" y="-5.20215"/>
      <point x="374.482" y="-4.20508"/>
      <point x="371.966" y="-2.15332" type="curve" smooth="yes"/>
      <point x="364.847" y="4.84375"/>
      <point x="364.46" y="4.84668"/>
      <point x="361.597" y="10.5713" type="curve" smooth="yes"/>
      <point x="353.571" y="27.541"/>
      <point x="359.519" y="48.542"/>
      <point x="360.573" y="56.46" type="curve" smooth="yes"/>
      <point x="361.058" y="60.0547"/>
      <point x="361.15" y="64.6543"/>
      <point x="362.785" y="70.8535" type="curve" smooth="yes"/>
      <point x="364.11" y="75.875"/>
      <point x="365.799" y="81.5762"/>
      <point x="369.712" y="87.6738" type="curve" smooth="yes"/>
      <point x="371.874" y="90.9521"/>
      <point x="373.907" y="94.9922"/>
      <point x="382.553" y="103.005" type="curve" smooth="yes"/>
      <point x="383.309" y="103.687"/>
      <point x="385.625" y="105.676"/>
      <point x="386.407" y="106.321" type="curve" smooth="yes"/>
      <point x="388.846" y="108.268"/>
      <point x="391.358" y="110.118"/>
      <point x="392.612" y="111.044" type="curve" smooth="yes"/>
      <point x="424.732" y="134.593"/>
      <point x="463.063" y="142.91"/>
      <point x="490.759" y="150.323" type="curve" smooth="yes"/>
      <point x="535.013" y="161.424"/>
      <point x="567.341" y="170.062"/>
      <point x="596.7" y="187.148" type="curve" smooth="yes"/>
      <point x="642.488" y="213.381"/>
      <point x="671.892" y="252.562"/>
      <point x="684.623" y="300.754" type="curve" smooth="yes"/>
      <point x="685.622" y="304.532" type="line" smooth="yes"/>
      <point x="691.354" y="326.263"/>
      <point x="691.938" y="333.972"/>
      <point x="691.452" y="340.749" type="curve" smooth="yes"/>
      <point x="690.607" y="352.531"/>
      <point x="685.958" y="371.425"/>
      <point x="670.365" y="394.898" type="curve" smooth="yes"/>
      <point x="663.706" y="404.922"/>
      <point x="648.282" y="428.609"/>
      <point x="624.771" y="436.521" type="curve" smooth="yes"/>
      <point x="603.981" y="443.518"/>
      <point x="581.116" y="446.821"/>
      <point x="557.097" y="446.821" type="curve" smooth="yes"/>
      <point x="530.266" y="446.821"/>
      <point x="502.001" y="442.668"/>
      <point x="474.061" y="434.931" type="curve" smooth="yes"/>
      <point x="462.768" y="431.802"/>
      <point x="451.753" y="428.268"/>
      <point x="440.991" y="424.327" type="curve"/>
      <point x="440.465" y="419.494"/>
      <point x="440.115" y="414.578"/>
      <point x="438.792" y="409.554" type="curve" smooth="yes"/>
      <point x="437.59" y="404.993"/>
      <point x="436.389" y="400.419"/>
      <point x="435.178" y="395.832" type="curve" smooth="yes"/>
      <point x="429.645" y="374.857"/>
      <point x="423.846" y="353.649"/>
      <point x="417.235" y="332.264" type="curve" smooth="yes"/>
      <point x="395.248" y="261.287"/>
      <point x="364.14" y="188.612"/>
      <point x="303.564" y="116.983" type="curve" smooth="yes"/>
      <point x="275.891" y="82.4707"/>
      <point x="248.555" y="41.5957"/>
      <point x="205.439" y="8.39551" type="curve" smooth="yes"/>
      <point x="170.297" y="-17.8838"/>
      <point x="142.127" y="-26.4883"/>
      <point x="125.648" y="-29.0791" type="curve" smooth="yes"/>
      <point x="119.326" y="-30.043"/>
      <point x="113.458" y="-30.3555"/>
      <point x="108.093" y="-30.3555" type="curve" smooth="yes"/>
      <point x="97.6221" y="-30.3555"/>
      <point x="87.334" y="-29.0283"/>
      <point x="75.2236" y="-25.4854" type="curve" smooth="yes"/>
      <point x="62.9121" y="-22.0254"/>
      <point x="48.0127" y="-16.1475"/>
      <point x="39.04" y="-3.04102" type="curve" smooth="yes"/>
      <point x="36.6826" y="0.180664"/>
      <point x="34.7168" y="3.99902"/>
      <point x="33.6045" y="8.42285" type="curve" smooth="yes"/>
      <point x="31.1396" y="19.0166"/>
      <point x="34.3418" y="30.5029"/>
      <point x="35.5566" y="35.1094" type="curve" smooth="yes"/>
      <point x="37.0791" y="40.8799"/>
      <point x="37.1797" y="40.9121"/>
      <point x="38.1201" y="44.4736" type="curve" smooth="yes"/>
      <point x="38.3896" y="45.501"/>
      <point x="38.6416" y="46.5283"/>
      <point x="39.0029" y="47.8994" type="curve" smooth="yes"/>
      <point x="39.0576" y="48.1094"/>
      <point x="39.2285" y="48.7393"/>
      <point x="39.2881" y="48.9492" type="curve" smooth="yes"/>
      <point x="40.377" y="52.7734"/>
      <point x="41.5264" y="57.4141"/>
      <point x="43.9443" y="63.3594" type="curve" smooth="yes"/>
      <point x="44.3594" y="64.3994"/>
      <point x="45.9521" y="68.0527"/>
      <point x="46.792" y="69.749" type="curve" smooth="yes"/>
      <point x="47.7666" y="71.7314"/>
      <point x="49.958" y="75.6045"/>
      <point x="50.7471" y="76.8633" type="curve" smooth="yes"/>
      <point x="52.1367" y="79.1074"/>
      <point x="55.0332" y="83.1094"/>
      <point x="56.2275" y="84.5723" type="curve" smooth="yes"/>
      <point x="73.3311" y="103.877"/>
      <point x="97.6807" y="117.508"/>
      <point x="108.345" y="125.21" type="curve" smooth="yes"/>
      <point x="131.212" y="141.304"/>
      <point x="154.462" y="159.329"/>
      <point x="188.949" y="178.374" type="curve" smooth="yes"/>
      <point x="214.246" y="191.776"/>
      <point x="274.534" y="229.763"/>
      <point x="294.87" y="306.844" type="curve" smooth="yes"/>
      <point x="297.91" y="318.368"/>
      <point x="299.782" y="329.645"/>
      <point x="300.629" y="340.297" type="curve" smooth="yes"/>
      <point x="304.108" y="384.082"/>
      <point x="281.36" y="417.84"/>
      <point x="246.898" y="441.555" type="curve" smooth="yes"/>
      <point x="227.741" y="452.998"/>
      <point x="215.595" y="465.214"/>
      <point x="203.521" y="477.736" type="curve" smooth="yes"/>
      <point x="195.078" y="489.314"/>
      <point x="184.937" y="504.365"/>
      <point x="186.384" y="525.093" type="curve" smooth="yes"/>
      <point x="186.539" y="526.959"/>
      <point x="187.402" y="532.209"/>
      <point x="188.145" y="535.02" type="curve" smooth="yes"/>
      <point x="190.59" y="544.288"/>
      <point x="196.695" y="553.631"/>
      <point x="199.194" y="558.188" type="curve" smooth="yes"/>
      <point x="211.561" y="581.211"/>
      <point x="228.201" y="603.381"/>
      <point x="247.703" y="622.937" type="curve" smooth="yes"/>
      <point x="253.959" y="629.129"/>
      <point x="272.021" y="649.072"/>
      <point x="297.581" y="660.472" type="curve" smooth="yes"/>
      <point x="297.958" y="660.312" type="line"/>
      <point x="298.445" y="660.473" type="line" smooth="yes"/>
      <point x="309.147" y="663.904"/>
      <point x="331.107" y="669.94"/>
      <point x="360.66" y="669.94" type="curve" smooth="yes"/>
      <point x="395.061" y="669.94"/>
      <point x="412.294" y="661.049"/>
      <point x="421.592" y="652.133" type="curve" smooth="yes"/>
      <point x="448.566" y="624.397"/>
      <point x="452.816" y="586.102"/>
      <point x="455.528" y="556.522" type="curve" smooth="yes"/>
      <point x="455.787" y="547.442" type="line"/>
      <point x="458.618" y="550.68" type="line" smooth="yes"/>
      <point x="484.231" y="579.235"/>
      <point x="512.912" y="608.853"/>
      <point x="546.936" y="636.15" type="curve" smooth="yes"/>
      <point x="560.842" y="647.012"/>
      <point x="572.945" y="658.169"/>
      <point x="590.064" y="665.637" type="curve" smooth="yes"/>
      <point x="590.317" y="665.773"/>
      <point x="591.059" y="666.252"/>
      <point x="591.308" y="666.399" type="curve" smooth="yes"/>
      <point x="591.601" y="666.499"/>
      <point x="592.487" y="666.785"/>
      <point x="592.787" y="666.873" type="curve" smooth="yes"/>
      <point x="593.157" y="666.979"/>
      <point x="594.287" y="667.266"/>
      <point x="594.668" y="667.35" type="curve" smooth="yes"/>
      <point x="595.106" y="667.451"/>
      <point x="596.354" y="667.698"/>
      <point x="596.89" y="667.786" type="curve" smooth="yes"/>
      <point x="613.05" y="671.528"/>
      <point x="609.215" y="670.966"/>
      <point x="617.133" y="671.468" type="curve" smooth="yes"/>
      <point x="618.342" y="671.547"/>
      <point x="620.928" y="671.662"/>
      <point x="622.093" y="671.698" type="curve" smooth="yes"/>
      <point x="626.6" y="671.867"/>
      <point x="628.89" y="671.854"/>
      <point x="630.906" y="672.085" type="curve" smooth="yes"/>
      <point x="639.74" y="672.969"/>
      <point x="648.337" y="673.4"/>
    </contour>
  </outline>
</glyph>
<glyph name="afii57679" format="2">
  <advance width="355"/>
  <unicode hex="05DF"/>
  <outline>
    <contour>
      <point x="185.839" y="493.098" type="curve" smooth="yes"/>
      <point x="185.722" y="493.417" type="line"/>
      <point x="185.819" y="494.408" type="line" smooth="yes"/>
      <point x="180.715" y="519.554"/>
      <point x="185.998" y="542.771"/>
      <point x="190.177" y="563.232" type="curve" smooth="yes"/>
      <point x="191.731" y="570.895"/>
      <point x="193.5" y="578.582"/>
      <point x="195.536" y="586.301" type="curve" smooth="yes"/>
      <point x="202.099" y="611.175"/>
      <point x="212.043" y="636.252"/>
      <point x="224.889" y="660.223" type="curve" smooth="yes"/>
      <point x="230.696" y="671.022"/>
      <point x="237.398" y="681.742"/>
      <point x="244.863" y="692.164" type="curve" smooth="yes"/>
      <point x="245.528" y="693.061"/>
      <point x="247.664" y="696.312"/>
      <point x="250.593" y="699.605" type="curve" smooth="yes"/>
      <point x="251" y="698.811" type="line"/>
      <point x="252.161" y="699.605" type="line" smooth="yes"/>
      <point x="256.765" y="702.107"/>
      <point x="261.29" y="703.269"/>
      <point x="263.664" y="703.78" type="curve" smooth="yes"/>
      <point x="271.273" y="705.656"/>
      <point x="276.932" y="705.866"/>
      <point x="281.349" y="705.866" type="curve" smooth="yes"/>
      <point x="282.461" y="705.866"/>
      <point x="283.414" y="705.852"/>
      <point x="284.415" y="705.852" type="curve" smooth="yes"/>
      <point x="285.477" y="705.852"/>
      <point x="286.216" y="705.705"/>
      <point x="287.307" y="705.929" type="curve" smooth="yes"/>
      <point x="297.966" y="707.028"/>
      <point x="309.793" y="708.54"/>
      <point x="322.476" y="708.54" type="curve" smooth="yes"/>
      <point x="345.886" y="708.54" type="line"/>
      <point x="346.622" y="708.54" type="line" smooth="yes"/>
      <point x="339.963" y="663.932"/>
      <point x="392.107" y="642.971"/>
      <point x="417.128" y="607.714" type="curve"/>
      <point x="421.084" y="604.768"/>
      <point x="441.929" y="589.946"/>
      <point x="442.759" y="571.28" type="curve" smooth="yes"/>
      <point x="443.13" y="557.853"/>
      <point x="440.517" y="543.949"/>
      <point x="436.963" y="530.486" type="curve" smooth="yes"/>
      <point x="428.737" y="499.304"/>
      <point x="415.296" y="468.693"/>
      <point x="403.324" y="442.159" type="curve" smooth="yes"/>
      <point x="373.115" y="375.208"/>
      <point x="337.203" y="310.164"/>
      <point x="317.947" y="247.487" type="curve" smooth="yes"/>
      <point x="316.509" y="242.802"/>
      <point x="315.171" y="238.098"/>
      <point x="313.923" y="233.368" type="curve" smooth="yes"/>
      <point x="309.882" y="218.053"/>
      <point x="307.135" y="202.725"/>
      <point x="305.796" y="187.949" type="curve" smooth="yes"/>
      <point x="304.037" y="169.742"/>
      <point x="305.451" y="160.876"/>
      <point x="302.558" y="142.577" type="curve" smooth="yes"/>
      <point x="291.171" y="70.1279"/>
      <point x="281.69" y="-2.47949"/>
      <point x="270.238" y="-75.7666" type="curve" smooth="yes"/>
      <point x="264.972" y="-109.364"/>
      <point x="262.808" y="-145.436"/>
      <point x="254.462" y="-183.258" type="curve" smooth="yes"/>
      <point x="254.159" y="-184.621"/>
      <point x="253.142" y="-188.735"/>
      <point x="252.781" y="-190.1" type="curve" smooth="yes"/>
      <point x="241.553" y="-232.662"/>
      <point x="203.544" y="-271.081"/>
      <point x="167.034" y="-296.514" type="curve" smooth="yes"/>
      <point x="159.754" y="-301.592"/>
      <point x="141.609" y="-314.91"/>
      <point x="123.164" y="-321.828" type="curve" smooth="yes"/>
      <point x="113.92" y="-325.178"/>
      <point x="98.0752" y="-328.399"/>
      <point x="75.0068" y="-328.399" type="curve" smooth="yes"/>
      <point x="74.6758" y="-328.399"/>
      <point x="72.9746" y="-328.557"/>
      <point x="71.6475" y="-328.557" type="curve" smooth="yes"/>
      <point x="71.2764" y="-328.557"/>
      <point x="70.6494" y="-328.487"/>
      <point x="70.2852" y="-328.472" type="curve" smooth="yes"/>
      <point x="63.6895" y="-328.227"/>
      <point x="60.6152" y="-328.239"/>
      <point x="54.5576" y="-327.113" type="curve" smooth="yes"/>
      <point x="52.9941" y="-326.786"/>
      <point x="49.625" y="-326.583"/>
      <point x="48.4795" y="-326.365" type="curve" smooth="yes"/>
      <point x="46.7266" y="-326.043" type="line"/>
      <point x="45.2119" y="-326.366" type="line" smooth="yes"/>
      <point x="44.1094" y="-325.459"/>
      <point x="40.0859" y="-323.276"/>
      <point x="37.9268" y="-317.871" type="curve" smooth="yes"/>
      <point x="34.1543" y="-306.123"/>
      <point x="38.4111" y="-290.298"/>
      <point x="40.2129" y="-283.47" type="curve" smooth="yes"/>
      <point x="41.4062" y="-278.945"/>
      <point x="42.3613" y="-275.585"/>
      <point x="43.2158" y="-272.348" type="curve" smooth="yes"/>
      <point x="54.4355" y="-229.815"/>
      <point x="64.75" y="-187.058"/>
      <point x="76.1572" y="-143.817" type="curve" smooth="yes"/>
      <point x="144.229" y="114.207" type="line" smooth="yes"/>
      <point x="150.615" y="138.419"/>
      <point x="156.201" y="163.299"/>
      <point x="162.918" y="188.764" type="curve" smooth="yes"/>
      <point x="170.422" y="217.209"/>
      <point x="179.357" y="246.46"/>
      <point x="192.816" y="276.233" type="curve" smooth="yes"/>
      <point x="218.064" y="332.085"/>
      <point x="254.933" y="373.202"/>
      <point x="287.872" y="422.539" type="curve"/>
      <point x="261.891" y="437.36" type="line" smooth="yes"/>
      <point x="237.396" y="447.894"/>
      <point x="198.456" y="461.936"/>
    </contour>
  </outline>
</glyph>
<glyph name="afii57681" format="2">
  <advance width="675"/>
  <unicode hex="05E1"/>
  <outline>
    <contour>
      <point x="444.637" y="440.82" type="line"/>
      <point x="361.183" y="439.028" type="line"/>
      <point x="334.144" y="412.472" type="line"/>
      <point x="308.054" y="383.74" type="line"/>
      <point x="280.088" y="354.031" type="line"/>
      <point x="265.944" y="333.775" type="line"/>
      <point x="258.562" y="298.625" type="line"/>
      <point x="262.9" y="260.132" type="line"/>
      <point x="277.313" y="219.211" type="line"/>
      <point x="294.764" y="199.054" type="line"/>
      <point x="314.851" y="187.923" type="line"/>
      <point x="332.226" y="177.2" type="line"/>
      <point x="379.967" y="167.944" type="line"/>
      <point x="423.058" y="166.105" type="line"/>
      <point x="466.308" y="175.152" type="line"/>
      <point x="509.125" y="191.32" type="line"/>
      <point x="560.547" y="226.79" type="line"/>
      <point x="591.856" y="270.543" type="line"/>
      <point x="617.19" y="341.831" type="line"/>
      <point x="623.039" y="379.252" type="line"/>
      <point x="617.939" y="399.051" type="line"/>
      <point x="601.496" y="420.166" type="line"/>
      <point x="574.995" y="433.45" type="line"/>
      <point x="520.238" y="442.835" type="line"/>
    </contour>
    <contour>
      <point x="230.516" y="451.056" type="curve" smooth="yes"/>
      <point x="234.708" y="454.788" type="line"/>
      <point x="233.035" y="455.823" type="line" smooth="yes"/>
      <point x="207.178" y="472.491"/>
      <point x="197.061" y="488.012"/>
      <point x="198.808" y="514.296" type="curve" smooth="yes"/>
      <point x="199.511" y="524.859"/>
      <point x="201.435" y="535.239"/>
      <point x="204.094" y="545.319" type="curve" smooth="yes"/>
      <point x="213.188" y="579.79"/>
      <point x="230.265" y="611.039"/>
      <point x="241.11" y="638.82" type="curve" smooth="yes"/>
      <point x="252.511" y="668.021" type="line" smooth="yes"/>
      <point x="253.05" y="669.879"/>
      <point x="253.838" y="672.65"/>
      <point x="254.318" y="673.783" type="curve" smooth="yes"/>
      <point x="257.628" y="681.569"/>
      <point x="260.575" y="686.908"/>
      <point x="267.286" y="692.412" type="curve" smooth="yes"/>
      <point x="267.481" y="692.571"/>
      <point x="267.796" y="692.829"/>
      <point x="268.279" y="693.192" type="curve" smooth="yes"/>
      <point x="268.46" y="693.33"/>
      <point x="268.783" y="693.57"/>
      <point x="269.199" y="693.856" type="curve" smooth="yes"/>
      <point x="269.38" y="693.978"/>
      <point x="269.799" y="694.256"/>
      <point x="270.116" y="694.445" type="curve" smooth="yes"/>
      <point x="275.141" y="697.462"/>
      <point x="281.1" y="702.807"/>
      <point x="296.916" y="705.733" type="curve" smooth="yes"/>
      <point x="311.066" y="708.302"/>
      <point x="325.128" y="706.517"/>
      <point x="332.279" y="707.945" type="curve" smooth="yes"/>
      <point x="357.559" y="712.992" type="line"/>
      <point x="360.736" y="696.306" type="line" smooth="yes"/>
      <point x="363.645" y="681.028"/>
      <point x="361.002" y="677.677"/>
      <point x="364.949" y="674.312" type="curve" smooth="yes"/>
      <point x="369.59" y="670.355"/>
      <point x="378.536" y="668.511"/>
      <point x="401.301" y="667.585" type="curve" smooth="yes"/>
      <point x="414.096" y="667.066"/>
      <point x="427.401" y="666.876"/>
      <point x="440.947" y="666.876" type="curve" smooth="yes"/>
      <point x="452.746" y="666.876"/>
      <point x="464.836" y="667.023"/>
      <point x="477.096" y="667.023" type="curve" smooth="yes"/>
      <point x="483.426" y="667.023"/>
      <point x="489.927" y="667.038"/>
      <point x="496.559" y="667.038" type="curve" smooth="yes"/>
      <point x="569.431" y="667.038"/>
      <point x="684.343" y="668.209"/>
      <point x="727.79" y="598.019" type="curve" smooth="yes"/>
      <point x="753.641" y="554.88"/>
      <point x="747.453" y="492.044"/>
      <point x="743.54" y="449.211" type="curve" smooth="yes"/>
      <point x="740.201" y="412.699"/>
      <point x="733.705" y="374.232"/>
      <point x="723.45" y="335.346" type="curve" smooth="yes"/>
      <point x="702.072" y="254.319"/>
      <point x="660.252" y="152.901"/>
      <point x="575.383" y="72.6191" type="curve" smooth="yes"/>
      <point x="523.32" y="24.417"/>
      <point x="453.329" y="-18.8096"/>
      <point x="373.552" y="-27.7188" type="curve" smooth="yes"/>
      <point x="360.971" y="-29.124"/>
      <point x="348.677" y="-29.8848"/>
      <point x="336.727" y="-29.8848" type="curve" smooth="yes"/>
      <point x="267.244" y="-29.8848"/>
      <point x="212.892" y="-4.74121"/>
      <point x="181.385" y="42.4414" type="curve" smooth="yes"/>
      <point x="175.928" y="52.4336" type="line"/>
      <point x="175.681" y="39.2871"/>
      <point x="176.142" y="25.8389"/>
      <point x="176.529" y="12.4609" type="curve" smooth="yes"/>
      <point x="176.853" y="1.25"/>
      <point x="179.538" y="-24.1133"/>
      <point x="173.263" y="-47.9023" type="curve" smooth="yes"/>
      <point x="170.339" y="-58.9863"/>
      <point x="165.272" y="-70.8379"/>
      <point x="157.22" y="-82.6074" type="curve" smooth="yes"/>
      <point x="131.698" y="-119.903"/>
      <point x="96.2188" y="-125.802"/>
      <point x="66.6172" y="-125.802" type="curve" smooth="yes"/>
      <point x="66.3936" y="-125.802"/>
      <point x="65.7197" y="-125.804"/>
      <point x="65.4971" y="-125.804" type="curve" smooth="yes"/>
      <point x="65.3916" y="-125.804"/>
      <point x="65.0791" y="-125.804"/>
      <point x="64.9736" y="-125.802" type="curve" smooth="yes"/>
      <point x="60.041" y="-125.727"/>
      <point x="54.1328" y="-125.852"/>
      <point x="47.0537" y="-124.552" type="curve" smooth="yes"/>
      <point x="46.1553" y="-124.387"/>
      <point x="42.9404" y="-123.652"/>
      <point x="41.4189" y="-123.179" type="curve" smooth="yes"/>
      <point x="39.7207" y="-122.65"/>
      <point x="36.5205" y="-121.298"/>
      <point x="35.416" y="-120.714" type="curve" smooth="yes"/>
      <point x="33.292" y="-119.589"/>
      <point x="30.0449" y="-117.21"/>
      <point x="29.0322" y="-116.045" type="curve" smooth="yes"/>
      <point x="28.1084" y="-114.98"/>
      <point x="24.5518" y="-112.07"/>
      <point x="21.3672" y="-104.108" type="curve" smooth="yes"/>
      <point x="20.6729" y="-102.374"/>
      <point x="20.1807" y="-100.811"/>
      <point x="19.9229" y="-99.9541" type="curve" smooth="yes"/>
      <point x="16.6357" y="-89.0068"/>
      <point x="16.7109" y="-76.167"/>
      <point x="16.9717" y="-69.998" type="curve" smooth="yes"/>
      <point x="17.3506" y="-60.9971"/>
      <point x="18.8936" y="-52.0654"/>
      <point x="21.1836" y="-43.3838" type="curve" smooth="yes"/>
      <point x="32.3965" y="-0.880859"/>
      <point x="66.5479" y="42.4375"/>
      <point x="78.4443" y="77.3691" type="curve" smooth="yes"/>
      <point x="101.725" y="145.729"/>
      <point x="117.723" y="216.502"/>
      <point x="139.825" y="288.035" type="curve" smooth="yes"/>
      <point x="142.061" y="295.269"/>
      <point x="144.083" y="302.775"/>
      <point x="146.128" y="310.525" type="curve" smooth="yes"/>
      <point x="146.803" y="313.083"/>
      <point x="147.48" y="315.668"/>
      <point x="148.168" y="318.278" type="curve" smooth="yes"/>
      <point x="151.631" y="331.399"/>
      <point x="155.369" y="345.161"/>
      <point x="160.558" y="359.437" type="curve" smooth="yes"/>
      <point x="160.652" y="359.698"/>
      <point x="160.88" y="360.486"/>
      <point x="160.949" y="360.749" type="curve" smooth="yes"/>
      <point x="161.462" y="362.691"/>
      <point x="161.923" y="365.132"/>
      <point x="162.815" y="368.519" type="curve" smooth="yes"/>
      <point x="164.192" y="373.736"/>
      <point x="165.812" y="377.792"/>
      <point x="167.818" y="381.564" type="curve" smooth="yes"/>
      <point x="182.63" y="409.402"/>
      <point x="218.872" y="440.461"/>
    </contour>
  </outline>
</glyph>
<glyph name="afii57685" format="2">
  <advance width="521"/>
  <unicode hex="05E5"/>
  <outline>
    <contour>
      <point x="652.622" y="623.716" type="curve" smooth="yes"/>
      <point x="638.325" y="569.522"/>
      <point x="608" y="510.062"/>
      <point x="553.551" y="471.084" type="curve" smooth="yes"/>
      <point x="552.539" y="470.359" type="line"/>
      <point x="551.421" y="469.921" type="line" smooth="yes"/>
      <point x="531.552" y="462.155"/>
      <point x="507.909" y="457.785"/>
      <point x="482.929" y="453.284" type="curve" smooth="yes"/>
      <point x="472.154" y="451.343"/>
      <point x="466.704" y="450.228"/>
      <point x="463.567" y="449.496" type="curve"/>
      <point x="461.251" y="444.116"/>
      <point x="458.33" y="434.511"/>
      <point x="455.708" y="428.511" type="curve" smooth="yes"/>
      <point x="430.435" y="370.662"/>
      <point x="410.43" y="311.97"/>
      <point x="394.939" y="253.254" type="curve" smooth="yes"/>
      <point x="389.532" y="232.755"/>
      <point x="384.697" y="212.248"/>
      <point x="380.389" y="191.774" type="curve" smooth="yes"/>
      <point x="375.294" y="167.565"/>
      <point x="368.161" y="144.932"/>
      <point x="365.165" y="124.738" type="curve" smooth="yes"/>
      <point x="362.945" y="109.711"/>
      <point x="364.872" y="85.8555"/>
      <point x="364.046" y="70.6611" type="curve" smooth="yes"/>
      <point x="360.765" y="14.2812"/>
      <point x="357.522" y="-45.0742"/>
      <point x="341.546" y="-105.637" type="curve" smooth="yes"/>
      <point x="338.957" y="-115.451"/>
      <point x="335.975" y="-125.292"/>
      <point x="332.504" y="-135.148" type="curve" smooth="yes"/>
      <point x="323.575" y="-160.422"/>
      <point x="306.427" y="-181.855"/>
      <point x="292.442" y="-200.87" type="curve" smooth="yes"/>
      <point x="271.973" y="-229.132"/>
      <point x="250.709" y="-257.492"/>
      <point x="226.156" y="-284.957" type="curve" smooth="yes"/>
      <point x="214.13" y="-298.208"/>
      <point x="200.228" y="-309.946"/>
      <point x="186.575" y="-320.898" type="curve" smooth="yes"/>
      <point x="180.051" y="-326.142"/>
      <point x="177.919" y="-327.958"/>
      <point x="175.678" y="-329.624" type="curve" smooth="yes"/>
      <point x="175.367" y="-329.312" type="line"/>
      <point x="174.843" y="-329.622" type="line" smooth="yes"/>
      <point x="174.238" y="-329.934"/>
      <point x="171.657" y="-331.224"/>
      <point x="170.438" y="-331.752" type="curve" smooth="yes"/>
      <point x="169.719" y="-332.053"/>
      <point x="166.709" y="-333.127"/>
      <point x="165.211" y="-333.602" type="curve" smooth="yes"/>
      <point x="164.612" y="-333.452" type="line"/>
      <point x="163.896" y="-333.602" type="line" smooth="yes"/>
      <point x="163.31" y="-333.728"/>
      <point x="160.54" y="-334.137"/>
      <point x="158.529" y="-334.63" type="curve" smooth="yes"/>
      <point x="154.8" y="-335.462"/>
      <point x="148.896" y="-337.114"/>
      <point x="146.576" y="-337.412" type="curve" smooth="yes"/>
      <point x="141.726" y="-338.008"/>
      <point x="137.131" y="-338.166"/>
      <point x="133.462" y="-338.11" type="curve" smooth="yes"/>
      <point x="132.499" y="-338.095"/>
      <point x="122.764" y="-338.282"/>
      <point x="112.201" y="-335.769" type="curve" smooth="yes"/>
      <point x="111.68" y="-335.633" type="line"/>
      <point x="111.114" y="-335.77" type="line" smooth="yes"/>
      <point x="98.7676" y="-330.597"/>
      <point x="91.7129" y="-321.314"/>
      <point x="89.0986" y="-317.931" type="curve" smooth="yes"/>
      <point x="67.9902" y="-288.486"/>
      <point x="73.3594" y="-246.244"/>
      <point x="75.6514" y="-223.087" type="curve" smooth="yes"/>
      <point x="77.626" y="-203.752"/>
      <point x="81.4424" y="-184.646"/>
      <point x="86.4111" y="-165.813" type="curve" smooth="yes"/>
      <point x="102.127" y="-106.239"/>
      <point x="128.101" y="-48.9941"/>
      <point x="153.471" y="7.83984" type="curve" smooth="yes"/>
      <point x="176.452" y="59.1436"/>
      <point x="197.62" y="111.452"/>
      <point x="219.009" y="163.715" type="curve" smooth="yes"/>
      <point x="245.317" y="227.923"/>
      <point x="273.702" y="291.587"/>
      <point x="299.682" y="354.941" type="curve" smooth="yes"/>
      <point x="310.508" y="381.391"/>
      <point x="320.115" y="410.786"/>
      <point x="333.463" y="440.411" type="curve"/>
      <point x="278.351" y="442.387"/>
      <point x="212.544" y="450.387"/>
      <point x="181.689" y="480.531" type="curve" smooth="yes"/>
      <point x="181.332" y="480.938" type="line"/>
      <point x="181.31" y="482.307" type="line" smooth="yes"/>
      <point x="165.273" y="514.194"/>
      <point x="168.177" y="555.058"/>
      <point x="178.251" y="593.241" type="curve" smooth="yes"/>
      <point x="182.767" y="610.356"/>
      <point x="189.746" y="627.302"/>
      <point x="198.626" y="642.665" type="curve" smooth="yes"/>
      <point x="205.114" y="653.666"/>
      <point x="218.082" y="671.62"/>
      <point x="235.98" y="683.378" type="curve" smooth="yes"/>
      <point x="236.217" y="683.146" type="line"/>
      <point x="236.601" y="683.366" type="line" smooth="yes"/>
      <point x="237.389" y="683.77"/>
      <point x="237.854" y="684.072"/>
      <point x="240.689" y="685.318" type="curve" smooth="yes"/>
      <point x="241.536" y="685.679"/>
      <point x="242.134" y="685.977"/>
      <point x="245.176" y="687.005" type="curve" smooth="yes"/>
      <point x="246.185" y="687.349"/>
      <point x="246.969" y="687.629"/>
      <point x="249.961" y="688.409" type="curve" smooth="yes"/>
      <point x="250.687" y="688.337" type="line"/>
      <point x="251.487" y="688.409" type="line" smooth="yes"/>
      <point x="253.711" y="688.6"/>
      <point x="260.341" y="688.852"/>
      <point x="262.524" y="688.852" type="curve" smooth="yes"/>
      <point x="262.99" y="688.852" type="line"/>
      <point x="263.45" y="688.852" type="line" smooth="yes"/>
      <point x="266.162" y="688.5"/>
      <point x="274.519" y="687.922"/>
      <point x="277.109" y="687.342" type="curve" smooth="yes"/>
      <point x="278.074" y="687.108" type="line"/>
      <point x="279.047" y="687.342" type="line" smooth="yes"/>
      <point x="285.682" y="683.032"/>
      <point x="294.28" y="671.524"/>
      <point x="294.5" y="671.32" type="curve" smooth="yes"/>
      <point x="311.831" y="653.448"/>
      <point x="334.721" y="640.793"/>
      <point x="361.369" y="634.728" type="curve" smooth="yes"/>
      <point x="382.91" y="629.917"/>
      <point x="407.653" y="627.354"/>
      <point x="433.009" y="627.354" type="curve" smooth="yes"/>
      <point x="465.061" y="627.354"/>
      <point x="498.218" y="631.802"/>
      <point x="527.38" y="640.862" type="curve" smooth="yes"/>
      <point x="558.288" y="650.448"/>
      <point x="593.695" y="671.312"/>
      <point x="619.701" y="691.04" type="curve" smooth="yes"/>
      <point x="645.604" y="709.289" type="line"/>
      <point x="656.105" y="690.955" type="line" smooth="yes"/>
      <point x="663.874" y="675.273"/>
      <point x="658.328" y="651.539"/>
      <point x="656.432" y="640.854" type="curve" smooth="yes"/>
      <point x="655.411" y="635.218"/>
      <point x="654.152" y="629.517"/>
    </contour>
  </outline>
</glyph>
<glyph name="afii57686" format="2">
  <advance width="483"/>
  <unicode hex="05E6"/>
  <outline>
    <contour>
      <point x="541.818" y="430.986" type="curve" smooth="yes"/>
      <point x="538.507" y="402.589"/>
      <point x="532.779" y="373.611"/>
      <point x="525.122" y="344.583" type="curve" smooth="yes"/>
      <point x="500.872" y="252.666"/>
      <point x="454.716" y="157.395"/>
      <point x="376.624" y="80.5771" type="curve" smooth="yes"/>
      <point x="334.914" y="41.5449"/>
      <point x="257.202" y="-4.02246"/>
      <point x="176.57" y="-22.7627" type="curve" smooth="yes"/>
      <point x="153.652" y="-28.085"/>
      <point x="125.571" y="-29.5371"/>
      <point x="113.677" y="-30.624" type="curve" smooth="yes"/>
      <point x="103.591" y="-31.5713"/>
      <point x="90.4375" y="-33.9941"/>
      <point x="76.4746" y="-33.9941" type="curve" smooth="yes"/>
      <point x="72.4033" y="-33.9941"/>
      <point x="67.667" y="-33.8721"/>
      <point x="63.4844" y="-33.3213" type="curve" smooth="yes"/>
      <point x="61.2734" y="-33.041"/>
      <point x="53.8184" y="-32.8545"/>
      <point x="45.9609" y="-29.4131" type="curve" smooth="yes"/>
      <point x="45.2393" y="-29.0459" type="line"/>
      <point x="44.4424" y="-29.4131" type="line" smooth="yes"/>
      <point x="32.1113" y="-18.4922"/>
      <point x="33.3193" y="1.11523"/>
      <point x="33.6973" y="6.2373" type="curve" smooth="yes"/>
      <point x="34.2686" y="13.043"/>
      <point x="35.6797" y="19.6953"/>
      <point x="37.3398" y="25.9893" type="curve" smooth="yes"/>
      <point x="40.8047" y="39.1211"/>
      <point x="45.1357" y="51.3398"/>
      <point x="48.8291" y="62.6611" type="curve" smooth="yes"/>
      <point x="58.2998" y="91.8252"/>
      <point x="67.3193" y="128.873"/>
      <point x="95.2637" y="160.436" type="curve" smooth="yes"/>
      <point x="98.1309" y="163.806"/>
      <point x="110.075" y="181.402"/>
      <point x="131.697" y="190.4" type="curve" smooth="yes"/>
      <point x="138.79" y="193.315"/>
      <point x="144.628" y="194.194"/>
      <point x="149.997" y="195.604" type="curve" smooth="yes"/>
      <point x="211.098" y="207.995" type="line" smooth="yes"/>
      <point x="290.765" y="220.532"/>
      <point x="351.786" y="234.637"/>
      <point x="385.544" y="271.175" type="curve" smooth="yes"/>
      <point x="398.962" y="286.784"/>
      <point x="407.134" y="305.484"/>
      <point x="411.956" y="323.761" type="curve" smooth="yes"/>
      <point x="423.707" y="368.307"/>
      <point x="409.607" y="409.477"/>
      <point x="362.627" y="424.548" type="curve" smooth="yes"/>
      <point x="334.161" y="433.68"/>
      <point x="300.455" y="438.282"/>
      <point x="265.69" y="445.477" type="curve" smooth="yes"/>
      <point x="259.77" y="446.701"/>
      <point x="228.04" y="451.252"/>
      <point x="215.107" y="465.091" type="curve"/>
      <point x="213.357" y="465.522"/>
      <point x="210.593" y="466.313"/>
      <point x="207.646" y="467.661" type="curve" smooth="yes"/>
      <point x="205.34" y="468.716" type="line"/>
      <point x="204.873" y="471.264" type="line" smooth="yes"/>
      <point x="204.543" y="471.752"/>
      <point x="204.021" y="472.688"/>
      <point x="203.414" y="473.673" type="curve" smooth="yes"/>
      <point x="201.873" y="484.914"/>
      <point x="202.548" y="496.927"/>
      <point x="202.791" y="502.884" type="curve" smooth="yes"/>
      <point x="203.51" y="521.514"/>
      <point x="206.403" y="541.166"/>
      <point x="211.631" y="560.979" type="curve" smooth="yes"/>
      <point x="215.049" y="573.932"/>
      <point x="220.087" y="586.954"/>
      <point x="226.854" y="599.614" type="curve" smooth="yes"/>
      <point x="245.738" y="635.067"/>
      <point x="274.621" y="655.82"/>
      <point x="300.678" y="676.918" type="curve" smooth="yes"/>
      <point x="325.059" y="696.878"/>
      <point x="347.724" y="718.893"/>
      <point x="368.763" y="740.698" type="curve" smooth="yes"/>
      <point x="390.293" y="762.244"/>
      <point x="414.788" y="798.189"/>
      <point x="466.442" y="814.87" type="curve" smooth="yes"/>
      <point x="493.798" y="823.697"/>
      <point x="524.633" y="827.631"/>
      <point x="554.227" y="827.631" type="curve" smooth="yes"/>
      <point x="575.307" y="827.631"/>
      <point x="592.731" y="824.691"/>
      <point x="608.278" y="818.972" type="curve" smooth="yes"/>
      <point x="628.067" y="812.469"/>
      <point x="648.722" y="799.176"/>
      <point x="643.082" y="777.791" type="curve" smooth="yes"/>
      <point x="640.688" y="768.719"/>
      <point x="637.292" y="759.325"/>
      <point x="632.566" y="750.295" type="curve" smooth="yes"/>
      <point x="614.79" y="716.597"/>
      <point x="589.383" y="699.032"/>
      <point x="561.531" y="680.575" type="curve" smooth="yes"/>
      <point x="515.334" y="651.16"/>
      <point x="460.466" y="642.89"/>
      <point x="415.826" y="618.928" type="curve"/>
      <point x="428.209" y="617.496"/>
      <point x="440.675" y="615.498"/>
      <point x="450.688" y="611.905" type="curve" smooth="yes"/>
      <point x="539.995" y="578.57"/>
      <point x="549.321" y="498.396"/>
    </contour>
  </outline>
</glyph>
<glyph name="afii57687" format="2">
  <advance width="675"/>
  <unicode hex="05E7"/>
  <outline>
    <contour>
      <point x="329.031" y="398.358" type="line" smooth="yes"/>
      <point x="304.733" y="357.731"/>
      <point x="289.43" y="312.973"/>
      <point x="275.231" y="267.882" type="curve" smooth="yes"/>
      <point x="270.421" y="252.606"/>
      <point x="265.838" y="237.325"/>
      <point x="261.846" y="222.197" type="curve" smooth="yes"/>
      <point x="257.261" y="204.813"/>
      <point x="253.459" y="187.614"/>
      <point x="250.901" y="170.853" type="curve" smooth="yes"/>
      <point x="245.326" y="134.313"/>
      <point x="246.601" y="95.8887"/>
      <point x="243.798" y="55.6475" type="curve" smooth="yes"/>
      <point x="238.616" y="-18.7803"/>
      <point x="230.982" y="-94.6729"/>
      <point x="210.58" y="-172.007" type="curve" smooth="yes"/>
      <point x="208.859" y="-178.533"/>
      <point x="207.045" y="-185.078"/>
      <point x="205.129" y="-191.634" type="curve" smooth="yes"/>
      <point x="202.717" y="-199.887"/>
      <point x="197.598" y="-223.386"/>
      <point x="186.423" y="-242.229" type="curve" smooth="yes"/>
      <point x="163.213" y="-281.367"/>
      <point x="114.794" y="-309.416"/>
      <point x="87.002" y="-324.072" type="curve" smooth="yes"/>
      <point x="70.6416" y="-332.699"/>
      <point x="50.5713" y="-342.309"/>
      <point x="29.4893" y="-342.309" type="curve" smooth="yes"/>
      <point x="12.5967" y="-342.309"/>
      <point x="3.0293" y="-335.67"/>
      <point x="-1.53711" y="-331.853" type="curve" smooth="yes"/>
      <point x="-2.03027" y="-331.439" type="line"/>
      <point x="-2.39453" y="-330.912" type="line" smooth="yes"/>
      <point x="-5.57031" y="-326.305"/>
      <point x="-12.6768" y="-321.274"/>
      <point x="-12.2109" y="-303.259" type="curve" smooth="yes"/>
      <point x="-11.874" y="-290.187"/>
      <point x="-8.24316" y="-279.837"/>
      <point x="-6.82129" y="-271.543" type="curve" smooth="yes"/>
      <point x="-5.53613" y="-264.052"/>
      <point x="-3.88965" y="-256.771"/>
      <point x="-2.00488" y="-249.627" type="curve" smooth="yes"/>
      <point x="2.40625" y="-232.906"/>
      <point x="7.89844" y="-217.229"/>
      <point x="12.3906" y="-202.558" type="curve" smooth="yes"/>
      <point x="13.4805" y="-198.997"/>
      <point x="14.5107" y="-195.338"/>
      <point x="15.498" y="-191.596" type="curve" smooth="yes"/>
      <point x="19.8623" y="-175.053"/>
      <point x="23.2559" y="-157.021"/>
      <point x="27.2451" y="-138.929" type="curve" smooth="yes"/>
      <point x="31.5098" y="-119.58"/>
      <point x="36.3047" y="-100.301"/>
      <point x="41.3662" y="-81.1162" type="curve" smooth="yes"/>
      <point x="54.127" y="-32.7432"/>
      <point x="68.6338" y="15.1064"/>
      <point x="81.3096" y="62.2881" type="curve" smooth="yes"/>
      <point x="82.3291" y="66.0869"/>
      <point x="83.3408" y="69.8936"/>
      <point x="84.3477" y="73.709" type="curve" smooth="yes"/>
      <point x="88.9805" y="91.2686"/>
      <point x="93.5039" y="109.027"/>
      <point x="98.2285" y="126.937" type="curve" smooth="yes"/>
      <point x="111.58" y="177.547"/>
      <point x="126.489" y="229.447"/>
      <point x="150.628" y="281.486" type="curve" smooth="yes"/>
      <point x="166.966" y="316.712"/>
      <point x="187.052" y="350.671"/>
      <point x="210.462" y="383.461" type="curve" smooth="yes"/>
      <point x="217.223" y="392.931"/>
      <point x="223.089" y="402.998"/>
      <point x="231.617" y="412.085" type="curve" smooth="yes"/>
      <point x="237.077" y="417.904"/>
      <point x="242.392" y="421.974"/>
      <point x="247.523" y="424.777" type="curve" smooth="yes"/>
      <point x="255.545" y="429.16"/>
      <point x="262.992" y="429.935"/>
      <point x="268.443" y="429.935" type="curve" smooth="yes"/>
      <point x="273.037" y="429.935"/>
      <point x="275.243" y="429.592"/>
      <point x="276.01" y="429.592" type="curve" smooth="yes"/>
      <point x="347.712" y="429.592" type="line"/>
    </contour>
    <contour>
      <point x="326.203" y="707.147" type="curve" smooth="yes"/>
      <point x="327.31" y="707.273"/>
      <point x="329.147" y="707.35"/>
      <point x="329.869" y="707.35" type="curve" smooth="yes"/>
      <point x="331.337" y="707.35" type="line"/>
      <point x="332.523" y="706.762" type="line" smooth="yes"/>
      <point x="332.533" y="706.755"/>
      <point x="351.692" y="707.105"/>
      <point x="354.204" y="684.53" type="curve" smooth="yes"/>
      <point x="356.352" y="665.221"/>
      <point x="353.383" y="664.649"/>
      <point x="353.385" y="664.646" type="curve" smooth="yes"/>
      <point x="355.378" y="656.954"/>
      <point x="364.99" y="652.624"/>
      <point x="371.943" y="651.737" type="curve" smooth="yes"/>
      <point x="388.755" y="649.672"/>
      <point x="406.483" y="649.018"/>
      <point x="424.851" y="649.018" type="curve" smooth="yes"/>
      <point x="463.013" y="649.018"/>
      <point x="503.881" y="652.211"/>
      <point x="545.427" y="652.211" type="curve" smooth="yes"/>
      <point x="563.988" y="652.211"/>
      <point x="582.558" y="651.451"/>
      <point x="601.166" y="649.578" type="curve" smooth="yes"/>
      <point x="640.618" y="645.608"/>
      <point x="688.827" y="636.116"/>
      <point x="710.997" y="602.157" type="curve" smooth="yes"/>
      <point x="720.79" y="587.163"/>
      <point x="731.115" y="563.336"/>
      <point x="735.42" y="509.36" type="curve" smooth="yes"/>
      <point x="737.702" y="480.745"/>
      <point x="736.169" y="451.314"/>
      <point x="732.179" y="421.969" type="curve" smooth="yes"/>
      <point x="728.966" y="398.321"/>
      <point x="724.192" y="374.41"/>
      <point x="717.878" y="350.456" type="curve" smooth="yes"/>
      <point x="696.326" y="268.779"/>
      <point x="656.848" y="186.47"/>
      <point x="599.44" y="112.953" type="curve" smooth="yes"/>
      <point x="560.677" y="63.3086"/>
      <point x="479.236" y="10.0186"/>
      <point x="398.631" y="10.0186" type="curve" smooth="yes"/>
      <point x="393.556" y="10.0186"/>
      <point x="388.343" y="10.2568"/>
      <point x="383.353" y="10.708" type="curve" smooth="yes"/>
      <point x="382.71" y="10.7656" type="line"/>
      <point x="382.115" y="10.9375" type="line" smooth="yes"/>
      <point x="369.899" y="14.3438"/>
      <point x="371.033" y="13.6709"/>
      <point x="368.555" y="14.7715" type="curve" smooth="yes"/>
      <point x="368.375" y="14.8525"/>
      <point x="368.156" y="14.9473"/>
      <point x="367.668" y="15.1943" type="curve" smooth="yes"/>
      <point x="366.79" y="15.6406"/>
      <point x="365.938" y="16.1367"/>
      <point x="364.78" y="16.8174" type="curve" smooth="yes"/>
      <point x="361.874" y="18.5264"/>
      <point x="359.191" y="20.5098"/>
      <point x="357.743" y="21.3721" type="curve" smooth="yes"/>
      <point x="354.242" y="23.4551"/>
      <point x="346.853" y="27.4609"/>
      <point x="341.219" y="32.9785" type="curve" smooth="yes"/>
      <point x="338.301" y="35.835"/>
      <point x="335.04" y="39.498"/>
      <point x="333.149" y="44.6113" type="curve" smooth="yes"/>
      <point x="332.565" y="46.1982"/>
      <point x="329.601" y="51.3535"/>
      <point x="331.065" y="62.2432" type="curve" smooth="yes"/>
      <point x="331.276" y="63.8145"/>
      <point x="331.938" y="66.9219"/>
      <point x="332.2" y="67.917" type="curve" smooth="yes"/>
      <point x="335.91" y="81.9795"/>
      <point x="346.689" y="99.1465"/>
      <point x="364.403" y="112.944" type="curve" smooth="yes"/>
      <point x="402.328" y="142.483"/>
      <point x="449.61" y="146.348"/>
      <point x="477.845" y="163.754" type="curve" smooth="yes"/>
      <point x="542.349" y="203.518"/>
      <point x="589.115" y="259.424"/>
      <point x="604.322" y="317.066" type="curve" smooth="yes"/>
      <point x="605.934" y="323.176"/>
      <point x="607.197" y="329.31"/>
      <point x="608.09" y="335.46" type="curve" smooth="yes"/>
      <point x="612.739" y="367.42"/>
      <point x="610.703" y="379.286"/>
      <point x="606.918" y="387.786" type="curve" smooth="yes"/>
      <point x="589.484" y="426.943"/>
      <point x="543.221" y="436.723"/>
      <point x="483.832" y="436.723" type="curve" smooth="yes"/>
      <point x="449.35" y="436.723"/>
      <point x="411.529" y="432.993"/>
      <point x="376.425" y="430.996" type="curve" smooth="yes"/>
      <point x="358.342" y="429.967"/>
      <point x="339.736" y="429.012"/>
      <point x="320.75" y="429.012" type="curve" smooth="yes"/>
      <point x="315.421" y="429.012"/>
      <point x="309.955" y="428.971"/>
      <point x="304.835" y="428.971" type="curve" smooth="yes"/>
      <point x="271.156" y="428.971"/>
      <point x="234.395" y="431.003"/>
      <point x="212.721" y="456.506" type="curve" smooth="yes"/>
      <point x="195.26" y="477.051"/>
      <point x="195.084" y="501.169"/>
      <point x="203.854" y="537.812" type="curve" smooth="yes"/>
      <point x="204.577" y="540.834"/>
      <point x="205.359" y="543.937"/>
      <point x="206.155" y="546.953" type="curve" smooth="yes"/>
      <point x="213.367" y="574.29"/>
      <point x="223.153" y="600.572"/>
      <point x="233.04" y="626.344" type="curve" smooth="yes"/>
      <point x="237.987" y="639.247"/>
      <point x="243.513" y="651.774"/>
      <point x="248.499" y="664.032" type="curve" smooth="yes"/>
      <point x="252.147" y="673"/>
      <point x="252.573" y="674.141"/>
      <point x="253.121" y="675.234" type="curve" smooth="yes"/>
      <point x="255.602" y="680.192"/>
      <point x="259.541" y="686.398"/>
      <point x="266.093" y="691.805" type="curve" smooth="yes"/>
      <point x="266.711" y="692.314" type="line"/>
      <point x="267.393" y="692.718" type="line" smooth="yes"/>
      <point x="272.484" y="695.727"/>
      <point x="278.309" y="701.624"/>
      <point x="294.144" y="704.788" type="curve" smooth="yes"/>
      <point x="307.967" y="707.553"/>
      <point x="321.314" y="706.615"/>
    </contour>
  </outline>
</glyph>
